<?xml version="1.0" encoding="UTF-8"?> <svg xmlns="http://www.w3.org/2000/svg" width="189" height="100" viewBox="0 0 189 100" fill="none"> <rect width="188" height="100" transform="translate(0.637695)" fill="white"></rect> <path d="M45.0617 50.6459C44.9519 50.2762 44.5247 50.1123 44.1953 50.2902L40.9078 52.0978C40.5913 52.2618 40.4536 52.6325 40.5504 52.9744C41.0735 54.9327 41.2791 57.0279 41.0455 59.2054C40.248 67.0799 33.9752 73.3109 26.3684 73.7902C17.2211 74.3795 9.61425 66.8333 9.61425 57.4388C9.61425 54.3028 10.4667 51.3857 11.9252 48.8933L11.9551 47.9621L10.0156 44.3057C9.80897 43.9082 9.27295 43.8675 8.99764 44.2261C6.05407 48.1565 4.40336 53.1688 4.66468 58.5918C5.2147 69.6435 13.9221 78.5587 24.5688 78.9832C36.3986 79.4622 46.1237 69.6298 46.1237 57.4415C46.1237 55.0724 45.7524 52.7853 45.0645 50.649M16.3844 58.7973V62.4401L34.5278 52.5251C35.8071 51.8265 36.605 50.4573 36.605 48.9508V45.3081L18.4614 55.223C17.1822 55.9217 16.3844 57.2909 16.3844 58.7973ZM36.605 33.1609L18.4614 43.0621C17.1822 43.7608 16.3844 45.1437 16.3844 46.6501V50.2929L34.5278 40.3779C35.8071 39.6793 36.605 38.2964 36.605 36.8036V33.1609ZM36.5451 24.6565V21L18.4017 30.915C17.1224 31.6136 16.3245 32.9965 16.3245 34.4892V38.1457L34.4679 28.2308C35.7472 27.5321 36.5451 26.1492 36.5451 24.6565Z" fill="#B1BECA"></path> <path d="M124.073 69.3254H129.066V49.9886H124.073V69.3254ZM111.473 49.5914C108.708 49.5914 106.37 50.9883 104.871 52.6179C103.412 50.7829 101.157 49.5914 98.6256 49.5914C96.8235 49.5914 95.0629 50.1937 93.6048 51.5498V49.9886H88.8042V69.3254H93.7973V56.7674C94.4851 55.8502 96.0258 54.3708 98.1304 54.3708C99.0796 54.3708 100.166 54.6998 100.923 55.576C101.501 56.2468 101.844 57.1235 101.844 58.8764V69.3254H106.824V59.0818C106.824 58.2739 106.754 57.5618 106.672 56.9181C107.332 55.9323 109.01 54.3708 111.156 54.3708C112.119 54.3708 113.192 54.6998 113.962 55.576C114.526 56.2468 114.884 57.1235 114.884 58.8764V69.3254H119.863V59.0818C119.863 56.2059 119.175 54.2202 117.979 52.7001C116.493 50.7829 114.032 49.5914 111.473 49.5914ZM79.2294 69.3254H84.2088V41.4294L79.2294 42.7715V69.3254ZM69.8343 51.5498C68.3762 50.3172 66.5055 49.5914 64.3872 49.5914C59.3389 49.5914 55.2673 53.9737 55.2673 59.6707C55.2673 62.3001 56.1886 64.6966 57.647 66.4495C59.2977 68.4353 61.8975 69.7227 64.6623 69.7227C66.5331 69.7227 68.3075 69.1204 69.8343 67.7642V69.3254H74.6212V49.9886H69.8343V51.5498ZM69.6416 62.5466C68.6924 63.9708 67.0419 64.9294 65.1574 64.9294C62.365 64.9294 60.2467 62.6972 60.2467 59.6707C60.2467 56.8906 62.1311 54.3708 65.0473 54.3708C66.9593 54.3708 68.61 55.3298 69.6416 56.7674V62.5466ZM126.562 40.3064C124.76 40.3064 123.315 41.7444 123.315 43.6205C123.315 45.4831 124.76 46.9209 126.562 46.9209C128.377 46.9209 129.822 45.4831 129.822 43.6205C129.822 41.7444 128.377 40.3064 126.562 40.3064ZM170.084 69.3254H175.064V41.4294L170.084 42.7715V69.3254ZM160.689 51.5498C159.231 50.3172 157.347 49.5914 155.242 49.5914C150.18 49.5914 146.122 53.9737 146.122 59.6707C146.122 62.3001 147.043 64.6966 148.488 66.4495C150.139 68.4353 152.752 69.7227 155.517 69.7227C157.388 69.7227 159.148 69.1204 160.689 67.7642V69.3254H165.476V49.9886H160.689V51.5498ZM160.496 62.5466C159.533 63.9708 157.883 64.9294 156.012 64.9294C153.206 64.9294 151.101 62.6972 151.101 59.6707C151.101 56.8906 152.986 54.3708 155.902 54.3708C157.814 54.3708 159.465 55.3298 160.496 56.7674V62.5466ZM138.446 51.9469V49.9886H133.66V69.3254H138.639V57.1645C139.258 56.0142 140.977 54.3708 143.165 54.3708C143.893 54.3708 144.623 54.4504 144.967 54.5765L145.544 49.756C145.007 49.6766 144.581 49.5921 143.853 49.5921C141.597 49.5921 139.561 50.5087 138.446 51.9469ZM179.658 42.7722V69.3261H184.638V41.4301L179.658 42.7722Z" fill="#B1BECA"></path> </svg> 