<svg width="377" height="252" viewBox="0 0 377 252" fill="none" xmlns="http://www.w3.org/2000/svg">
<g filter="url(#filter0_dd_259_7258)">
<mask id="path-1-inside-1_259_7258" fill="white">
<path d="M63.8357 43.332C64.2956 38.0748 68.9303 34.1858 74.1875 34.6458L331.201 57.1315C336.458 57.5915 340.347 62.2262 339.887 67.4834L327.499 209.079C327.039 214.336 322.404 218.225 317.147 217.765L60.1339 195.279C54.8767 194.819 50.9877 190.185 51.4477 184.927L63.8357 43.332Z"/>
</mask>
<path d="M63.8357 43.332C64.2956 38.0748 68.9303 34.1858 74.1875 34.6458L331.201 57.1315C336.458 57.5915 340.347 62.2262 339.887 67.4834L327.499 209.079C327.039 214.336 322.404 218.225 317.147 217.765L60.1339 195.279C54.8767 194.819 50.9877 190.185 51.4477 184.927L63.8357 43.332Z" fill="url(#paint0_linear_259_7258)" fill-opacity="0.1"/>
<path d="M74.0834 35.8357L331.097 58.3214L331.305 55.9417L74.2916 33.4559L74.0834 35.8357ZM338.697 67.3793L326.309 208.975L328.689 209.183L341.077 67.5875L338.697 67.3793ZM317.251 216.575L60.238 194.089L60.0298 196.469L317.043 218.955L317.251 216.575ZM52.6375 185.031L65.0255 43.4361L62.6458 43.2279L50.2578 184.823L52.6375 185.031ZM60.238 194.089C55.6379 193.687 52.2351 189.631 52.6375 185.031L50.2578 184.823C49.7404 190.738 54.1154 195.952 60.0298 196.469L60.238 194.089ZM326.309 208.975C325.907 213.575 321.851 216.977 317.251 216.575L317.043 218.955C322.957 219.472 328.171 215.097 328.689 209.183L326.309 208.975ZM331.097 58.3214C335.697 58.7239 339.1 62.7792 338.697 67.3793L341.077 67.5875C341.594 61.6731 337.219 56.4591 331.305 55.9417L331.097 58.3214ZM74.2916 33.4559C68.3772 32.9385 63.1632 37.3135 62.6458 43.2279L65.0255 43.4361C65.428 38.836 69.4833 35.4332 74.0834 35.8357L74.2916 33.4559Z" fill="#F4F4F4" mask="url(#path-1-inside-1_259_7258)"/>
<g clip-path="url(#clip0_259_7258)">
<rect x="79.7354" y="12.3496" width="250.829" height="206.635" rx="19.1107" transform="rotate(5 79.7354 12.3496)" fill="url(#paint1_linear_259_7258)" fill-opacity="0.1"/>
<rect x="88.4219" y="22.7002" width="231.718" height="187.524" rx="9.55537" transform="rotate(5 88.4219 22.7002)" fill="#FAFAFA"/>
<path d="M95.0586 166.14C95.0586 166.14 119.41 150.679 135.738 153.723C146.098 155.655 149.331 164.09 159.65 166.234C182.294 170.941 190.151 139.965 213.254 141.056C228.382 141.77 234.454 155.534 249.573 154.653C265.885 153.701 286.091 134.231 286.091 134.231" stroke="#8320DA" stroke-width="1.38394"/>
<path d="M95.059 166.117C95.059 166.117 119.834 164.466 134.402 169.559C144.364 173.042 148.019 179.912 158.345 182.087C177.327 186.085 186.246 165.296 205.591 166.746C223.687 168.102 229.725 189.011 247.687 186.425C263.613 184.133 280.472 161.473 280.472 161.473" stroke="#F57B01" stroke-width="1.38574"/>
<g filter="url(#filter1_d_259_7258)">
<circle cx="222.516" cy="143.927" r="5.15361" transform="rotate(5 222.516 143.927)" fill="url(#paint2_linear_259_7258)" fill-opacity="0.5"/>
<circle cx="222.515" cy="143.928" r="2.5768" transform="rotate(5 222.515 143.928)" fill="white"/>
<path d="M222.349 145.854L219.036 183.718" stroke="white" stroke-width="1.2884"/>
</g>
<path d="M113.284 53.7455C112.842 53.7069 112.423 53.5383 112.077 53.2611C111.732 52.9838 111.476 52.6104 111.343 52.1879C111.21 51.7655 111.205 51.313 111.329 50.8878C111.453 50.4626 111.7 50.0836 112.039 49.7989C112.379 49.5142 112.795 49.3365 113.235 49.2883C113.675 49.24 114.12 49.3235 114.513 49.528C114.906 49.7325 115.229 50.049 115.442 50.4373C115.655 50.8256 115.749 51.2684 115.71 51.7097C115.658 52.3014 115.373 52.8483 114.918 53.2301C114.463 53.6119 113.875 53.7973 113.284 53.7455ZM113.596 50.1759C113.331 50.1527 113.066 50.2086 112.833 50.3364C112.6 50.4642 112.41 50.6583 112.287 50.894C112.164 51.1298 112.114 51.3966 112.143 51.6608C112.172 51.925 112.279 52.1746 112.45 52.3782C112.62 52.5818 112.848 52.7302 113.103 52.8045C113.358 52.8789 113.63 52.8759 113.883 52.796C114.136 52.7161 114.361 52.5628 114.527 52.3556C114.693 52.1483 114.794 51.8964 114.818 51.6316C114.849 51.2766 114.737 50.9238 114.508 50.6508C114.279 50.3778 113.951 50.2069 113.596 50.1759ZM117.084 58.2744C116.966 58.2626 116.858 58.2052 116.782 58.1146C116.706 58.0239 116.668 57.9072 116.677 57.7892C116.778 56.6291 116.215 55.8005 113.128 55.5303C110.04 55.2602 109.342 55.9784 109.24 57.1386C109.23 57.2569 109.173 57.3663 109.082 57.4426C108.991 57.519 108.873 57.5561 108.755 57.5457C108.636 57.5354 108.527 57.4784 108.451 57.3874C108.374 57.2964 108.337 57.1788 108.348 57.0605C108.595 54.2345 111.825 54.5172 113.206 54.6379C114.586 54.7587 117.816 55.0413 117.569 57.8673C117.557 57.985 117.5 58.0934 117.409 58.1695C117.319 58.2455 117.202 58.2832 117.084 58.2744ZM109.862 53.9318L109.672 53.9151C109.203 53.8279 108.787 53.5579 108.517 53.1643C108.247 52.7708 108.144 52.2861 108.231 51.8167C108.318 51.3473 108.588 50.9318 108.982 50.6616C109.375 50.3913 109.86 50.2885 110.329 50.3757C110.39 50.3836 110.448 50.4038 110.5 50.435C110.553 50.4662 110.598 50.5078 110.634 50.5572C110.67 50.6066 110.695 50.6628 110.708 50.7223C110.722 50.7818 110.723 50.8434 110.711 50.9033C110.7 50.9632 110.676 51.0202 110.642 51.0707C110.608 51.1212 110.564 51.1642 110.513 51.1971C110.461 51.2299 110.404 51.252 110.343 51.2618C110.283 51.2717 110.222 51.2691 110.163 51.2543C110.047 51.2326 109.929 51.2343 109.815 51.2593C109.7 51.2843 109.592 51.3321 109.496 51.3999C109.4 51.4648 109.317 51.5484 109.253 51.6457C109.189 51.7431 109.145 51.8522 109.123 51.9667C109.1 52.0826 109.101 52.2018 109.125 52.3174C109.149 52.433 109.196 52.5427 109.263 52.64C109.33 52.7374 109.415 52.8205 109.514 52.8844C109.614 52.9484 109.725 52.992 109.841 53.0127C110.033 53.0462 110.231 53.0173 110.406 52.9302C110.512 52.8767 110.635 52.8677 110.748 52.9051C110.862 52.9425 110.955 53.0234 111.009 53.1298C111.062 53.2362 111.071 53.3596 111.034 53.4727C110.996 53.5857 110.915 53.6793 110.809 53.7328C110.518 53.8847 110.19 53.9535 109.862 53.9318ZM106.414 56.8913C106.296 56.8795 106.188 56.8221 106.112 56.7315C106.036 56.6408 105.998 56.5241 106.007 56.4061C106.147 54.7997 106.67 53.7663 108.77 53.9501C108.888 53.9604 108.997 54.0174 109.074 54.1084C109.15 54.1994 109.187 54.317 109.177 54.4353C109.166 54.5536 109.11 54.663 109.019 54.7394C108.928 54.8157 108.81 54.8528 108.692 54.8425C107.293 54.7202 107.016 55.1455 106.899 56.4841C106.887 56.6019 106.83 56.7103 106.739 56.7864C106.649 56.8624 106.532 56.9001 106.414 56.8913Z" fill="#8320DA"/>
<path d="M124.528 59.0965L124.601 58.2541C125.324 57.7801 126.013 57.2985 126.67 56.8092C127.336 56.3208 127.931 55.8308 128.453 55.3394C128.977 54.8385 129.394 54.3427 129.706 53.8519C130.027 53.3621 130.208 52.8792 130.25 52.4032C130.28 52.051 130.247 51.7219 130.149 51.416C130.052 51.1006 129.874 50.8356 129.614 50.6211C129.364 50.4074 129.011 50.2805 128.554 50.2406C128.107 50.2014 127.727 50.2689 127.414 50.443C127.102 50.6075 126.856 50.845 126.676 51.1553C126.505 51.4569 126.404 51.7981 126.37 52.1789L125.214 52.0777C125.281 51.4217 125.468 50.8722 125.775 50.4291C126.093 49.9773 126.5 49.6485 126.998 49.4426C127.496 49.2367 128.049 49.1605 128.658 49.2138C129.258 49.2662 129.776 49.4267 130.213 49.6951C130.651 49.954 130.979 50.3137 131.198 50.774C131.426 51.2352 131.511 51.799 131.453 52.4653C131.412 52.9317 131.271 53.3894 131.031 53.8384C130.799 54.2881 130.502 54.7226 130.14 55.1416C129.778 55.5512 129.379 55.9432 128.943 56.3175C128.517 56.6927 128.079 57.0428 127.628 57.3679C127.187 57.6938 126.773 57.9885 126.386 58.2519L131.255 58.6779L131.167 59.6774L124.528 59.0965ZM136.009 60.2737C135.372 60.2179 134.801 60.0528 134.297 59.7786C133.804 59.4956 133.426 59.1076 133.162 58.6145C132.898 58.1215 132.787 57.5266 132.829 56.8301L134.042 56.9363C134.019 57.3179 134.078 57.678 134.221 58.0166C134.375 58.3466 134.61 58.6213 134.926 58.8408C135.243 59.0604 135.634 59.1905 136.1 59.2313C136.567 59.2721 136.965 59.2159 137.295 59.0625C137.625 58.9091 137.884 58.6919 138.071 58.411C138.26 58.1206 138.37 57.7897 138.403 57.4185C138.444 56.952 138.362 56.5661 138.159 56.2605C137.966 55.9462 137.685 55.7058 137.316 55.5393C136.957 55.364 136.554 55.2568 136.106 55.2177L135.364 55.1527L135.453 54.1389L136.195 54.2039C136.852 54.2613 137.379 54.154 137.777 53.8819C138.175 53.6097 138.397 53.2072 138.444 52.6741C138.482 52.2362 138.367 51.8568 138.097 51.5359C137.838 51.2158 137.413 51.03 136.823 50.9784C136.261 50.9292 135.799 51.0519 135.438 51.3464C135.076 51.6409 134.85 52.0383 134.758 52.5387L133.544 52.4325C133.62 51.8924 133.81 51.4246 134.113 51.0291C134.416 50.6336 134.806 50.3416 135.283 50.1531C135.761 49.9551 136.309 49.8831 136.928 49.9373C137.575 49.9939 138.108 50.1556 138.526 50.4224C138.944 50.6891 139.245 51.0225 139.431 51.4224C139.626 51.8231 139.704 52.252 139.664 52.7089C139.634 53.0516 139.544 53.3698 139.393 53.6636C139.244 53.9478 139.035 54.1934 138.768 54.4002C138.5 54.607 138.172 54.7413 137.783 54.8032C138.166 54.9135 138.501 55.0914 138.786 55.337C139.081 55.5834 139.304 55.8907 139.454 56.2587C139.604 56.6267 139.658 57.0487 139.617 57.5247C139.569 58.0672 139.396 58.5605 139.099 59.0045C138.811 59.4397 138.407 59.7785 137.887 60.0207C137.368 60.2535 136.742 60.3378 136.009 60.2737ZM141.698 60.6707C141.46 60.6499 141.267 60.5562 141.119 60.3898C140.98 60.2146 140.921 60.0128 140.941 59.7844C140.961 59.5559 141.054 59.3722 141.22 59.2332C141.396 59.0855 141.603 59.0221 141.841 59.0429C142.079 59.0637 142.267 59.1617 142.405 59.3369C142.544 59.5025 142.603 59.6996 142.583 59.928C142.563 60.1565 142.47 60.3449 142.304 60.4934C142.138 60.6324 141.936 60.6915 141.698 60.6707ZM147.433 61.2731C146.786 61.2165 146.215 61.0467 145.722 60.7637C145.23 60.4713 144.85 60.0975 144.583 59.6425C144.317 59.178 144.209 58.6602 144.259 58.089C144.294 57.6797 144.409 57.306 144.601 56.968C144.794 56.63 145.044 56.3449 145.352 56.1129C145.671 55.8722 146.025 55.7161 146.415 55.6447C145.898 55.4077 145.51 55.0764 145.25 54.6508C144.999 54.226 144.894 53.7804 144.935 53.3139C144.979 52.819 145.146 52.3828 145.438 52.0055C145.73 51.6282 146.12 51.3409 146.607 51.1438C147.104 50.9474 147.681 50.878 148.337 50.9355C149.004 50.9938 149.56 51.1623 150.005 51.4411C150.46 51.7207 150.794 52.0712 151.007 52.4927C151.229 52.915 151.318 53.3736 151.275 53.8686C151.234 54.335 151.049 54.7552 150.719 55.1292C150.398 55.504 149.963 55.7633 149.413 55.9071C149.794 56.0459 150.116 56.2611 150.378 56.5526C150.651 56.8354 150.848 57.1596 150.969 57.5251C151.1 57.8915 151.148 58.2793 151.112 58.6887C151.062 59.2598 150.866 59.751 150.523 60.1622C150.19 60.5648 149.751 60.8669 149.206 61.0686C148.671 61.2616 148.08 61.3297 147.433 61.2731ZM147.525 60.2165C148.277 60.2823 148.849 60.1597 149.241 59.8486C149.643 59.5289 149.869 59.0835 149.919 58.5123C149.976 57.865 149.814 57.3569 149.434 56.9879C149.063 56.6198 148.54 56.4062 147.864 56.347C147.188 56.2879 146.631 56.407 146.193 56.7044C145.764 57.0026 145.521 57.4753 145.464 58.1226C145.414 58.6937 145.559 59.1716 145.9 59.5563C146.241 59.9315 146.783 60.1515 147.525 60.2165ZM147.951 55.3475C148.551 55.4 149.041 55.2846 149.421 55.0013C149.8 54.7179 150.012 54.3288 150.055 53.8338C150.104 53.2722 149.965 52.8332 149.638 52.5168C149.32 52.2012 148.857 52.0168 148.247 51.9635C147.648 51.9111 147.159 52.0122 146.782 52.267C146.414 52.5225 146.206 52.9311 146.157 53.4928C146.114 53.9878 146.25 54.4073 146.565 54.7514C146.89 55.0964 147.352 55.2951 147.951 55.3475ZM157.22 61.9567L154.138 57.716L157.55 54.7341L159.021 54.8628L155.114 58.2331L155.204 57.3776L158.748 62.0904L157.22 61.9567ZM152.794 61.5695L153.693 51.2889L154.893 51.3939L153.993 61.6744L152.794 61.5695ZM166.38 62.9307C165.827 62.8824 165.352 62.7305 164.952 62.4749C164.562 62.2202 164.272 61.8543 164.084 61.3774C163.905 60.9014 163.845 60.3206 163.905 59.6353L164.283 55.3232L165.482 55.4281L165.116 59.6117C165.054 60.3256 165.164 60.8772 165.446 61.2664C165.729 61.6556 166.155 61.8752 166.727 61.9252C167.126 61.9601 167.496 61.8966 167.837 61.7345C168.178 61.5629 168.455 61.3042 168.667 60.9583C168.89 60.6037 169.025 60.1599 169.071 59.6268L169.409 55.7716L170.608 55.8766L169.978 63.0729L168.893 62.978L168.932 61.7152C168.674 62.1435 168.319 62.4674 167.868 62.6869C167.418 62.8969 166.922 62.9782 166.38 62.9307ZM174.665 63.6556C174.065 63.6031 173.55 63.4573 173.12 63.2183C172.7 62.9801 172.372 62.6732 172.136 62.2977C171.911 61.9135 171.791 61.4762 171.776 60.9857L173.004 61.0931C173.03 61.3448 173.11 61.582 173.244 61.8047C173.378 62.0275 173.568 62.2167 173.813 62.3725C174.069 62.5195 174.387 62.6097 174.768 62.643C175.101 62.6722 175.381 62.6487 175.608 62.5727C175.836 62.4872 176.01 62.3633 176.13 62.2011C176.259 62.0398 176.332 61.8591 176.35 61.6592C176.376 61.3641 176.324 61.1342 176.195 60.9694C176.075 60.8054 175.885 60.669 175.626 60.56C175.368 60.4415 175.051 60.3322 174.676 60.2323C174.367 60.1477 174.064 60.0445 173.768 59.9226C173.472 59.8008 173.211 59.6533 172.987 59.4802C172.763 59.2976 172.59 59.0858 172.467 58.8448C172.354 58.6047 172.312 58.3181 172.341 57.9849C172.377 57.5756 172.513 57.223 172.75 56.9272C172.988 56.6219 173.309 56.3959 173.716 56.2491C174.131 56.1033 174.601 56.0532 175.124 56.099C175.895 56.1665 176.503 56.4066 176.946 56.8195C177.39 57.2324 177.623 57.7948 177.647 58.5067L176.462 58.403C176.446 58.0371 176.314 57.7426 176.065 57.5194C175.826 57.2875 175.478 57.1515 175.021 57.1115C174.574 57.0724 174.223 57.1329 173.97 57.2929C173.725 57.4538 173.59 57.6818 173.564 57.9768C173.548 58.1672 173.595 58.344 173.705 58.5071C173.826 58.6616 174.005 58.802 174.244 58.9283C174.492 59.0555 174.798 59.1687 175.164 59.2678C175.632 59.3951 176.055 59.5472 176.433 59.7241C176.811 59.9011 177.106 60.1427 177.319 60.4491C177.542 60.7468 177.632 61.1527 177.587 61.6667C177.548 62.1141 177.399 62.4944 177.142 62.8076C176.893 63.1216 176.556 63.3559 176.13 63.5104C175.705 63.6555 175.217 63.7039 174.665 63.6556ZM182.274 64.3213C181.599 64.2622 181.013 64.0527 180.517 63.6927C180.03 63.3336 179.664 62.8604 179.418 62.2729C179.173 61.676 179.083 61.0015 179.149 60.2495C179.215 59.488 179.416 58.8389 179.751 58.3023C180.095 57.7665 180.543 57.3644 181.094 57.0961C181.654 56.8286 182.277 56.7248 182.963 56.7848C183.667 56.8464 184.248 57.0555 184.706 57.4121C185.174 57.7696 185.513 58.2165 185.725 58.753C185.948 59.2809 186.032 59.8494 185.979 60.4586C185.971 60.5538 185.962 60.6537 185.953 60.7585C185.944 60.8632 185.929 60.9817 185.907 61.1142L180.025 60.5995L180.106 59.6714L184.832 60.0849C184.861 59.4256 184.687 58.8924 184.31 58.4853C183.943 58.0791 183.454 57.8494 182.845 57.7961C182.436 57.7602 182.047 57.8221 181.678 57.9817C181.319 58.1326 181.02 58.3797 180.779 58.7231C180.538 59.057 180.395 59.4905 180.348 60.0235L180.313 60.4233C180.262 61.0135 180.323 61.5177 180.498 61.9358C180.682 62.3547 180.936 62.6791 181.261 62.909C181.596 63.1397 181.963 63.2726 182.363 63.3076C182.868 63.3517 183.291 63.2785 183.634 63.0878C183.987 62.8885 184.252 62.6047 184.428 62.2365L185.613 62.3402C185.461 62.7585 185.228 63.1266 184.912 63.4443C184.597 63.762 184.216 64.002 183.77 64.1644C183.335 64.3182 182.836 64.3705 182.274 64.3213ZM187.249 64.5839L187.879 57.3875L188.964 57.4825L188.93 58.8607C189.12 58.5512 189.349 58.2931 189.616 58.0863C189.893 57.8803 190.213 57.7309 190.576 57.6379C190.949 57.5458 191.363 57.5198 191.82 57.5597L191.71 58.8162L191.268 58.7775C190.963 58.7509 190.669 58.7683 190.386 58.8298C190.103 58.8818 189.844 58.9887 189.609 59.1504C189.384 59.3129 189.196 59.5458 189.045 59.8491C188.904 60.1438 188.813 60.5195 188.773 60.9764L188.449 64.6889L187.249 64.5839ZM195.232 65.455C194.632 65.4025 194.117 65.2567 193.687 65.0177C193.267 64.7795 192.939 64.4726 192.703 64.0971C192.478 63.7129 192.358 63.2756 192.343 62.7851L193.571 62.8925C193.597 63.1442 193.677 63.3814 193.811 63.6041C193.945 63.8269 194.135 64.0161 194.38 64.1719C194.636 64.3189 194.954 64.4091 195.335 64.4424C195.668 64.4716 195.948 64.4481 196.175 64.3721C196.404 64.2866 196.577 64.1627 196.697 64.0005C196.826 63.8392 196.9 63.6585 196.917 63.4586C196.943 63.1635 196.891 62.9336 196.762 62.7688C196.642 62.6048 196.452 62.4684 196.193 62.3594C195.935 62.2409 195.618 62.1316 195.244 62.0317C194.934 61.9471 194.632 61.8439 194.335 61.722C194.039 61.6002 193.779 61.4527 193.554 61.2796C193.33 61.097 193.157 60.8852 193.034 60.6442C192.921 60.4041 192.879 60.1174 192.908 59.7843C192.944 59.375 193.08 59.0224 193.317 58.7266C193.555 58.4213 193.877 58.1953 194.283 58.0485C194.698 57.9027 195.168 57.8526 195.691 57.8984C196.463 57.9659 197.07 58.206 197.513 58.6189C197.957 59.0318 198.19 59.5942 198.215 60.3061L197.029 60.2024C197.013 59.8365 196.881 59.542 196.632 59.3188C196.393 59.0869 196.045 58.9509 195.589 58.9109C195.141 58.8718 194.791 58.9323 194.537 59.0923C194.292 59.2532 194.157 59.4811 194.132 59.7762C194.115 59.9666 194.162 60.1434 194.272 60.3065C194.393 60.4609 194.573 60.6014 194.811 60.7277C195.059 60.8549 195.365 60.9681 195.731 61.0672C196.199 61.1945 196.622 61.3466 197 61.5235C197.378 61.7005 197.673 61.9421 197.886 62.2485C198.11 62.5462 198.199 62.9521 198.154 63.4661C198.115 63.9135 197.966 64.2938 197.709 64.607C197.461 64.921 197.124 65.1553 196.698 65.3098C196.273 65.4549 195.784 65.5033 195.232 65.455Z" fill="#000202"/>
<path d="M107.327 87.545C107.338 87.4267 107.395 87.3173 107.486 87.2409C107.577 87.1646 107.694 87.1275 107.813 87.1379L110.49 87.3721C110.608 87.3824 110.718 87.4394 110.794 87.5304C110.87 87.6214 110.907 87.739 110.897 87.8573C110.887 87.9757 110.83 88.085 110.739 88.1614C110.648 88.2378 110.53 88.2748 110.412 88.2645L107.735 88.0303C107.616 88.0199 107.507 87.963 107.43 87.872C107.354 87.781 107.317 87.6634 107.327 87.545ZM105.791 83.0457C105.753 83.0006 105.707 82.9634 105.655 82.9362C105.603 82.909 105.545 82.8924 105.487 82.8872C105.428 82.8821 105.369 82.8886 105.313 82.9063C105.257 82.924 105.205 82.9526 105.159 82.9904C105.114 83.0283 105.077 83.0747 105.05 83.1269C105.023 83.1792 105.006 83.2362 105.001 83.2949C104.996 83.3536 105.002 83.4127 105.02 83.4689C105.038 83.525 105.066 83.5772 105.104 83.6223L106.445 85.2198L104.847 86.5601C104.802 86.5979 104.765 86.6443 104.738 86.6965C104.71 86.7488 104.694 86.8059 104.689 86.8645C104.684 86.9232 104.69 86.9823 104.708 87.0385C104.725 87.0947 104.754 87.1468 104.792 87.1919C104.868 87.283 104.978 87.34 105.096 87.3504C105.155 87.3555 105.214 87.3491 105.27 87.3313C105.326 87.3136 105.379 87.285 105.424 87.2472L107.365 85.6185C107.41 85.5807 107.447 85.5343 107.474 85.4821C107.502 85.4299 107.518 85.3728 107.523 85.3141C107.529 85.2554 107.522 85.1963 107.504 85.1401C107.487 85.0839 107.458 85.0318 107.42 84.9867L105.791 83.0457Z" fill="#F57B01"/>
<path d="M104.382 80.0932C103.909 80.0517 103.439 80.2001 103.075 80.5055C102.711 80.8109 102.483 81.2485 102.442 81.7218L101.661 90.6459C101.619 91.1193 101.768 91.5897 102.073 91.9537C102.379 92.3177 102.816 92.5455 103.289 92.5869L113.998 93.5238C114.472 93.5652 114.942 93.4169 115.306 93.1114C115.67 92.806 115.898 92.3685 115.939 91.8951L116.72 82.971C116.761 82.4977 116.613 82.0272 116.308 81.6632C116.002 81.2992 115.565 81.0715 115.091 81.0301L104.382 80.0932ZM115.013 81.9225C115.25 81.9432 115.469 82.0571 115.621 82.2391C115.774 82.4211 115.848 82.6563 115.828 82.893L115.047 91.817C115.026 92.0537 114.912 92.2725 114.73 92.4252C114.548 92.5779 114.313 92.6521 114.076 92.6314L103.367 91.6945C103.131 91.6738 102.912 91.5599 102.759 91.3779C102.607 91.1959 102.532 90.9607 102.553 90.724L103.334 81.7999C103.355 81.5632 103.468 81.3445 103.651 81.1917C103.833 81.039 104.068 80.9649 104.304 80.9856L115.013 81.9225Z" fill="#F57B01"/>
<path d="M122.868 92.5223L123.625 83.8696L121.874 84.148L121.949 83.2913L124.142 82.5624L124.956 82.6336L124.081 92.6285L122.868 92.5223ZM129.314 93.259C128.676 93.2032 128.106 93.0382 127.602 92.7639C127.109 92.481 126.73 92.0929 126.466 91.5999C126.203 91.1068 126.092 90.512 126.133 89.8154L127.347 89.9216C127.323 90.3032 127.383 90.6633 127.526 91.0019C127.679 91.3319 127.914 91.6066 128.231 91.8262C128.547 92.0457 128.939 92.1758 129.405 92.2167C129.872 92.2575 130.27 92.2012 130.6 92.0478C130.93 91.8944 131.189 91.6773 131.376 91.3963C131.565 91.1059 131.675 90.775 131.708 90.4038C131.748 89.9374 131.667 89.5514 131.464 89.2458C131.27 88.9316 130.989 88.6912 130.62 88.5246C130.262 88.3493 129.858 88.2421 129.411 88.203L128.669 88.138L128.757 87.1242L129.5 87.1892C130.157 87.2467 130.684 87.1393 131.082 86.8672C131.48 86.5951 131.702 86.1925 131.749 85.6594C131.787 85.2215 131.671 84.8421 131.402 84.5212C131.142 84.2012 130.717 84.0153 130.127 83.9637C129.566 83.9145 129.104 84.0372 128.743 84.3317C128.381 84.6262 128.155 85.0236 128.063 85.524L126.849 85.4178C126.925 84.8777 127.115 84.4099 127.418 84.0144C127.721 83.6189 128.111 83.3269 128.588 83.1384C129.066 82.9404 129.614 82.8685 130.233 82.9226C130.88 82.9792 131.413 83.1409 131.83 83.4077C132.248 83.6744 132.55 84.0078 132.736 84.4077C132.931 84.8085 133.008 85.2373 132.969 85.6942C132.939 86.0369 132.848 86.3551 132.698 86.6489C132.548 86.9332 132.34 87.1787 132.072 87.3855C131.805 87.5923 131.477 87.7266 131.088 87.7885C131.471 87.8988 131.806 88.0768 132.091 88.3223C132.386 88.5688 132.609 88.876 132.759 89.244C132.909 89.612 132.963 90.034 132.921 90.51C132.874 91.0526 132.701 91.5458 132.403 91.9898C132.116 92.425 131.712 92.7638 131.192 93.0061C130.673 93.2388 130.047 93.3231 129.314 93.259ZM141.201 94.1263C140.772 94.0888 140.407 93.9897 140.105 93.829C139.802 93.6682 139.579 93.4233 139.435 93.0942C139.302 92.7564 139.259 92.3162 139.306 91.7736L139.657 87.7613L138.401 87.6514L138.489 86.6376L139.746 86.7475L140.055 85.0193L141.098 85.1105L140.945 86.8525L143.03 87.0349L142.941 88.0486L140.856 87.8662L140.505 91.8785C140.466 92.3259 140.53 92.6384 140.697 92.8161C140.864 92.9842 141.177 93.0882 141.633 93.1282L142.404 93.1957L142.315 94.2237L141.201 94.1263ZM146.91 94.7985C146.235 94.7394 145.649 94.5298 145.153 94.1699C144.666 93.8108 144.3 93.3375 144.054 92.7501C143.809 92.1531 143.719 91.4786 143.785 90.7266C143.852 89.9651 144.052 89.316 144.387 88.7794C144.731 88.2436 145.179 87.8415 145.73 87.5732C146.29 87.3057 146.913 87.202 147.599 87.2619C148.303 87.3235 148.884 87.5327 149.342 87.8893C149.81 88.2467 150.15 88.6937 150.362 89.2302C150.584 89.758 150.668 90.3265 150.615 90.9357C150.607 91.0309 150.598 91.1309 150.589 91.2356C150.58 91.3403 150.565 91.4589 150.543 91.5913L144.661 91.0766L144.742 90.1485L149.468 90.562C149.497 89.9027 149.323 89.3695 148.946 88.9625C148.579 88.5563 148.091 88.3265 147.481 88.2732C147.072 88.2374 146.683 88.2993 146.314 88.4588C145.956 88.6097 145.656 88.8569 145.415 89.2003C145.175 89.5341 145.031 89.9676 144.984 90.5007L144.949 90.9005C144.898 91.4906 144.959 91.9948 145.134 92.4129C145.318 92.8319 145.572 93.1563 145.897 93.3862C146.232 93.6169 146.599 93.7497 146.999 93.7847C147.504 93.8288 147.927 93.7556 148.27 93.565C148.623 93.3657 148.888 93.0819 149.064 92.7136L150.249 92.8173C150.097 93.2357 149.864 93.6037 149.548 93.9214C149.233 94.2391 148.852 94.4792 148.406 94.6416C147.971 94.7953 147.472 94.8476 146.91 94.7985ZM151.885 95.0611L152.515 87.8647L153.6 87.9596L153.566 89.3379C153.756 89.0284 153.985 88.7702 154.252 88.5634C154.529 88.3575 154.849 88.208 155.212 88.1151C155.585 88.023 156 87.9969 156.456 88.0369L156.347 89.2934L155.904 89.2547C155.599 89.228 155.305 89.2454 155.022 89.307C154.739 89.359 154.48 89.4658 154.245 89.6275C154.02 89.7901 153.832 90.023 153.681 90.3263C153.54 90.6209 153.449 90.9967 153.409 91.4536L153.085 95.166L151.885 95.0611ZM157.17 95.5234L157.8 88.327L158.885 88.422L158.866 89.4563C159.127 89.105 159.457 88.8413 159.856 88.6652C160.266 88.4804 160.699 88.408 161.156 88.448C161.527 88.4805 161.856 88.562 162.142 88.6925C162.438 88.8144 162.691 88.99 162.901 89.2194C163.112 89.4393 163.275 89.7125 163.391 90.0392C163.676 89.6229 164.044 89.3146 164.493 89.1141C164.953 88.9049 165.43 88.8219 165.925 88.8653C166.477 88.9136 166.948 89.0698 167.337 89.3341C167.737 89.5897 168.026 89.9555 168.205 90.4316C168.394 90.899 168.458 91.4801 168.398 92.175L168.022 96.4728L166.837 96.3691L167.201 92.1998C167.265 91.4764 167.165 90.9209 166.901 90.5333C166.638 90.1458 166.239 89.9287 165.706 89.8821C165.335 89.8496 164.993 89.9204 164.681 90.0945C164.369 90.259 164.111 90.5194 163.907 90.8757C163.703 91.2319 163.578 91.6814 163.53 92.2239L163.196 96.0506L161.996 95.9456L162.361 91.7763C162.424 91.0529 162.324 90.4974 162.061 90.1098C161.797 89.7223 161.394 89.5048 160.852 89.4573C160.49 89.4257 160.153 89.4969 159.84 89.671C159.538 89.8364 159.285 90.0972 159.081 90.4535C158.877 90.8097 158.752 91.2591 158.704 91.8017L158.369 95.6283L157.17 95.5234ZM170.001 96.646L170.631 89.4496L171.83 89.5545L171.2 96.7509L170.001 96.646ZM171.364 87.9743C171.126 87.9535 170.933 87.8598 170.784 87.6934C170.646 87.5182 170.587 87.3116 170.608 87.0737C170.629 86.8357 170.722 86.652 170.887 86.5225C171.062 86.3844 171.268 86.3257 171.506 86.3465C171.735 86.3665 171.923 86.4597 172.072 86.6262C172.221 86.7831 172.285 86.9806 172.265 87.2186C172.244 87.4566 172.145 87.6494 171.969 87.797C171.794 87.9352 171.592 87.9943 171.364 87.9743ZM173.317 96.9361L173.947 89.7397L175.032 89.8347L174.979 91.0962C175.247 90.6688 175.601 90.3496 176.041 90.1388C176.492 89.9192 176.989 89.8332 177.531 89.8807C178.093 89.9298 178.568 90.0865 178.958 90.3508C179.348 90.6055 179.637 90.9714 179.826 91.4483C180.015 91.9156 180.079 92.4968 180.018 93.1917L179.642 97.4895L178.443 97.3846L178.808 93.2152C178.871 92.4918 178.757 91.935 178.465 91.545C178.182 91.1558 177.751 90.9358 177.17 90.885C176.77 90.85 176.404 90.9187 176.073 91.0912C175.742 91.2541 175.465 91.5128 175.242 91.8674C175.03 92.2133 174.9 92.6575 174.852 93.2001L174.516 97.041L173.317 96.9361ZM183.843 98.0296C183.262 97.9788 182.785 97.8364 182.412 97.6024C182.041 97.3588 181.774 97.0621 181.613 96.7123C181.452 96.3529 181.39 95.9734 181.425 95.5736C181.467 95.0881 181.627 94.6896 181.903 94.3781C182.19 94.0579 182.57 93.8321 183.042 93.7007C183.524 93.5607 184.079 93.5182 184.707 93.5731L186.606 93.7393C186.646 93.2919 186.607 92.9144 186.49 92.6068C186.383 92.2905 186.203 92.0446 185.95 91.869C185.706 91.6942 185.389 91.5897 184.999 91.5556C184.542 91.5156 184.137 91.5953 183.784 91.7946C183.431 91.9939 183.196 92.3139 183.081 92.7546L181.853 92.6472C181.955 92.1382 182.164 91.7248 182.48 91.4071C182.806 91.0807 183.2 90.8467 183.663 90.7049C184.127 90.5537 184.602 90.4993 185.088 90.5418C185.754 90.6001 186.295 90.7721 186.711 91.0579C187.138 91.3351 187.442 91.7021 187.622 92.1592C187.804 92.6067 187.869 93.1255 187.817 93.7157L187.427 98.1706L186.356 98.0769L186.396 96.7999C186.283 96.9914 186.143 97.171 185.975 97.3385C185.817 97.4974 185.633 97.6347 185.421 97.7505C185.21 97.8567 184.973 97.9367 184.709 97.9903C184.455 98.0448 184.166 98.0579 183.843 98.0296ZM184.117 97.0321C184.45 97.0612 184.756 97.0208 185.034 96.9109C185.323 96.7923 185.572 96.6223 185.784 96.401C185.996 96.1701 186.162 95.9113 186.283 95.6246C186.414 95.3386 186.493 95.0338 186.521 94.7102L186.525 94.6674L184.726 94.51C184.26 94.4692 183.879 94.4934 183.583 94.5826C183.288 94.6623 183.07 94.7967 182.929 94.9858C182.789 95.1654 182.708 95.3789 182.686 95.6264C182.664 95.8834 182.701 96.1121 182.799 96.3125C182.906 96.5137 183.069 96.6766 183.288 96.8013C183.517 96.9269 183.793 97.0038 184.117 97.0321ZM189.283 98.3329L190.182 88.0524L191.382 88.1573L190.482 98.4378L189.283 98.3329ZM198.953 99.3516C198.353 99.2991 197.838 99.1533 197.408 98.9143C196.988 98.6761 196.66 98.3692 196.424 97.9937C196.199 97.6095 196.079 97.1722 196.064 96.6817L197.292 96.7891C197.318 97.0408 197.398 97.278 197.532 97.5007C197.666 97.7235 197.855 97.9127 198.101 98.0685C198.357 98.2155 198.675 98.3057 199.056 98.339C199.389 98.3682 199.669 98.3447 199.896 98.2687C200.124 98.1832 200.298 98.0593 200.418 97.8971C200.547 97.7358 200.62 97.5551 200.638 97.3552C200.664 97.0601 200.612 96.8302 200.482 96.6654C200.363 96.5014 200.173 96.365 199.914 96.256C199.656 96.1375 199.339 96.0282 198.964 95.9283C198.655 95.8437 198.352 95.7405 198.056 95.6186C197.76 95.4968 197.499 95.3493 197.275 95.1762C197.051 94.9936 196.878 94.7818 196.755 94.5408C196.642 94.3007 196.6 94.0141 196.629 93.6809C196.664 93.2716 196.801 92.919 197.038 92.6232C197.275 92.3179 197.597 92.0919 198.003 91.9451C198.419 91.7993 198.889 91.7492 199.412 91.795C200.183 91.8625 200.791 92.1027 201.234 92.5155C201.677 92.9284 201.911 93.4908 201.935 94.2027L200.75 94.099C200.734 93.7331 200.602 93.4386 200.353 93.2154C200.114 92.9835 199.766 92.8475 199.309 92.8075C198.862 92.7684 198.511 92.8289 198.257 92.9889C198.013 93.1498 197.878 93.3778 197.852 93.6728C197.836 93.8632 197.883 94.04 197.993 94.2031C198.114 94.3576 198.293 94.498 198.532 94.6243C198.78 94.7515 199.086 94.8647 199.452 94.9638C199.92 95.0911 200.343 95.2432 200.721 95.4201C201.099 95.5971 201.394 95.8387 201.607 96.1451C201.83 96.4428 201.92 96.8487 201.875 97.3627C201.835 97.8101 201.687 98.1904 201.43 98.5036C201.181 98.8176 200.844 99.0519 200.418 99.2064C199.993 99.3515 199.505 99.3999 198.953 99.3516ZM206.562 100.017C205.886 99.9582 205.301 99.7487 204.804 99.3887C204.318 99.0296 203.952 98.5564 203.706 97.9689C203.461 97.372 203.371 96.6975 203.437 95.9455C203.503 95.184 203.704 94.5349 204.039 93.9983C204.383 93.4625 204.831 93.0604 205.382 92.7921C205.942 92.5246 206.565 92.4208 207.25 92.4808C207.955 92.5424 208.536 92.7515 208.994 93.1081C209.462 93.4656 209.801 93.9125 210.013 94.449C210.236 94.9769 210.32 95.5454 210.267 96.1546C210.259 96.2498 210.25 96.3497 210.241 96.4545C210.232 96.5592 210.216 96.6777 210.195 96.8102L204.313 96.2955L204.394 95.3674L209.12 95.7809C209.149 95.1216 208.975 94.5884 208.598 94.1813C208.231 93.7751 207.742 93.5454 207.133 93.4921C206.724 93.4562 206.335 93.5181 205.966 93.6777C205.607 93.8286 205.308 94.0757 205.067 94.4191C204.826 94.753 204.683 95.1865 204.636 95.7195L204.601 96.1193C204.55 96.7095 204.611 97.2137 204.786 97.6318C204.969 98.0507 205.224 98.3751 205.549 98.605C205.884 98.8357 206.251 98.9686 206.651 99.0036C207.156 99.0477 207.579 98.9745 207.922 98.7838C208.275 98.5845 208.54 98.3007 208.716 97.9325L209.901 98.0362C209.749 98.4545 209.516 98.8226 209.2 99.1403C208.885 99.458 208.504 99.698 208.058 99.8604C207.623 100.014 207.124 100.066 206.562 100.017ZM214.127 100.507C213.699 100.469 213.333 100.37 213.031 100.209C212.729 100.048 212.505 99.8035 212.361 99.4744C212.228 99.1366 212.185 98.6964 212.232 98.1538L212.583 94.1415L211.327 94.0316L211.416 93.0178L212.672 93.1278L212.982 91.3995L214.024 91.4907L213.872 93.2327L215.956 93.4151L215.868 94.4289L213.783 94.2465L213.432 98.2587C213.393 98.7061 213.456 99.0187 213.623 99.1963C213.791 99.3644 214.103 99.4685 214.56 99.5085L215.331 99.5759L215.241 100.604L214.127 100.507ZM219.49 101.148C218.937 101.1 218.462 100.948 218.062 100.692C217.672 100.438 217.382 100.072 217.194 99.595C217.015 99.119 216.955 98.5382 217.015 97.8529L217.393 93.5408L218.592 93.6457L218.226 97.8293C218.164 98.5432 218.274 99.0948 218.556 99.484C218.839 99.8732 219.265 100.093 219.836 100.143C220.236 100.178 220.606 100.114 220.947 99.9521C221.288 99.7805 221.565 99.5218 221.777 99.1759C222 98.8213 222.135 98.3775 222.181 97.8444L222.519 93.9892L223.718 94.0942L223.088 101.291L222.003 101.196L222.042 99.9328C221.784 100.361 221.429 100.685 220.978 100.905C220.528 101.115 220.032 101.196 219.49 101.148ZM224.802 104.606L225.706 94.2681L226.791 94.363L226.789 95.5426C226.961 95.3275 227.175 95.1304 227.431 94.9513C227.687 94.7627 227.987 94.6211 228.331 94.5265C228.676 94.4224 229.062 94.3891 229.491 94.4266C230.195 94.4882 230.79 94.7081 231.275 95.0862C231.769 95.4652 232.134 95.9527 232.37 96.5488C232.616 97.1363 232.707 97.7917 232.644 98.5152C232.58 99.2386 232.376 99.873 232.031 100.418C231.696 100.955 231.253 101.362 230.701 101.64C230.149 101.918 229.521 102.026 228.817 101.964C228.236 101.914 227.733 101.75 227.306 101.472C226.889 101.196 226.58 100.833 226.38 100.384L226.001 104.711L224.802 104.606ZM228.78 100.911C229.246 100.952 229.67 100.874 230.052 100.677C230.433 100.48 230.742 100.19 230.977 99.8081C231.222 99.4171 231.369 98.9456 231.417 98.3935C231.464 97.8509 231.401 97.3658 231.228 96.9381C231.064 96.5113 230.811 96.1679 230.469 95.9078C230.127 95.6477 229.723 95.4972 229.257 95.4564C228.781 95.4147 228.352 95.4923 227.97 95.6891C227.589 95.886 227.28 96.1803 227.044 96.5721C226.808 96.9639 226.667 97.4311 226.619 97.9737C226.571 98.5258 226.629 99.0153 226.793 99.4421C226.958 99.8594 227.211 100.198 227.553 100.458C227.895 100.718 228.304 100.869 228.78 100.911Z" fill="#000202"/>
</g>
<rect x="80.2782" y="12.9966" width="249.634" height="205.441" rx="18.5135" transform="rotate(5 80.2782 12.9966)" stroke="#F4F4F4" stroke-width="1.19442"/>
</g>
<g filter="url(#filter2_di_259_7258)">
<path d="M318.691 93.3596C318.691 88.0823 322.969 83.8042 328.247 83.8042H352.732C357.68 83.8042 361.691 87.8149 361.691 92.7624C361.691 97.7098 357.68 101.721 352.732 101.721H318.691V93.3596Z" fill="#8320DA" shape-rendering="crispEdges"/>
<path d="M331.379 93.2778V92.5994H335.163V93.2778H331.379ZM338.66 95.8769C338.233 95.8769 337.845 95.8004 337.494 95.6475C337.15 95.4883 336.877 95.2526 336.673 94.9404C336.469 94.6283 336.361 94.2397 336.348 93.7747H337.16C337.166 94.0295 337.227 94.2652 337.342 94.4818C337.463 94.692 337.635 94.8608 337.858 94.9882C338.081 95.1156 338.348 95.1793 338.66 95.1793C338.972 95.1793 339.234 95.1188 339.444 94.9978C339.654 94.8767 339.813 94.7175 339.922 94.52C340.03 94.3162 340.084 94.09 340.084 93.8416C340.084 93.5294 340.008 93.2778 339.855 93.0867C339.708 92.8892 339.507 92.7459 339.253 92.6567C339.004 92.5612 338.73 92.5134 338.431 92.5134H337.934V91.8349H338.431C338.87 91.8349 339.214 91.733 339.463 91.5292C339.711 91.3253 339.836 91.045 339.836 90.6883C339.836 90.3953 339.737 90.15 339.539 89.9525C339.348 89.7551 339.055 89.6563 338.66 89.6563C338.284 89.6563 337.985 89.7646 337.762 89.9812C337.539 90.1978 337.412 90.4749 337.38 90.8125H336.568C336.587 90.4494 336.685 90.1277 336.864 89.8474C337.042 89.5671 337.284 89.3506 337.59 89.1977C337.896 89.0384 338.256 88.9588 338.67 88.9588C339.103 88.9588 339.466 89.0352 339.759 89.1881C340.052 89.341 340.272 89.5448 340.418 89.7997C340.571 90.0545 340.648 90.3348 340.648 90.6405C340.648 90.8699 340.606 91.0864 340.524 91.2903C340.441 91.4878 340.317 91.663 340.151 91.8158C339.985 91.9687 339.775 92.077 339.52 92.1407C339.781 92.1917 340.014 92.2904 340.218 92.4369C340.428 92.5835 340.594 92.7746 340.715 93.0103C340.836 93.246 340.896 93.5231 340.896 93.8416C340.896 94.2047 340.81 94.5423 340.638 94.8544C340.473 95.1602 340.224 95.4087 339.893 95.5998C339.562 95.7845 339.151 95.8769 338.66 95.8769ZM342.733 95.7622L346.622 89.0734H347.425L343.536 95.7622H342.733ZM346.947 95.8769C346.66 95.8769 346.402 95.8132 346.173 95.6858C345.944 95.552 345.759 95.3641 345.619 95.122C345.485 94.8799 345.418 94.5965 345.418 94.2716C345.418 93.9403 345.485 93.6568 345.619 93.4211C345.759 93.1791 345.944 92.9943 346.173 92.8669C346.402 92.7332 346.66 92.6663 346.947 92.6663C347.24 92.6663 347.498 92.7332 347.721 92.8669C347.95 92.9943 348.132 93.1791 348.265 93.4211C348.399 93.6568 348.466 93.9403 348.466 94.2716C348.466 94.5965 348.399 94.8799 348.265 95.122C348.132 95.3641 347.95 95.552 347.721 95.6858C347.492 95.8132 347.234 95.8769 346.947 95.8769ZM346.937 95.2558C347.09 95.2558 347.23 95.2207 347.358 95.1507C347.485 95.0742 347.587 94.9627 347.663 94.8162C347.746 94.6697 347.788 94.4882 347.788 94.2716C347.788 94.0486 347.749 93.8639 347.673 93.7174C347.597 93.5708 347.495 93.4625 347.367 93.3925C347.24 93.316 347.1 93.2778 346.947 93.2778C346.8 93.2778 346.66 93.316 346.526 93.3925C346.399 93.4625 346.294 93.5708 346.211 93.7174C346.135 93.8639 346.096 94.0486 346.096 94.2716C346.096 94.4882 346.135 94.6697 346.211 94.8162C346.294 94.9627 346.399 95.0742 346.526 95.1507C346.654 95.2207 346.791 95.2558 346.937 95.2558ZM343.268 92.1789C342.981 92.1789 342.723 92.1152 342.494 91.9878C342.265 91.8541 342.08 91.6661 341.94 91.4241C341.806 91.182 341.739 90.8985 341.739 90.5736C341.739 90.2424 341.806 89.9589 341.94 89.7232C342.08 89.4811 342.265 89.2964 342.494 89.169C342.73 89.0352 342.991 88.9683 343.278 88.9683C343.564 88.9683 343.822 89.0352 344.052 89.169C344.281 89.2964 344.462 89.4811 344.596 89.7232C344.73 89.9589 344.797 90.2424 344.797 90.5736C344.797 90.8985 344.73 91.182 344.596 91.4241C344.462 91.6661 344.278 91.8541 344.042 91.9878C343.813 92.1152 343.555 92.1789 343.268 92.1789ZM343.268 91.5578C343.421 91.5578 343.561 91.5228 343.688 91.4527C343.816 91.3763 343.918 91.2648 343.994 91.1183C344.071 90.9718 344.109 90.7902 344.109 90.5736C344.109 90.3507 344.071 90.1659 343.994 90.0194C343.918 89.8665 343.816 89.7551 343.688 89.685C343.561 89.6085 343.424 89.5703 343.278 89.5703C343.131 89.5703 342.991 89.6085 342.857 89.685C342.723 89.7551 342.615 89.8665 342.532 90.0194C342.456 90.1659 342.418 90.3507 342.418 90.5736C342.418 90.7902 342.456 90.9718 342.532 91.1183C342.615 91.2648 342.72 91.3763 342.848 91.4527C342.981 91.5228 343.122 91.5578 343.268 91.5578Z" fill="white"/>
</g>
<g filter="url(#filter3_di_259_7258)">
<path d="M15.3091 152.482C15.3091 147.535 19.3198 143.524 24.2672 143.524H48.7529C54.0302 143.524 58.3083 147.802 58.3083 153.079V161.44H24.2672C19.3198 161.44 15.3091 157.43 15.3091 152.482Z" fill="#F57B01" shape-rendering="crispEdges"/>
<path d="M26.5732 154.794V150.628H27.2899V154.794H26.5732ZM24.7481 153.045V152.367H29.1149V153.045H24.7481ZM30.1737 155.482V154.918C30.626 154.561 31.056 154.202 31.4637 153.838C31.8778 153.475 32.2441 153.115 32.5626 152.759C32.8811 152.396 33.1295 152.042 33.3079 151.698C33.4926 151.354 33.585 151.023 33.585 150.704C33.585 150.469 33.5436 150.252 33.4608 150.054C33.378 149.851 33.2442 149.685 33.0594 149.558C32.8811 149.43 32.639 149.366 32.3332 149.366C32.0338 149.366 31.7854 149.433 31.5879 149.567C31.3904 149.695 31.2407 149.867 31.1388 150.083C31.0433 150.293 30.9955 150.526 30.9955 150.781H30.2215C30.2279 150.341 30.3202 149.965 30.4986 149.653C30.6833 149.335 30.935 149.093 31.2535 148.927C31.572 148.761 31.9351 148.679 32.3428 148.679C32.7441 148.679 33.0977 148.755 33.4034 148.908C33.7092 149.054 33.9481 149.274 34.1201 149.567C34.2985 149.86 34.3876 150.23 34.3876 150.676C34.3876 150.988 34.3208 151.3 34.187 151.612C34.0596 151.924 33.8876 152.23 33.671 152.529C33.4544 152.822 33.2123 153.106 32.9448 153.38C32.6836 153.654 32.4129 153.912 32.1326 154.154C31.8587 154.396 31.6007 154.616 31.3586 154.813H34.617V155.482H30.1737ZM38.0394 155.597C37.5808 155.597 37.1826 155.514 36.845 155.348C36.5138 155.183 36.2494 154.956 36.0519 154.67C35.8608 154.383 35.7398 154.061 35.6888 153.705H36.4724C36.5488 154.061 36.724 154.351 36.9979 154.574C37.2718 154.797 37.6222 154.909 38.049 154.909C38.3675 154.909 38.6382 154.835 38.8612 154.689C39.0905 154.542 39.2657 154.342 39.3867 154.087C39.5142 153.832 39.5779 153.549 39.5779 153.236C39.5779 152.912 39.5142 152.625 39.3867 152.376C39.2593 152.128 39.0842 151.937 38.8612 151.803C38.6382 151.663 38.3771 151.593 38.0777 151.593C37.7146 151.593 37.4056 151.673 37.1508 151.832C36.896 151.991 36.7049 152.195 36.5775 152.443H35.8035L36.3577 148.793H39.8932V149.491H36.9788L36.6061 151.545C36.7654 151.36 36.9756 151.211 37.2368 151.096C37.5043 150.975 37.8133 150.914 38.1637 150.914C38.4949 150.914 38.7943 150.972 39.0619 151.086C39.3294 151.201 39.5587 151.364 39.7499 151.574C39.941 151.784 40.0875 152.029 40.1894 152.31C40.2977 152.59 40.3518 152.896 40.3518 153.227C40.3518 153.552 40.2977 153.858 40.1894 154.144C40.0875 154.424 39.9378 154.676 39.7403 154.899C39.5428 155.116 39.3007 155.288 39.0141 155.415C38.7274 155.536 38.4025 155.597 38.0394 155.597ZM42.2854 155.482L46.1744 148.793H46.9771L43.088 155.482H42.2854ZM46.4993 155.597C46.2126 155.597 45.9546 155.533 45.7253 155.405C45.496 155.272 45.3113 155.084 45.1711 154.842C45.0373 154.6 44.9704 154.316 44.9704 153.991C44.9704 153.66 45.0373 153.377 45.1711 153.141C45.3113 152.899 45.496 152.714 45.7253 152.587C45.9546 152.453 46.2126 152.386 46.4993 152.386C46.7923 152.386 47.0503 152.453 47.2733 152.587C47.5026 152.714 47.6842 152.899 47.8179 153.141C47.9517 153.377 48.0186 153.66 48.0186 153.991C48.0186 154.316 47.9517 154.6 47.8179 154.842C47.6842 155.084 47.5026 155.272 47.2733 155.405C47.044 155.533 46.786 155.597 46.4993 155.597ZM46.4897 154.975C46.6426 154.975 46.7828 154.94 46.9102 154.87C47.0376 154.794 47.1395 154.682 47.216 154.536C47.2988 154.389 47.3402 154.208 47.3402 153.991C47.3402 153.768 47.302 153.584 47.2255 153.437C47.1491 153.291 47.0471 153.182 46.9197 153.112C46.7923 153.036 46.6522 152.998 46.4993 152.998C46.3528 152.998 46.2126 153.036 46.0789 153.112C45.9515 153.182 45.8464 153.291 45.7635 153.437C45.6871 153.584 45.6489 153.768 45.6489 153.991C45.6489 154.208 45.6871 154.389 45.7635 154.536C45.8464 154.682 45.9515 154.794 46.0789 154.87C46.2063 154.94 46.3432 154.975 46.4897 154.975ZM42.8205 151.899C42.5338 151.899 42.2758 151.835 42.0465 151.708C41.8172 151.574 41.6324 151.386 41.4923 151.144C41.3585 150.902 41.2916 150.618 41.2916 150.293C41.2916 149.962 41.3585 149.679 41.4923 149.443C41.6324 149.201 41.8172 149.016 42.0465 148.889C42.2822 148.755 42.5434 148.688 42.83 148.688C43.1167 148.688 43.3747 148.755 43.604 148.889C43.8334 149.016 44.0149 149.201 44.1487 149.443C44.2825 149.679 44.3493 149.962 44.3493 150.293C44.3493 150.618 44.2825 150.902 44.1487 151.144C44.0149 151.386 43.8302 151.574 43.5945 151.708C43.3651 151.835 43.1071 151.899 42.8205 151.899ZM42.8205 151.278C42.9734 151.278 43.1135 151.243 43.2409 151.172C43.3683 151.096 43.4702 150.985 43.5467 150.838C43.6231 150.692 43.6614 150.51 43.6614 150.293C43.6614 150.07 43.6231 149.886 43.5467 149.739C43.4702 149.586 43.3683 149.475 43.2409 149.405C43.1135 149.328 42.9766 149.29 42.83 149.29C42.6835 149.29 42.5434 149.328 42.4096 149.405C42.2758 149.475 42.1675 149.586 42.0847 149.739C42.0083 149.886 41.9701 150.07 41.9701 150.293C41.9701 150.51 42.0083 150.692 42.0847 150.838C42.1675 150.985 42.2726 151.096 42.4 151.172C42.5338 151.243 42.674 151.278 42.8205 151.278Z" fill="white"/>
</g>
<defs>
<filter id="filter0_dd_259_7258" x="39.0804" y="-0.739137" width="313.171" height="253.888" filterUnits="userSpaceOnUse" color-interpolation-filters="sRGB">
<feFlood flood-opacity="0" result="BackgroundImageFix"/>
<feColorMatrix in="SourceAlpha" type="matrix" values="0 0 0 0 0 0 0 0 0 0 0 0 0 0 0 0 0 0 127 0" result="hardAlpha"/>
<feOffset dy="2.38884"/>
<feGaussianBlur stdDeviation="4.77769"/>
<feComposite in2="hardAlpha" operator="out"/>
<feColorMatrix type="matrix" values="0 0 0 0 0.608856 0 0 0 0 0.979167 0 0 0 0 0.886589 0 0 0 0.1 0"/>
<feBlend mode="normal" in2="BackgroundImageFix" result="effect1_dropShadow_259_7258"/>
<feColorMatrix in="SourceAlpha" type="matrix" values="0 0 0 0 0 0 0 0 0 0 0 0 0 0 0 0 0 0 127 0" result="hardAlpha"/>
<feOffset dy="-2.38884"/>
<feGaussianBlur stdDeviation="4.77769"/>
<feComposite in2="hardAlpha" operator="out"/>
<feColorMatrix type="matrix" values="0 0 0 0 0.607843 0 0 0 0 0.980392 0 0 0 0 0.886275 0 0 0 0.1 0"/>
<feBlend mode="normal" in2="effect1_dropShadow_259_7258" result="effect2_dropShadow_259_7258"/>
<feBlend mode="normal" in="SourceGraphic" in2="effect2_dropShadow_259_7258" result="shape"/>
</filter>
<filter id="filter1_d_259_7258" x="207.055" y="131.043" width="30.9225" height="65.6149" filterUnits="userSpaceOnUse" color-interpolation-filters="sRGB">
<feFlood flood-opacity="0" result="BackgroundImageFix"/>
<feColorMatrix in="SourceAlpha" type="matrix" values="0 0 0 0 0 0 0 0 0 0 0 0 0 0 0 0 0 0 127 0" result="hardAlpha"/>
<feOffset dy="2.5768"/>
<feGaussianBlur stdDeviation="5.15361"/>
<feComposite in2="hardAlpha" operator="out"/>
<feColorMatrix type="matrix" values="0 0 0 0 0 0 0 0 0 0 0 0 0 0 0 0 0 0 0.1 0"/>
<feBlend mode="normal" in2="BackgroundImageFix" result="effect1_dropShadow_259_7258"/>
<feBlend mode="normal" in="SourceGraphic" in2="effect1_dropShadow_259_7258" result="shape"/>
</filter>
<filter id="filter2_di_259_7258" x="304.358" y="71.86" width="71.6651" height="46.5826" filterUnits="userSpaceOnUse" color-interpolation-filters="sRGB">
<feFlood flood-opacity="0" result="BackgroundImageFix"/>
<feColorMatrix in="SourceAlpha" type="matrix" values="0 0 0 0 0 0 0 0 0 0 0 0 0 0 0 0 0 0 127 0" result="hardAlpha"/>
<feOffset dy="2.38884"/>
<feGaussianBlur stdDeviation="7.16653"/>
<feComposite in2="hardAlpha" operator="out"/>
<feColorMatrix type="matrix" values="0 0 0 0 0.513726 0 0 0 0 0.12549 0 0 0 0 0.854902 0 0 0 0.1 0"/>
<feBlend mode="normal" in2="BackgroundImageFix" result="effect1_dropShadow_259_7258"/>
<feBlend mode="normal" in="SourceGraphic" in2="effect1_dropShadow_259_7258" result="shape"/>
<feColorMatrix in="SourceAlpha" type="matrix" values="0 0 0 0 0 0 0 0 0 0 0 0 0 0 0 0 0 0 127 0" result="hardAlpha"/>
<feOffset dy="2.38884"/>
<feGaussianBlur stdDeviation="7.16653"/>
<feComposite in2="hardAlpha" operator="arithmetic" k2="-1" k3="1"/>
<feColorMatrix type="matrix" values="0 0 0 0 1 0 0 0 0 1 0 0 0 0 1 0 0 0 0.25 0"/>
<feBlend mode="normal" in2="shape" result="effect2_innerShadow_259_7258"/>
</filter>
<filter id="filter3_di_259_7258" x="0.976024" y="131.58" width="71.6651" height="46.5826" filterUnits="userSpaceOnUse" color-interpolation-filters="sRGB">
<feFlood flood-opacity="0" result="BackgroundImageFix"/>
<feColorMatrix in="SourceAlpha" type="matrix" values="0 0 0 0 0 0 0 0 0 0 0 0 0 0 0 0 0 0 127 0" result="hardAlpha"/>
<feOffset dy="2.38884"/>
<feGaussianBlur stdDeviation="7.16653"/>
<feComposite in2="hardAlpha" operator="out"/>
<feColorMatrix type="matrix" values="0 0 0 0 0.960784 0 0 0 0 0.482353 0 0 0 0 0.00392157 0 0 0 0.1 0"/>
<feBlend mode="normal" in2="BackgroundImageFix" result="effect1_dropShadow_259_7258"/>
<feBlend mode="normal" in="SourceGraphic" in2="effect1_dropShadow_259_7258" result="shape"/>
<feColorMatrix in="SourceAlpha" type="matrix" values="0 0 0 0 0 0 0 0 0 0 0 0 0 0 0 0 0 0 127 0" result="hardAlpha"/>
<feOffset dy="2.38884"/>
<feGaussianBlur stdDeviation="7.16653"/>
<feComposite in2="hardAlpha" operator="arithmetic" k2="-1" k3="1"/>
<feColorMatrix type="matrix" values="0 0 0 0 1 0 0 0 0 1 0 0 0 0 1 0 0 0 0.25 0"/>
<feBlend mode="normal" in2="shape" result="effect2_innerShadow_259_7258"/>
</filter>
<linearGradient id="paint0_linear_259_7258" x1="74.6613" y1="34.6872" x2="257.756" y2="270.043" gradientUnits="userSpaceOnUse">
<stop stop-color="#EFFFFB"/>
<stop offset="1" stop-color="#CDFFF3"/>
</linearGradient>
<linearGradient id="paint1_linear_259_7258" x1="88.8151" y1="12.3496" x2="340.089" y2="203.476" gradientUnits="userSpaceOnUse">
<stop stop-color="#EFFFFB"/>
<stop offset="1" stop-color="#CDFFF3"/>
</linearGradient>
<linearGradient id="paint2_linear_259_7258" x1="222.516" y1="138.774" x2="222.516" y2="149.081" gradientUnits="userSpaceOnUse">
<stop stop-color="#969696"/>
<stop offset="1" stop-color="#D6D6D6"/>
</linearGradient>
<clipPath id="clip0_259_7258">
<rect x="79.7354" y="12.3496" width="250.829" height="206.635" rx="19.1107" transform="rotate(5 79.7354 12.3496)" fill="white"/>
</clipPath>
</defs>
</svg>
