<svg width="42" height="42" viewBox="0 0 42 42" fill="none" xmlns="http://www.w3.org/2000/svg">
<rect width="42" height="42" rx="21" fill="#FAFAFA"/>
<path d="M16.5 10.5H10.5V16.5H16.5V10.5ZM18 9V18H9V9H18ZM12 12H15V15H12V12ZM31.5 10.5H25.5V16.5H31.5V10.5ZM33 9V18H24V9H33ZM27 12H30V15H27V12ZM16.5 25.5H10.5V31.5H16.5V25.5ZM18 24V33H9V24H18ZM12 27H15V30H12V27ZM19.5 9H21V10.5H19.5V9ZM21 10.5H22.5V12H21V10.5ZM19.5 12H21V13.5H19.5V12ZM21 13.5H22.5V15H21V13.5ZM19.5 15H21V16.5H19.5V15ZM21 16.5H22.5V18H21V16.5ZM19.5 18H21V19.5H19.5V18ZM19.5 21H21V22.5H19.5V21ZM21 22.5H22.5V24H21V22.5ZM19.5 24H21V25.5H19.5V24ZM21 25.5H22.5V27H21V25.5ZM19.5 27H21V28.5H19.5V27ZM21 28.5H22.5V30H21V28.5ZM19.5 30H21V31.5H19.5V30ZM21 31.5H22.5V33H21V31.5ZM31.5 21H33V22.5H31.5V21ZM10.5 21H12V22.5H10.5V21ZM12 19.5H13.5V21H12V19.5ZM9 19.5H10.5V21H9V19.5ZM15 19.5H16.5V21H15V19.5ZM16.5 21H18V22.5H16.5V21ZM18 19.5H19.5V21H18V19.5ZM22.5 21H24V22.5H22.5V21ZM24 19.5H25.5V21H24V19.5ZM25.5 21H27V22.5H25.5V21ZM27 19.5H28.5V21H27V19.5ZM28.5 21H30V22.5H28.5V21ZM30 19.5H31.5V21H30V19.5ZM31.5 24H33V25.5H31.5V24ZM22.5 24H24V25.5H22.5V24ZM24 22.5H25.5V24H24V22.5ZM25.5 24H27V25.5H25.5V24ZM28.5 24H30V25.5H28.5V24ZM30 22.5H31.5V24H30V22.5ZM31.5 27H33V28.5H31.5V27ZM22.5 27H24V28.5H22.5V27ZM24 25.5H25.5V27H24V25.5ZM27 25.5H28.5V27H27V25.5ZM28.5 27H30V28.5H28.5V27ZM30 25.5H31.5V27H30V25.5ZM31.5 30H33V31.5H31.5V30ZM24 28.5H25.5V30H24V28.5ZM25.5 30H27V31.5H25.5V30ZM27 28.5H28.5V30H27V28.5ZM28.5 30H30V31.5H28.5V30ZM24 31.5H25.5V33H24V31.5ZM27 31.5H28.5V33H27V31.5ZM30 31.5H31.5V33H30V31.5Z" fill="#095140"/>
</svg>
