<svg width="42" height="42" viewBox="0 0 42 42" fill="none" xmlns="http://www.w3.org/2000/svg">
<rect width="42" height="42" rx="21" fill="#FAFAFA"/>
<path d="M24 28L22.6 26.575L26.175 23H16.5C15.25 23 14.1877 22.5627 13.313 21.688C12.4383 20.8133 12.0007 19.7507 12 18.5C11.9993 17.2493 12.437 16.187 13.313 15.313C14.189 14.439 15.2513 14.0013 16.5 14H17V16H16.5C15.8 16 15.2083 16.2417 14.725 16.725C14.2417 17.2083 14 17.8 14 18.5C14 19.2 14.2417 19.7917 14.725 20.275C15.2083 20.7583 15.8 21 16.5 21H26.175L22.6 17.4L24 16L30 22L24 28Z" fill="#095140"/>
</svg>
