<?xml version="1.0" encoding="UTF-8"?> <svg xmlns="http://www.w3.org/2000/svg" width="395" height="30" viewBox="0 0 395 30" fill="none"><g clip-path="url(#clip0_83_11)"><path d="M12.6844 22.6834H3.13741C2.08009 22.6834 1.30265 22.4657 0.80509 22.0303C0.328259 21.5742 0.0898438 20.7864 0.0898438 19.6669V3.80717C0.0898438 2.72912 0.317892 1.95169 0.773992 1.47486C1.25082 0.977296 2.02826 0.728516 3.10631 0.728516H12.2179C12.674 0.728516 12.902 0.946199 12.902 1.38156V2.71876C12.902 3.13339 12.674 3.34071 12.2179 3.34071H4.00814C3.32399 3.34071 2.98192 3.72423 2.98192 4.49132V9.96449H11.3161C11.7929 9.96449 12.0313 10.1925 12.0313 10.6486V11.9547C12.0313 12.3694 11.7929 12.5767 11.3161 12.5767H2.98192V18.8273C2.98192 19.2627 3.07521 19.584 3.2618 19.7913C3.44838 19.9779 3.75936 20.0712 4.19472 20.0712H12.6844C13.1612 20.0712 13.3996 20.2993 13.3996 20.7553V22.0614C13.3996 22.4761 13.1612 22.6834 12.6844 22.6834Z" fill="#B1BECA"></path><path d="M19.4877 22.0298C19.4877 22.5066 19.2597 22.745 18.8036 22.745H17.342C16.9066 22.745 16.689 22.5066 16.689 22.0298V9.93285C16.689 9.02066 17.031 8.40907 17.7152 8.09809C18.6067 7.68347 19.7469 7.3621 21.1359 7.13407C22.525 6.90603 23.8 6.79199 24.9609 6.79199C26.3085 6.79199 27.314 6.94748 27.9774 7.25846C28.6408 7.56943 29.0969 8.04625 29.3457 8.68894C29.553 9.2487 29.6566 10.2646 29.6566 11.7365V22.0298C29.6566 22.5066 29.439 22.745 29.0036 22.745H27.5109C27.0756 22.745 26.8579 22.5066 26.8579 22.0298V12.2963C26.8579 11.3841 26.7957 10.731 26.6713 10.3371C26.5469 9.96394 26.2878 9.69442 25.8938 9.52858C25.4999 9.34199 24.8987 9.2487 24.0902 9.2487C22.5353 9.2487 21.2603 9.45603 20.2652 9.87065C19.975 10.0158 19.778 10.1609 19.6743 10.306C19.5499 10.4512 19.4877 10.7414 19.4877 11.1767V22.0298Z" fill="#B1BECA"></path><path d="M38.2132 16.7429C38.2132 18.0282 38.3895 18.93 38.7418 19.4483C39.1564 20.091 40.2448 20.4539 42.0071 20.5368C42.4011 20.5575 42.5979 20.7752 42.5979 21.1898L42.5358 22.3715C42.4736 22.7447 42.2248 22.9313 41.7894 22.9313C40.3589 22.9313 39.2292 22.8173 38.3998 22.5892C37.5912 22.3612 36.9382 21.9465 36.4406 21.3453C36.1504 20.9929 35.9016 20.5057 35.6943 19.8837C35.5077 19.241 35.4144 18.1526 35.4144 16.6185V9.59042H33.5175C33.3516 9.59042 33.2065 9.52823 33.0821 9.40384C32.9577 9.27944 32.8955 9.12396 32.8955 8.93737V7.84896C32.8955 7.66237 32.9577 7.50688 33.0821 7.38249C33.2065 7.23736 33.3724 7.16481 33.5797 7.16481H35.4766L35.5699 3.71298C35.6113 3.19469 35.8187 2.93555 36.1919 2.93555H37.6223C38.0164 2.93555 38.2132 3.19469 38.2132 3.71298V7.16481H41.4784C41.7064 7.16481 41.8827 7.22701 42.0071 7.3514C42.1523 7.45504 42.2248 7.61053 42.2248 7.81786V8.90627C42.2248 9.13431 42.1523 9.31054 42.0071 9.43493C41.8827 9.53858 41.717 9.59042 41.5095 9.59042H38.2132V16.7429Z" fill="#B1BECA"></path><path d="M47.1325 15.7478C47.1529 17.4478 47.4848 18.6917 48.1276 19.4795C48.7909 20.2673 50.0245 20.6612 51.8282 20.6612C53.2378 20.6612 54.4404 20.5161 55.4355 20.2258L56.244 20.0703C56.4928 20.0703 56.6688 20.1947 56.7727 20.4435C56.9798 20.9618 57.0837 21.3661 57.0837 21.6563C57.0837 21.9258 56.9176 22.1331 56.5861 22.2783C55.3005 22.8173 53.611 23.0868 51.5172 23.0868C48.8842 23.0868 47.0183 22.4545 45.9197 21.1899C44.8206 19.9045 44.2715 17.8313 44.2715 14.9703C44.2715 13.5191 44.4164 12.2752 44.7068 11.2386C45.0178 10.1813 45.4737 9.32094 46.0751 8.65754C46.6762 7.99414 47.4226 7.50693 48.3142 7.19596C49.2054 6.88498 50.2422 6.72949 51.4239 6.72949C52.73 6.72949 53.8389 6.93682 54.7514 7.35144C55.6634 7.76606 56.3373 8.4917 56.7727 9.52827C57.2081 10.5441 57.4258 12.2338 57.4258 14.5972C57.4258 15.0947 57.3427 15.4161 57.177 15.5612C57.1148 15.6027 57.0109 15.6441 56.866 15.6856C56.7416 15.727 56.6275 15.7478 56.5239 15.7478H47.1325ZM47.1636 13.5088H54.7203L54.7514 12.7935C54.7514 11.5289 54.5026 10.5959 54.005 9.99474C53.5075 9.39353 52.595 9.09291 51.2684 9.09291C49.9828 9.09291 48.9877 9.42463 48.2831 10.088C47.5781 10.7307 47.2049 11.8709 47.1636 13.5088Z" fill="#B1BECA"></path><path d="M64.1298 22.0298C64.1298 22.5066 63.9019 22.745 63.4457 22.745H61.9841C61.5487 22.745 61.3311 22.5066 61.3311 22.0298V10.1194C61.3311 9.74626 61.3724 9.42493 61.4554 9.15541C61.5385 8.86517 61.7562 8.57491 62.1085 8.28468C62.5439 7.93225 63.3422 7.60053 64.503 7.28955C65.6847 6.95783 66.8042 6.79199 67.8615 6.79199C68.587 6.79199 69.1157 6.83344 69.4475 6.91638C69.5719 6.93713 69.6754 6.99932 69.7585 7.10297C69.8415 7.20661 69.8829 7.331 69.8829 7.47614C69.8829 8.09809 69.8415 8.5853 69.7585 8.93772C69.6963 9.22796 69.4995 9.37309 69.1676 9.37309L67.675 9.31089C67.1774 9.31089 66.6385 9.36274 66.0579 9.46638C65.4981 9.57003 65.073 9.71516 64.7829 9.90175C64.4928 10.0883 64.3164 10.2438 64.2542 10.3682C64.1712 10.5133 64.1298 10.8139 64.1298 11.27V22.0298Z" fill="#B1BECA"></path><path d="M75.184 29.2444C75.184 29.7212 74.9353 29.9597 74.4377 29.9597H73.0383C72.6029 29.9597 72.3853 29.7212 72.3853 29.2444V10.0261C72.3853 9.42493 72.4368 8.99992 72.5407 8.75114C72.6856 8.41942 73.0175 8.12919 73.5359 7.88041C74.1578 7.59018 75.0596 7.34139 76.2414 7.13407C77.4231 6.90603 78.5631 6.79199 79.6621 6.79199C81.3205 6.79199 82.5746 7.08222 83.4249 7.66272C84.2956 8.22248 84.9176 9.06211 85.2907 10.1816C85.6844 11.3011 85.8816 12.7731 85.8816 14.5975C85.8816 16.6914 85.6431 18.3499 85.1664 19.5731C84.7101 20.7755 83.974 21.667 82.9584 22.2475C81.9425 22.8072 80.4395 23.0871 78.4493 23.0871C77.91 23.0871 77.3192 23.0353 76.6767 22.9316C76.0339 22.828 75.5364 22.6932 75.184 22.5274V29.2444ZM75.184 19.1688C75.184 19.3347 75.2045 19.5316 75.2462 19.7597C75.2876 19.967 75.4328 20.1225 75.6816 20.2261C75.9304 20.3505 76.3035 20.4542 76.8011 20.5371C77.3192 20.5993 77.8065 20.6304 78.2627 20.6304C79.4857 20.6304 80.4289 20.4749 81.0926 20.1639C81.7767 19.853 82.2743 19.3036 82.5853 18.5158C82.9167 17.728 83.0828 16.453 83.0828 14.6908C83.0828 13.4469 82.9895 12.4517 82.8029 11.7054C82.6368 10.9383 82.2948 10.3371 81.7767 9.90175C81.2583 9.44564 80.4395 9.2176 79.32 9.2176C78.7603 9.2176 78.1277 9.2798 77.4231 9.40419C76.7389 9.50783 76.2103 9.64261 75.8371 9.80846C75.5674 9.93285 75.3809 10.0987 75.2773 10.306C75.2151 10.4304 75.184 10.731 75.184 11.2078V19.1688Z" fill="#B1BECA"></path><path d="M92.7675 22.0298C92.7675 22.5066 92.5396 22.745 92.0834 22.745H90.6218C90.1864 22.745 89.9688 22.5066 89.9688 22.0298V10.1194C89.9688 9.74626 90.0105 9.42493 90.0931 9.15541C90.1762 8.86517 90.3939 8.57491 90.7462 8.28468C91.1816 7.93225 91.9798 7.60053 93.1407 7.28955C94.3224 6.95783 95.4419 6.79199 96.4992 6.79199C97.2251 6.79199 97.7537 6.83344 98.0852 6.91638C98.2096 6.93713 98.3135 6.99932 98.3962 7.10297C98.4792 7.20661 98.5206 7.331 98.5206 7.47614C98.5206 8.09809 98.4792 8.5853 98.3962 8.93772C98.334 9.22796 98.1372 9.37309 97.8053 9.37309L96.3127 9.31089C95.8151 9.31089 95.2762 9.36274 94.6956 9.46638C94.1358 9.57003 93.7111 9.71516 93.4206 9.90175C93.1305 10.0883 92.9541 10.2438 92.8919 10.3682C92.8092 10.5133 92.7675 10.8139 92.7675 11.27V22.0298Z" fill="#B1BECA"></path><path d="M104.308 22.0295C104.308 22.5063 104.08 22.7447 103.623 22.7447H102.162C101.726 22.7447 101.509 22.5063 101.509 22.0295V7.849C101.509 7.35144 101.726 7.10266 102.162 7.10266H103.654C104.09 7.10266 104.308 7.34109 104.308 7.8179V22.0295ZM104.556 2.12705C104.556 2.749 104.411 3.2051 104.121 3.49535C103.852 3.76487 103.437 3.89961 102.877 3.89961C101.758 3.89961 101.198 3.31913 101.198 2.15815C101.198 0.955711 101.758 0.354492 102.877 0.354492C103.997 0.354492 104.556 0.945346 104.556 2.12705Z" fill="#B1BECA"></path><path d="M114.196 16.4321L111.802 15.7479C109.397 15.0845 108.195 13.6333 108.195 11.3943C108.195 9.92234 108.672 8.78208 109.625 7.97355C110.579 7.16501 112.051 6.76074 114.041 6.76074C114.705 6.76074 115.44 6.80219 116.249 6.88513C117.078 6.96807 117.752 7.08207 118.27 7.22721C118.643 7.33085 118.83 7.55893 118.83 7.91135C118.83 8.07719 118.716 8.52295 118.488 9.24855C118.467 9.29 118.415 9.37294 118.332 9.49733C118.27 9.60097 118.156 9.65282 117.99 9.65282L117.337 9.55952C116.28 9.29 115.16 9.15525 113.979 9.15525C113.357 9.15525 112.797 9.2278 112.299 9.37294C111.823 9.49733 111.481 9.72536 111.273 10.0571C111.066 10.3888 110.962 10.7931 110.962 11.2699C110.962 11.8504 111.18 12.2961 111.615 12.6071C112.051 12.8973 112.642 13.1565 113.388 13.3845L115.534 14.0376C116.902 14.4522 117.887 14.9809 118.488 15.6235C119.089 16.2662 119.39 17.1992 119.39 18.4223C119.39 19.5004 119.152 20.3815 118.674 21.0656C118.198 21.7291 117.524 22.237 116.653 22.5894C115.782 22.9211 114.694 23.087 113.388 23.087C112.559 23.087 111.646 23.0248 110.651 22.9004C109.656 22.776 108.879 22.5894 108.319 22.3406C108.008 22.2162 107.853 21.9985 107.853 21.6876C107.853 21.5217 107.977 21.1071 108.226 20.4437C108.35 20.112 108.558 19.9461 108.848 19.9461C108.952 19.9461 109.19 20.0083 109.563 20.1327C110.682 20.4851 111.989 20.6614 113.481 20.6614C114.622 20.6614 115.44 20.4851 115.938 20.1327C116.435 19.7595 116.684 19.1998 116.684 18.4534C116.684 17.9766 116.519 17.6034 116.187 17.3339C115.876 17.0437 115.212 16.7431 114.196 16.4321Z" fill="#B1BECA"></path><path d="M124.816 15.7478C124.836 17.4478 125.168 18.6917 125.811 19.4795C126.474 20.2673 127.708 20.6612 129.511 20.6612C130.921 20.6612 132.123 20.5161 133.119 20.2258L133.927 20.0703C134.176 20.0703 134.352 20.1947 134.456 20.4435C134.663 20.9618 134.767 21.3661 134.767 21.6563C134.767 21.9258 134.601 22.1331 134.269 22.2783C132.984 22.8173 131.294 23.0868 129.2 23.0868C126.567 23.0868 124.701 22.4545 123.603 21.1899C122.504 19.9045 121.955 17.8313 121.955 14.9703C121.955 13.5191 122.099 12.2752 122.39 11.2386C122.701 10.1813 123.157 9.32094 123.758 8.65754C124.359 7.99414 125.106 7.50693 125.997 7.19596C126.888 6.88498 127.925 6.72949 129.107 6.72949C130.413 6.72949 131.522 6.93682 132.434 7.35144C133.347 7.76606 134.02 8.4917 134.456 9.52827C134.891 10.5441 135.109 12.2338 135.109 14.5972C135.109 15.0947 135.026 15.4161 134.86 15.5612C134.798 15.6027 134.694 15.6441 134.549 15.6856C134.425 15.727 134.311 15.7478 134.207 15.7478H124.816ZM124.847 13.5088H132.403L132.434 12.7935C132.434 11.5289 132.186 10.5959 131.688 9.99474C131.191 9.39353 130.278 9.09291 128.952 9.09291C127.666 9.09291 126.671 9.42463 125.966 10.088C125.261 10.7307 124.888 11.8709 124.847 13.5088Z" fill="#B1BECA"></path><path d="M159.061 22.6834H149.514C148.457 22.6834 147.68 22.4657 147.182 22.0303C146.705 21.5742 146.467 20.7864 146.467 19.6669V3.80717C146.467 2.72912 146.695 1.95169 147.151 1.47486C147.628 0.977296 148.405 0.728516 149.483 0.728516H158.595C159.051 0.728516 159.279 0.946199 159.279 1.38156V2.71876C159.279 3.13339 159.051 3.34071 158.595 3.34071H150.385C149.701 3.34071 149.359 3.72423 149.359 4.49132V9.96449H157.693C158.17 9.96449 158.408 10.1925 158.408 10.6486V11.9547C158.408 12.3694 158.17 12.5767 157.693 12.5767H149.359V18.8273C149.359 19.2627 149.452 19.584 149.639 19.7913C149.825 19.9779 150.136 20.0712 150.572 20.0712H159.061C159.538 20.0712 159.777 20.2993 159.777 20.7553V22.0614C159.777 22.4761 159.538 22.6834 159.061 22.6834Z" fill="#B1BECA"></path><path d="M168.222 16.4321L165.828 15.7479C163.423 15.0845 162.221 13.6333 162.221 11.3943C162.221 9.92234 162.697 8.78208 163.651 7.97355C164.605 7.16501 166.077 6.76074 168.067 6.76074C168.73 6.76074 169.466 6.80219 170.275 6.88513C171.104 6.96807 171.778 7.08207 172.296 7.22721C172.669 7.33085 172.856 7.55893 172.856 7.91135C172.856 8.07719 172.742 8.52295 172.514 9.24855C172.493 9.29 172.441 9.37294 172.358 9.49733C172.296 9.60097 172.182 9.65282 172.016 9.65282L171.363 9.55952C170.306 9.29 169.186 9.15525 168.005 9.15525C167.383 9.15525 166.823 9.2278 166.325 9.37294C165.849 9.49733 165.507 9.72536 165.299 10.0571C165.092 10.3888 164.988 10.7931 164.988 11.2699C164.988 11.8504 165.206 12.2961 165.641 12.6071C166.077 12.8973 166.667 13.1565 167.414 13.3845L169.56 14.0376C170.928 14.4522 171.913 14.9809 172.514 15.6235C173.115 16.2662 173.416 17.1992 173.416 18.4223C173.416 19.5004 173.177 20.3815 172.7 21.0656C172.224 21.7291 171.55 22.237 170.679 22.5894C169.808 22.9211 168.72 23.087 167.414 23.087C166.584 23.087 165.672 23.0248 164.677 22.9004C163.682 22.776 162.905 22.5894 162.345 22.3406C162.034 22.2162 161.878 21.9985 161.878 21.6876C161.878 21.5217 162.003 21.1071 162.252 20.4437C162.376 20.112 162.583 19.9461 162.874 19.9461C162.977 19.9461 163.216 20.0083 163.589 20.1327C164.708 20.4851 166.014 20.6614 167.507 20.6614C168.647 20.6614 169.466 20.4851 169.964 20.1327C170.461 19.7595 170.71 19.1998 170.71 18.4534C170.71 17.9766 170.544 17.6034 170.213 17.3339C169.902 17.0437 169.238 16.7431 168.222 16.4321Z" fill="#B1BECA"></path><path d="M180.521 16.7429C180.521 18.0282 180.697 18.93 181.049 19.4483C181.464 20.091 182.552 20.4539 184.315 20.5368C184.708 20.5575 184.906 20.7752 184.906 21.1898L184.843 22.3715C184.781 22.7447 184.532 22.9313 184.097 22.9313C182.667 22.9313 181.536 22.8173 180.707 22.5892C179.899 22.3612 179.246 21.9465 178.748 21.3453C178.458 20.9929 178.209 20.5057 178.002 19.8837C177.815 19.241 177.722 18.1526 177.722 16.6185V9.59042H175.825C175.659 9.59042 175.514 9.52823 175.39 9.40384C175.265 9.27944 175.203 9.12396 175.203 8.93737V7.84896C175.203 7.66237 175.265 7.50688 175.39 7.38249C175.514 7.23736 175.68 7.16481 175.887 7.16481H177.784L177.878 3.71298C177.919 3.19469 178.126 2.93555 178.499 2.93555H179.93C180.324 2.93555 180.521 3.19469 180.521 3.71298V7.16481H183.786C184.014 7.16481 184.19 7.22701 184.315 7.3514C184.46 7.45504 184.532 7.61053 184.532 7.81786V8.90627C184.532 9.13431 184.46 9.31054 184.315 9.43493C184.19 9.53858 184.024 9.59042 183.817 9.59042H180.521V16.7429Z" fill="#B1BECA"></path><path d="M200.573 14.7838C200.573 16.4008 200.449 17.6862 200.2 18.6399C199.972 19.5728 199.64 20.3606 199.205 21.0033C198.77 21.6252 198.106 22.1331 197.215 22.5271C196.324 22.9002 195.09 23.0868 193.514 23.0868C192.623 23.0868 191.762 23.0039 190.933 22.838C190.104 22.6929 189.368 22.3716 188.725 21.874C188.103 21.3557 187.595 20.5679 187.201 19.5106C186.828 18.4325 186.642 16.888 186.642 14.8771C186.642 12.1197 187.17 10.0777 188.228 8.75083C189.285 7.40328 191.12 6.72949 193.732 6.72949C195.619 6.72949 197.018 6.96792 197.93 7.44474C198.842 7.92155 199.506 8.74048 199.92 9.90144C200.356 11.0417 200.573 12.6691 200.573 14.7838ZM197.775 14.9392C197.775 13.7368 197.692 12.721 197.526 11.8917C197.381 11.0417 197.049 10.3783 196.531 9.90144C196.033 9.42463 195.08 9.1862 193.67 9.1862C192.032 9.1862 190.923 9.64231 190.342 10.5545C189.762 11.446 189.471 12.8661 189.471 14.8149C189.471 16.349 189.586 17.5307 189.814 18.36C190.062 19.1893 190.456 19.7801 190.995 20.1325C191.555 20.485 192.415 20.6612 193.576 20.6612C194.924 20.6612 195.857 20.4435 196.375 20.0082C196.914 19.5521 197.277 18.899 197.464 18.049C197.671 17.199 197.775 16.1624 197.775 14.9392Z" fill="#B1BECA"></path><path d="M207.44 22.0298C207.44 22.5066 207.212 22.745 206.756 22.745H205.294C204.859 22.745 204.641 22.5066 204.641 22.0298V9.93285C204.641 9.02066 204.983 8.40907 205.667 8.09809C206.559 7.68347 207.699 7.3621 209.088 7.13407C210.477 6.90603 211.752 6.79199 212.913 6.79199C214.26 6.79199 215.266 6.94748 215.93 7.25846C216.593 7.56943 217.049 8.04625 217.298 8.68894C217.505 9.2487 217.609 10.2646 217.609 11.7365V22.0298C217.609 22.5066 217.391 22.745 216.956 22.745H215.463C215.028 22.745 214.81 22.5066 214.81 22.0298V12.2963C214.81 11.3841 214.748 10.731 214.623 10.3371C214.499 9.96394 214.24 9.69442 213.846 9.52858C213.452 9.34199 212.851 9.2487 212.042 9.2487C210.487 9.2487 209.212 9.45603 208.217 9.87065C207.927 10.0158 207.73 10.1609 207.626 10.306C207.502 10.4512 207.44 10.7414 207.44 11.1767V22.0298Z" fill="#B1BECA"></path><path d="M225.388 22.0295C225.388 22.5063 225.16 22.7447 224.703 22.7447H223.242C222.806 22.7447 222.589 22.5063 222.589 22.0295V7.849C222.589 7.35144 222.806 7.10266 223.242 7.10266H224.735C225.17 7.10266 225.388 7.34109 225.388 7.8179V22.0295ZM225.636 2.12705C225.636 2.749 225.491 3.2051 225.201 3.49535C224.932 3.76487 224.517 3.89961 223.957 3.89961C222.838 3.89961 222.278 3.31913 222.278 2.15815C222.278 0.955711 222.838 0.354492 223.957 0.354492C225.077 0.354492 225.636 0.945346 225.636 2.12705Z" fill="#B1BECA"></path><path d="M241.963 20.1014C241.963 20.6819 241.859 21.1173 241.652 21.4075C241.403 21.7393 241.102 21.9777 240.75 22.1228C240.169 22.3923 239.319 22.6203 238.2 22.8069C237.08 22.9935 235.982 23.0868 234.903 23.0868C233.038 23.0868 231.638 22.6929 230.705 21.9051C229.793 21.1173 229.337 19.8527 229.337 18.1112C229.337 17.199 229.482 16.4423 229.772 15.8411C230.063 15.2399 230.508 14.7527 231.109 14.3795C232.105 13.7783 233.722 13.4777 235.961 13.4777C237.391 13.4777 238.469 13.5191 239.195 13.6021V12.3271C239.195 11.3941 239.122 10.7514 238.977 10.399C238.811 9.92219 238.438 9.61121 237.858 9.46608C237.298 9.30024 236.635 9.2173 235.867 9.2173C234.81 9.2173 233.68 9.34169 232.478 9.59047C231.794 9.7356 231.41 9.80815 231.327 9.80815C231.078 9.80815 230.902 9.66302 230.798 9.37279C230.654 8.89597 230.581 8.48131 230.581 8.12888C230.581 7.79716 230.767 7.57948 231.141 7.47583C231.908 7.2478 232.758 7.07157 233.691 6.94717C234.644 6.80204 235.515 6.72949 236.303 6.72949C237.547 6.72949 238.532 6.82278 239.257 7.00937C239.983 7.17521 240.543 7.46548 240.936 7.8801C241.227 8.17033 241.465 8.59535 241.652 9.1551C241.859 9.69411 241.963 10.627 241.963 11.9539V20.1014ZM239.195 15.7789C238.283 15.6959 237.309 15.6545 236.272 15.6545C234.551 15.6545 233.39 15.8514 232.789 16.2453C232.291 16.5563 232.042 17.1575 232.042 18.049C232.042 18.6917 232.146 19.2204 232.353 19.635C232.582 20.0289 232.924 20.3295 233.38 20.5368C233.857 20.7234 234.489 20.8167 235.277 20.8167C236.645 20.8167 237.713 20.6612 238.48 20.3502C238.77 20.2258 238.967 20.0496 239.07 19.8216C239.153 19.5728 239.195 19.2204 239.195 18.7642V15.7789Z" fill="#B1BECA"></path><path d="M257.229 21.9992C257.229 22.2273 257.156 22.4139 257.011 22.559C256.886 22.6834 256.721 22.7456 256.513 22.7456H254.989C254.554 22.7456 254.336 22.4968 254.336 21.9992V3.83827C254.336 2.78095 254.565 2.00352 255.021 1.50595C255.477 0.987661 256.244 0.728516 257.322 0.728516H259.747C262.443 0.728516 264.371 0.956563 265.532 1.41266C267.626 2.24193 268.672 4.08705 268.672 6.94802C268.672 8.44071 268.33 9.70535 267.646 10.7419C266.962 11.7578 265.957 12.4834 264.63 12.9188L269.357 21.284C269.564 21.6987 269.678 21.9474 269.699 22.0303C269.719 22.0925 269.73 22.1547 269.73 22.2169C269.73 22.3206 269.688 22.4139 269.605 22.4968C269.543 22.5797 269.471 22.6315 269.388 22.6523C269.263 22.673 268.963 22.6937 268.486 22.7145C268.03 22.7559 267.688 22.7767 267.46 22.7767C267.066 22.7767 266.755 22.559 266.527 22.1236L261.831 13.3852C261.437 13.4267 260.805 13.4474 259.934 13.4474H257.229V21.9992ZM257.229 11.0218H260.058C261.655 11.0218 262.888 10.856 263.759 10.5242C264.36 10.2962 264.827 9.88155 265.158 9.28034C265.511 8.67913 265.687 7.9535 265.687 7.10351C265.687 6.10839 265.521 5.3413 265.189 4.80229C264.879 4.26328 264.423 3.87972 263.821 3.65169C263.137 3.38218 261.914 3.24742 260.152 3.24742H258.379C257.965 3.24742 257.664 3.34071 257.477 3.5273C257.312 3.71388 257.229 4.00411 257.229 4.39802V11.0218Z" fill="#B1BECA"></path><path d="M289.023 1.38126V13.9136C289.023 15.5721 288.961 16.8575 288.836 17.7697C288.733 18.6819 288.494 19.4593 288.121 20.102C287.561 21.0764 286.67 21.8227 285.446 22.341C284.223 22.8593 282.7 23.1185 280.875 23.1185C280.067 23.1185 279.227 23.0563 278.356 22.9319C277.506 22.8075 276.801 22.6105 276.242 22.341C275.682 22.0715 275.195 21.7502 274.78 21.377C274.366 20.9831 274.013 20.4855 273.723 19.8843C273.516 19.4075 273.35 18.7544 273.225 17.9252C273.101 17.0959 273.039 15.7794 273.039 13.9758V1.38126C273.039 1.19467 273.091 1.02882 273.194 0.883699C273.318 0.738579 273.495 0.666016 273.723 0.666016H275.34C275.734 0.666016 275.931 0.904432 275.931 1.38126V14.8465C275.931 16.816 276.159 18.1532 276.615 18.8581C277.341 19.9983 278.812 20.5685 281.031 20.5685C282.316 20.5685 283.311 20.413 284.016 20.102C284.742 19.791 285.239 19.4075 285.509 18.9514C285.986 18.1636 286.224 16.8264 286.224 14.9398V1.38126C286.224 1.19467 286.276 1.02882 286.379 0.883699C286.504 0.738579 286.68 0.666016 286.908 0.666016H288.432C288.826 0.666016 289.023 0.904432 289.023 1.38126Z" fill="#B1BECA"></path><path d="M297.741 21.9992C297.741 22.2273 297.668 22.4139 297.523 22.559C297.399 22.6834 297.233 22.7456 297.025 22.7456H295.502C295.066 22.7456 294.849 22.4968 294.849 21.9992V3.83827C294.849 2.78095 295.066 2.00352 295.502 1.50595C295.958 0.987661 296.725 0.728516 297.803 0.728516H300.571C303.224 0.728516 305.152 0.966931 306.355 1.44376C308.449 2.31449 309.496 4.20109 309.496 7.10351C309.496 8.63765 309.154 9.91265 308.469 10.9285C307.785 11.9236 306.748 12.6389 305.36 13.0742C304.24 13.406 302.706 13.5718 300.757 13.5718H297.741V21.9992ZM297.741 11.1462H300.944C302.602 11.1462 303.815 10.9907 304.582 10.6797C305.183 10.431 305.65 10.0163 305.982 9.43583C306.334 8.83462 306.51 8.10899 306.51 7.259C306.51 5.39315 305.878 4.20108 304.613 3.68278C303.908 3.39254 302.633 3.24742 300.788 3.24742H298.767C298.497 3.24742 298.259 3.30961 298.052 3.434C297.844 3.55839 297.741 3.87972 297.741 4.39802V11.1462Z" fill="#B1BECA"></path><path d="M336.851 20.3199C336.851 20.8175 336.768 21.1803 336.602 21.4084C336.478 21.5949 336.218 21.7919 335.825 21.9992C335.182 22.2894 334.208 22.5382 332.901 22.7456C331.595 22.9736 330.196 23.0876 328.703 23.0876C327.252 23.0876 325.987 22.901 324.909 22.5279C323.831 22.1547 322.919 21.5535 322.173 20.7242C321.447 19.8742 320.898 18.734 320.525 17.3035C320.151 15.8523 319.965 14.1004 319.965 12.048C319.965 9.99556 320.131 8.23335 320.462 6.76141C320.794 5.28947 321.333 4.08702 322.079 3.1541C322.826 2.20044 323.821 1.49556 325.065 1.03946C326.309 0.562635 327.822 0.324219 329.605 0.324219C330.538 0.324219 331.512 0.365682 332.528 0.448609C333.544 0.531537 334.373 0.655927 335.016 0.82178C335.514 0.966903 335.762 1.20532 335.762 1.53702C335.762 1.70288 335.731 1.94129 335.669 2.25227C335.607 2.56324 335.534 2.83276 335.451 3.0608C335.389 3.28885 335.223 3.40288 334.954 3.40288C334.767 3.40288 334.415 3.35105 333.897 3.24739C332.383 2.97788 330.89 2.84312 329.418 2.84312C327.2 2.84312 325.562 3.49617 324.505 4.80226C323.468 6.08762 322.95 8.34739 322.95 11.5815C322.95 13.7584 323.126 15.4687 323.479 16.7126C323.831 17.9565 324.453 18.9206 325.345 19.6047C326.236 20.2681 327.47 20.5998 329.045 20.5998C330.745 20.5998 332.238 20.4236 333.523 20.0712C334 19.9468 334.239 19.6151 334.239 19.076V13.6029H329.667C329.294 13.6029 329.108 13.4163 329.108 13.0431V11.5815C329.108 11.1876 329.304 10.9907 329.698 10.9907H336.167C336.623 10.9907 336.851 11.2395 336.851 11.737V20.3199Z" fill="#B1BECA"></path><path d="M344.16 22.0298C344.16 22.5066 343.932 22.745 343.475 22.745H342.014C341.579 22.745 341.361 22.5066 341.361 22.0298V10.1194C341.361 9.74626 341.402 9.42493 341.485 9.15541C341.568 8.86517 341.786 8.57491 342.138 8.28468C342.574 7.93225 343.372 7.60053 344.533 7.28955C345.715 6.95783 346.834 6.79199 347.891 6.79199C348.617 6.79199 349.145 6.83344 349.477 6.91638C349.602 6.93713 349.705 6.99932 349.788 7.10297C349.871 7.20661 349.913 7.331 349.913 7.47614C349.913 8.09809 349.871 8.5853 349.788 8.93772C349.726 9.22796 349.529 9.37309 349.197 9.37309L347.705 9.31089C347.207 9.31089 346.668 9.36274 346.088 9.46638C345.528 9.57003 345.103 9.71516 344.813 9.90175C344.523 10.0883 344.346 10.2438 344.284 10.3682C344.201 10.5133 344.16 10.8139 344.16 11.27V22.0298Z" fill="#B1BECA"></path><path d="M363.893 20.1014C363.893 20.6819 363.789 21.1173 363.582 21.4075C363.333 21.7393 363.033 21.9777 362.68 22.1228C362.1 22.3923 361.25 22.6203 360.13 22.8069C359.011 22.9935 357.912 23.0868 356.834 23.0868C354.968 23.0868 353.569 22.6929 352.636 21.9051C351.723 21.1173 351.268 19.8527 351.268 18.1112C351.268 17.199 351.412 16.4423 351.703 15.8411C351.993 15.2399 352.439 14.7527 353.04 14.3795C354.035 13.7783 355.652 13.4777 357.891 13.4777C359.322 13.4777 360.4 13.5191 361.126 13.6021V12.3271C361.126 11.3941 361.053 10.7514 360.908 10.399C360.742 9.92219 360.369 9.61121 359.788 9.46608C359.229 9.30024 358.565 9.2173 357.798 9.2173C356.741 9.2173 355.611 9.34169 354.408 9.59047C353.724 9.7356 353.341 9.80815 353.258 9.80815C353.009 9.80815 352.833 9.66302 352.729 9.37279C352.584 8.89597 352.511 8.48131 352.511 8.12888C352.511 7.79716 352.698 7.57948 353.071 7.47583C353.838 7.2478 354.688 7.07157 355.621 6.94717C356.575 6.80204 357.445 6.72949 358.233 6.72949C359.477 6.72949 360.462 6.82278 361.188 7.00937C361.913 7.17521 362.473 7.46548 362.867 7.8801C363.157 8.17033 363.396 8.59535 363.582 9.1551C363.789 9.69411 363.893 10.627 363.893 11.9539V20.1014ZM361.126 15.7789C360.213 15.6959 359.239 15.6545 358.202 15.6545C356.481 15.6545 355.321 15.8514 354.719 16.2453C354.222 16.5563 353.973 17.1575 353.973 18.049C353.973 18.6917 354.077 19.2204 354.284 19.635C354.512 20.0289 354.854 20.3295 355.31 20.5368C355.787 20.7234 356.419 20.8167 357.207 20.8167C358.576 20.8167 359.643 20.6612 360.41 20.3502C360.7 20.2258 360.897 20.0496 361.001 19.8216C361.084 19.5728 361.126 19.2204 361.126 18.7642V15.7789Z" fill="#B1BECA"></path><path d="M371.612 22.0298C371.612 22.5066 371.385 22.745 370.928 22.745H369.468C369.033 22.745 368.813 22.5066 368.813 22.0298V9.93285C368.813 9.02066 369.157 8.40907 369.842 8.09809C370.731 7.68347 371.872 7.3621 373.262 7.13407C374.649 6.90603 375.926 6.79199 377.085 6.79199C378.435 6.79199 379.438 6.94748 380.104 7.25846C380.766 7.56943 381.223 8.04625 381.472 8.68894C381.677 9.2487 381.783 10.2646 381.783 11.7365V22.0298C381.783 22.5066 381.563 22.745 381.128 22.745H379.635C379.2 22.745 378.984 22.5066 378.984 22.0298V12.2963C378.984 11.3841 378.922 10.731 378.798 10.3371C378.673 9.96394 378.413 9.69442 378.018 9.52858C377.627 9.34199 377.023 9.2487 376.215 9.2487C374.66 9.2487 373.387 9.45603 372.392 9.87065C372.099 10.0158 371.905 10.1609 371.799 10.306C371.674 10.4512 371.612 10.7414 371.612 11.1767V22.0298Z" fill="#B1BECA"></path><path d="M390.336 16.7429C390.336 18.0282 390.516 18.93 390.867 19.4483C391.28 20.091 392.371 20.4539 394.13 20.5368C394.525 20.5575 394.723 20.7752 394.723 21.1898L394.661 22.3715C394.599 22.7447 394.35 22.9313 393.914 22.9313C392.484 22.9313 391.353 22.8173 390.523 22.5892C389.714 22.3612 389.063 21.9465 388.566 21.3453C388.277 20.9929 388.028 20.5057 387.819 19.8837C387.633 19.241 387.538 18.1526 387.538 16.6185V9.59042H385.642C385.478 9.59042 385.331 9.52823 385.207 9.40384C385.083 9.27944 385.021 9.12396 385.021 8.93737V7.84896C385.021 7.66237 385.083 7.50688 385.207 7.38249C385.331 7.23736 385.496 7.16481 385.705 7.16481H387.6L387.695 3.71298C387.735 3.19469 387.944 2.93555 388.317 2.93555H389.747C390.142 2.93555 390.336 3.19469 390.336 3.71298V7.16481H393.603C393.83 7.16481 394.006 7.22701 394.13 7.3514C394.277 7.45504 394.35 7.61053 394.35 7.81786V8.90627C394.35 9.13431 394.277 9.31054 394.13 9.43493C394.006 9.53858 393.841 9.59042 393.633 9.59042H390.336V16.7429Z" fill="#B1BECA"></path></g><defs><clipPath id="clip0_83_11"><rect width="394.756" height="30" fill="white"></rect></clipPath></defs></svg> 