<?xml version="1.0" encoding="UTF-8"?> <svg xmlns="http://www.w3.org/2000/svg" width="262" height="100" viewBox="0 0 262 100" fill="none"> <rect width="262" height="100" fill="white"></rect> <path d="M4 48.6979V45.461C4 37.6597 8.48942 33.6038 16.0674 33.6038C17.5122 33.5801 18.9472 33.8371 20.2887 34.3596C21.6301 34.8821 22.8509 35.6596 23.8798 36.6467C23.9543 36.71 24.0143 36.7879 24.0559 36.8753C24.0974 36.9627 24.1195 37.0576 24.1209 37.1539C24.1026 37.3448 24.0174 37.5238 23.8798 37.661L22.5166 39.2205C22.4562 39.3009 22.378 39.3672 22.2878 39.4143C22.1976 39.4615 22.0977 39.4884 21.9954 39.4931C21.8216 39.4954 21.6521 39.4404 21.5145 39.3371C19.9504 38.0008 17.9389 37.2655 15.8573 37.2692C11.287 37.2692 8.92178 39.5704 8.92178 44.7586V49.3217C8.92178 54.3526 11.287 56.8111 15.2956 56.8111C18.7438 56.8111 20.868 55.4849 20.868 51.9741V49.6336H16.458C16.3556 49.6433 16.2522 49.6309 16.1553 49.5972C16.0584 49.5634 15.9704 49.5092 15.8976 49.4383C15.8248 49.3675 15.7691 49.2819 15.7344 49.1877C15.6997 49.0934 15.6869 48.9928 15.697 48.8932V46.7479C15.6869 46.6482 15.6997 46.5476 15.7344 46.4534C15.7691 46.3591 15.8248 46.2735 15.8976 46.2027C15.9704 46.1319 16.0584 46.0776 16.1553 46.0439C16.2522 46.0101 16.3556 45.9977 16.458 46.0075H24.8375C24.9399 45.9977 25.0433 46.0101 25.1402 46.0439C25.2371 46.0776 25.3251 46.1319 25.3978 46.2027C25.4706 46.2735 25.5264 46.3591 25.5611 46.4534C25.5958 46.5476 25.6085 46.6482 25.5985 46.7479V51.4276C25.5985 57.2776 21.3892 60.4699 15.2552 60.4699C8.16882 60.4765 4 56.4599 4 48.6979Z" fill="#B1BECA"></path> <path d="M29.2959 59.3829V42.2994C29.2805 42.1467 29.3148 41.9931 29.3938 41.8603C29.4728 41.7275 29.5926 41.6221 29.7364 41.559C32.2147 40.4056 34.9268 39.8061 37.674 39.8043C38.383 39.7923 39.0921 39.8185 39.7982 39.8829C39.9655 39.9097 40.1162 39.9969 40.2204 40.1271C40.3245 40.2573 40.3743 40.421 40.3598 40.5853V42.6913C40.3598 43.0844 40.1187 43.2377 39.6783 43.2377H38.1966C36.8217 43.1921 35.4497 43.3902 34.1477 43.8222V59.3842C34.1555 59.468 34.1443 59.5525 34.1149 59.6317C34.0855 59.7108 34.0385 59.7827 33.9773 59.8422C33.9161 59.9017 33.8422 59.9474 33.7609 59.9761C33.6795 60.0047 33.5927 60.0156 33.5065 60.0079H29.9384C29.852 60.0158 29.7649 60.0051 29.6833 59.9765C29.6016 59.9478 29.5275 59.902 29.4661 59.8423C29.4048 59.7826 29.3577 59.7105 29.3283 59.6311C29.2988 59.5517 29.2878 59.4669 29.2959 59.3829Z" fill="#B1BECA"></path> <path d="M43.086 52.0519V40.7412C43.0781 40.6574 43.0893 40.5729 43.1187 40.4937C43.1482 40.4146 43.1951 40.3427 43.2563 40.2831C43.3175 40.2236 43.3914 40.1779 43.4727 40.1493C43.5541 40.1206 43.6409 40.1097 43.7271 40.1174H47.2952C47.3814 40.1097 47.4682 40.1206 47.5496 40.1493C47.631 40.1779 47.7048 40.2236 47.766 40.2831C47.8272 40.3427 47.8742 40.4146 47.9036 40.4937C47.933 40.5729 47.9442 40.6574 47.9364 40.7412V52.1306C47.9364 56.0306 49.418 57.0055 52.1456 57.0055C53.5177 57.0319 54.8888 56.9142 56.235 56.6544V40.7399C56.2271 40.656 56.2383 40.5715 56.2678 40.4924C56.2972 40.4132 56.3442 40.3414 56.4053 40.2818C56.4665 40.2223 56.5404 40.1766 56.6218 40.1479C56.7031 40.1193 56.79 40.1084 56.8761 40.1161H60.4442C60.5304 40.1084 60.6172 40.1193 60.6986 40.1479C60.78 40.1766 60.8538 40.2223 60.915 40.2818C60.9762 40.3414 61.0232 40.4132 61.0527 40.4924C61.0821 40.5715 61.0932 40.656 61.0854 40.7399V58.2911C61.0977 58.4437 61.0571 58.5959 60.9699 58.7233C60.8827 58.8507 60.754 58.9459 60.6045 58.9936C57.7786 59.9421 54.8142 60.4425 51.825 60.4757C45.8526 60.4757 43.086 57.5114 43.086 52.0519Z" fill="#B1BECA"></path> <path d="M83.8571 48.6523V51.344C83.8571 57.3106 80.1287 60.3536 74.3166 60.3536C72.8848 60.3682 71.4611 60.144 70.1073 59.6905V67.3739C70.1152 67.4577 70.104 67.5422 70.0745 67.6213C70.0451 67.7005 69.9981 67.7724 69.937 67.8319C69.8758 67.8914 69.8019 67.9371 69.7205 67.9657C69.6391 67.9944 69.5523 68.0053 69.4661 67.9976H65.8981C65.8119 68.0053 65.7251 67.9944 65.6437 67.9657C65.5623 67.9371 65.4885 67.8914 65.4273 67.8319C65.3661 67.7724 65.3191 67.7005 65.2896 67.6213C65.2602 67.5422 65.249 67.4577 65.2569 67.3739V42.0999C65.2445 41.9473 65.2852 41.7951 65.3724 41.6678C65.4596 41.5404 65.5883 41.4452 65.7378 41.3975C68.3204 40.2994 71.0988 39.7033 73.9165 39.6428C80.4533 39.6467 83.8571 42.8063 83.8571 48.6523ZM79.008 48.8082C79.008 44.713 77.6449 43.0421 74.159 43.0421C72.7838 43.0393 71.417 43.2499 70.11 43.6659V56.4195C71.3765 56.8251 72.7066 57.0096 74.0391 56.9647C77.8483 56.9647 79.0094 55.13 79.0094 51.0754L79.008 48.8082Z" fill="#B1BECA"></path> <path d="M86.7427 51.311V48.8211C86.7427 42.7365 90.5909 39.6556 96.2441 39.6556C101.977 39.6556 105.746 42.7365 105.746 48.8211V51.311C105.746 57.3956 101.897 60.4765 96.2441 60.4765C90.5114 60.4765 86.7427 57.3956 86.7427 51.311ZM100.894 51.155V48.9705C100.894 44.7193 99.5711 43.0025 96.2441 43.0025C92.9171 43.0025 91.5944 44.7966 91.5944 48.9705V51.155C91.5944 55.4062 92.9171 57.123 96.2441 57.123C99.5711 57.123 100.894 55.3289 100.894 51.155Z" fill="#B1BECA"></path> <path d="M110.314 59.7348C110.129 59.7178 109.958 59.6307 109.838 59.4922C109.718 59.3538 109.659 59.175 109.673 58.9944V34.9681C109.663 34.8781 109.672 34.787 109.699 34.7004C109.726 34.6137 109.771 34.5334 109.831 34.4641C109.89 34.3949 109.964 34.3382 110.047 34.2976C110.131 34.2569 110.221 34.2331 110.314 34.2277C113.044 33.7911 115.806 33.5824 118.572 33.6039C124.707 33.6039 128.675 36.3729 128.675 40.3515V41.0146C128.652 42.0213 128.359 43.0046 127.824 43.8668C127.29 44.729 126.532 45.4399 125.628 45.9289C126.874 46.4529 127.942 47.3095 128.708 48.3995C129.474 49.4896 129.908 50.7685 129.958 52.0882V52.8286C129.958 57.5083 126.029 60.4726 119.014 60.4726C116.096 60.5032 113.183 60.2561 110.314 59.7348ZM119.696 44.9133C122.462 44.9133 124.141 43.5478 124.141 41.2859V40.8181C124.141 38.5902 122.177 37.2679 118.97 37.2679C117.376 37.256 115.783 37.3343 114.199 37.5025V44.9133H119.696ZM125.187 52.6753V52.2075C125.187 49.8276 123.302 48.3848 120.297 48.3848H114.203V56.5753C115.987 56.752 117.781 56.8304 119.575 56.8099C123.223 56.8099 125.187 55.405 125.187 52.6753Z" fill="#B1BECA"></path> <path d="M132.843 51.311V48.8211C132.843 42.7365 136.691 39.6556 142.345 39.6556C148.077 39.6556 151.846 42.7365 151.846 48.8211V51.311C151.846 57.3956 147.998 60.4765 142.345 60.4765C136.612 60.4765 132.843 57.3956 132.843 51.311ZM146.994 51.155V48.9705C146.994 44.7193 145.672 43.0025 142.343 43.0025C139.015 43.0025 137.693 44.7966 137.693 48.9705V51.155C137.693 55.4062 139.016 57.123 142.343 57.123C145.67 57.123 146.994 55.3289 146.994 51.155Z" fill="#B1BECA"></path> <path d="M166.517 57.1213V59.1892C166.532 59.3634 166.484 59.5372 166.382 59.6807C166.279 59.8243 166.129 59.9285 165.956 59.9755C164.838 60.3068 163.676 60.4777 162.507 60.4826C157.616 60.4826 155.091 57.9469 155.091 53.0719V36.0592C155.084 35.977 155.095 35.8944 155.122 35.8162C155.148 35.738 155.191 35.6659 155.247 35.6041C155.303 35.5422 155.371 35.4919 155.448 35.4562C155.524 35.4205 155.607 35.4001 155.692 35.3961L158.939 34.6557C159.124 34.606 159.311 34.5671 159.501 34.5391C159.781 34.5391 159.941 34.7736 159.941 35.0855V40.1164H165.755C165.841 40.1088 165.928 40.1197 166.009 40.1483C166.091 40.177 166.164 40.2227 166.226 40.2822C166.287 40.3417 166.334 40.4136 166.363 40.4928C166.393 40.5719 166.404 40.6564 166.396 40.7402V42.968C166.404 43.0519 166.393 43.1364 166.363 43.2156C166.334 43.2947 166.287 43.3666 166.226 43.4261C166.164 43.4856 166.091 43.5313 166.009 43.56C165.928 43.5886 165.841 43.5995 165.755 43.5918H159.941V52.9067C159.941 56.2223 161.019 57.002 163.43 57.002C164.203 57.015 164.973 56.9233 165.72 56.7294C165.851 56.6879 165.986 56.6615 166.124 56.6508C166.357 56.6534 166.517 56.8094 166.517 57.1213Z" fill="#B1BECA"></path> <path d="M169.444 35.0838V34.5766C169.429 34.2329 169.49 33.8901 169.625 33.5719C169.759 33.2537 169.963 32.9677 170.223 32.7339C170.482 32.5001 170.791 32.3241 171.127 32.218C171.463 32.1119 171.819 32.0782 172.17 32.1195C172.519 32.0788 172.873 32.1132 173.207 32.2201C173.541 32.3269 173.847 32.5037 174.103 32.738C174.359 32.9722 174.559 33.2583 174.689 33.576C174.82 33.8937 174.877 34.2352 174.856 34.5766V35.0838C174.877 35.4252 174.82 35.7668 174.689 36.0844C174.559 36.4021 174.359 36.6881 174.103 36.9224C173.847 37.1567 173.541 37.3335 173.207 37.4403C172.873 37.5472 172.519 37.5815 172.17 37.5409C171.819 37.5822 171.463 37.5485 171.127 37.4424C170.791 37.3363 170.482 37.1602 170.223 36.9265C169.963 36.6927 169.759 36.4067 169.625 36.0885C169.49 35.7703 169.429 35.4275 169.444 35.0838ZM169.724 59.3827V40.7398C169.717 40.656 169.728 40.5715 169.757 40.4923C169.787 40.4132 169.834 40.3413 169.895 40.2818C169.956 40.2222 170.03 40.1765 170.111 40.1479C170.193 40.1193 170.279 40.1084 170.366 40.116H173.934C174.02 40.1084 174.107 40.1193 174.188 40.1479C174.269 40.1765 174.343 40.2222 174.404 40.2818C174.466 40.3413 174.513 40.4132 174.542 40.4923C174.571 40.5715 174.583 40.656 174.575 40.7398V59.3827C174.583 59.4665 174.571 59.551 174.542 59.6302C174.513 59.7093 174.466 59.7812 174.404 59.8407C174.343 59.9003 174.269 59.946 174.188 59.9746C174.107 60.0033 174.02 60.0141 173.934 60.0065H170.366C170.279 60.0141 170.193 60.0033 170.111 59.9746C170.03 59.946 169.956 59.9003 169.895 59.8407C169.834 59.7812 169.787 59.7093 169.757 59.6302C169.728 59.551 169.717 59.4665 169.724 59.3827Z" fill="#B1BECA"></path> <path d="M178.183 50.8419V49.2038C178.183 42.7681 182.072 39.6478 188.006 39.6478C190.019 39.6541 191.97 40.3281 193.537 41.5585C193.629 41.6205 193.706 41.7018 193.761 41.7964C193.817 41.891 193.85 41.9964 193.858 42.1049C193.841 42.3079 193.757 42.4999 193.617 42.6514L192.455 44.0549C192.254 44.2882 192.094 44.4062 191.893 44.4062C191.729 44.3845 191.575 44.3166 191.451 44.2109C190.423 43.49 189.191 43.0952 187.923 43.08C184.075 43.08 183.033 45.3078 183.033 49.4764V50.6467C183.033 54.7812 184.235 57.0431 187.882 57.0431C189.364 57.016 190.803 56.5538 192.01 55.7169C192.116 55.6437 192.241 55.6031 192.371 55.6003C192.531 55.6003 192.651 55.7169 192.852 55.9934L194.014 57.5529C194.135 57.6812 194.206 57.8468 194.215 58.0208C194.21 58.1147 194.181 58.2061 194.133 58.2875C194.084 58.3688 194.016 58.4377 193.935 58.4886C192.156 59.7341 190.032 60.4275 187.841 60.4779C181.632 60.4753 178.183 57.4337 178.183 50.8419Z" fill="#B1BECA"></path> <path d="M212.499 48.2681V58.1361C212.511 58.3436 212.456 58.5497 212.341 58.7248C212.226 58.8999 212.056 59.0351 211.857 59.111C209.398 60.0645 206.767 60.5288 204.121 60.4766C198.95 60.4766 195.982 58.4872 195.982 54.7104V53.8914C195.982 50.3033 198.869 48.4306 204.121 48.4306H207.969V47.8842C207.969 44.6473 206.891 43.1258 203.76 43.1258C202.162 43.1373 200.597 43.5683 199.23 44.3734C199.106 44.4431 198.968 44.4831 198.826 44.49C198.707 44.4869 198.592 44.4571 198.487 44.403C198.383 44.3488 198.293 44.2719 198.225 44.1781L197.103 42.696C196.974 42.5567 196.903 42.3761 196.902 42.1888C196.898 42.0877 196.922 41.9873 196.971 41.8982C197.021 41.809 197.093 41.7343 197.182 41.6817C199.144 40.3755 201.461 39.6691 203.838 39.653C209.572 39.6478 212.499 42.4168 212.499 48.2681ZM199.95 36.8787V35.4372C199.956 35.2504 200.026 35.071 200.15 34.9282C200.274 34.7854 200.444 34.6876 200.632 34.6509L209.252 32.0378C209.613 31.9212 209.894 32.0771 209.894 32.4663V35.0795C209.906 35.2672 209.854 35.4537 209.745 35.6092C209.636 35.7647 209.477 35.8804 209.293 35.9378L200.632 37.4632C200.191 37.5419 199.95 37.3073 199.95 36.8787ZM207.969 56.6539V51.3491H204.121C201.435 51.3491 200.349 52.2848 200.349 53.9229V54.5466C200.349 55.9882 201.427 57.1598 204.121 57.1598C205.426 57.2676 206.74 57.0949 207.969 56.6539Z" fill="#B1BECA"></path> <path d="M216.588 59.3829V42.2994C216.572 42.1467 216.607 41.9931 216.686 41.8603C216.765 41.7275 216.885 41.6221 217.028 41.559C219.507 40.4056 222.219 39.8061 224.966 39.8043C225.675 39.7923 226.384 39.8185 227.09 39.8829C227.257 39.9097 227.408 39.9969 227.512 40.1271C227.616 40.2573 227.666 40.421 227.652 40.5853V42.6913C227.652 43.0844 227.411 43.2377 226.97 43.2377H225.489C224.114 43.1922 222.742 43.3902 221.44 43.8222V59.3842C221.447 59.468 221.436 59.5525 221.407 59.6317C221.377 59.7108 221.33 59.7827 221.269 59.8422C221.208 59.9017 221.134 59.9474 221.053 59.9761C220.971 60.0047 220.885 60.0156 220.798 60.0079H217.23C217.144 60.0158 217.057 60.0051 216.975 59.9765C216.894 59.9478 216.819 59.902 216.758 59.8423C216.697 59.7826 216.65 59.7105 216.62 59.6311C216.591 59.5517 216.58 59.4669 216.588 59.3829Z" fill="#B1BECA"></path> <path d="M230.258 35.0838V34.5766C230.243 34.2329 230.304 33.8901 230.439 33.5719C230.573 33.2537 230.777 32.9677 231.036 32.7339C231.296 32.5001 231.604 32.3241 231.941 32.218C232.277 32.1119 232.633 32.0782 232.984 32.1195C233.333 32.0788 233.687 32.1132 234.021 32.2201C234.355 32.3269 234.661 32.5037 234.917 32.738C235.173 32.9722 235.373 33.2583 235.503 33.576C235.633 33.8937 235.69 34.2352 235.67 34.5766V35.0838C235.69 35.4252 235.633 35.7668 235.503 36.0844C235.373 36.4021 235.173 36.6881 234.917 36.9224C234.661 37.1567 234.355 37.3335 234.021 37.4403C233.687 37.5472 233.333 37.5815 232.984 37.5409C232.633 37.5822 232.277 37.5485 231.941 37.4424C231.604 37.3363 231.296 37.1602 231.036 36.9265C230.777 36.6927 230.573 36.4067 230.439 36.0885C230.304 35.7703 230.243 35.4275 230.258 35.0838ZM230.538 59.3827V40.7398C230.53 40.656 230.541 40.5715 230.571 40.4923C230.6 40.4132 230.647 40.3413 230.709 40.2818C230.77 40.2222 230.844 40.1765 230.925 40.1479C231.006 40.1193 231.093 40.1084 231.179 40.116H234.747C234.834 40.1084 234.92 40.1193 235.002 40.1479C235.083 40.1765 235.157 40.2222 235.218 40.2818C235.279 40.3413 235.326 40.4132 235.356 40.4923C235.385 40.5715 235.396 40.656 235.389 40.7398V59.3827C235.396 59.4665 235.385 59.551 235.356 59.6302C235.326 59.7093 235.279 59.7812 235.218 59.8407C235.157 59.9003 235.083 59.946 235.002 59.9746C234.92 60.0033 234.834 60.0141 234.747 60.0065H231.179C231.093 60.0141 231.006 60.0033 230.925 59.9746C230.844 59.946 230.77 59.9003 230.709 59.8407C230.647 59.7812 230.6 59.7093 230.571 59.6302C230.541 59.551 230.53 59.4665 230.538 59.3827Z" fill="#B1BECA"></path> <path d="M238.997 51.311V48.8211C238.997 42.7365 242.845 39.6556 248.499 39.6556C254.231 39.6556 258 42.7365 258 48.8211V51.311C258 57.3956 254.152 60.4765 248.499 60.4765C242.766 60.4765 238.997 57.3956 238.997 51.311ZM253.148 51.155V48.9705C253.148 44.7193 251.826 43.0025 248.499 43.0025C245.172 43.0025 243.847 44.7966 243.847 48.9705V51.155C243.847 55.4062 245.17 57.123 248.499 57.123C251.827 57.123 253.148 55.3289 253.148 51.155Z" fill="#B1BECA"></path> </svg> 