<svg width="42" height="42" viewBox="0 0 42 42" fill="none" xmlns="http://www.w3.org/2000/svg">
<rect width="42" height="42" rx="21" fill="#FAFAFA"/>
<path d="M29.564 23.8001C28.9573 25.673 27.7533 27.2953 26.1363 28.4184C24.5194 29.5415 22.5788 30.1034 20.6119 30.0181C18.6451 29.9327 16.7605 29.2048 15.2469 27.9459C13.7333 26.687 12.6743 24.9665 12.232 23.0481L13.934 22.7121L10.694 19.3601L8.99805 23.6941L10.792 23.3421C11.2927 25.5941 12.5211 27.6185 14.2874 29.1025C16.0537 30.5865 18.2596 31.4475 20.5642 31.5524C22.8688 31.6574 25.1438 31.0004 27.0377 29.683C28.9315 28.3657 30.3388 26.4612 31.042 24.2641L29.564 23.8001ZM31.236 18.7201C30.7351 16.4682 29.5065 14.4439 27.7401 12.9601C25.9736 11.4763 23.7677 10.6155 21.4631 10.5108C19.1585 10.4061 16.8836 11.0633 14.9899 12.3808C13.0962 13.6983 11.6891 15.6029 10.986 17.8001L12.412 18.2641C13.0186 16.3911 14.2225 14.7687 15.8392 13.6455C17.456 12.5222 19.3965 11.9601 21.3634 12.0452C23.3302 12.1303 25.2149 12.858 26.7286 14.1167C28.2423 15.3754 29.3016 17.0957 29.744 19.0141L28.042 19.3521L31.282 22.6961L32.998 18.3681L31.236 18.7201Z" fill="#095140"/>
<path fill-rule="evenodd" clip-rule="evenodd" d="M27.0958 16.9542L26.6078 20.8582C26.4644 22.0056 26.0576 23.1043 25.4192 24.0685C24.7808 25.0327 23.9282 25.8362 22.9278 26.4162L20.9998 27.5342L19.0718 26.4142C18.0717 25.8344 17.2192 25.0312 16.5808 24.0674C15.9424 23.1036 15.5355 22.0053 15.3918 20.8582L14.9038 16.9542L15.5918 16.4302L16.4998 17.6242L16.8798 20.6722C16.9946 21.5901 17.3201 22.469 17.8308 23.2402C18.3415 24.0115 19.0236 24.6542 19.8238 25.1182L20.9998 25.8002L22.1758 25.1182C22.976 24.6542 23.6581 24.0115 24.1689 23.2402C24.6796 22.469 25.005 21.5901 25.1198 20.6722L25.4998 17.6242L26.4078 16.4302L27.0958 16.9542ZM25.4998 17.6242C25.4998 17.6242 23.6258 16.2002 20.9998 16.2002C18.3738 16.2002 16.4998 17.6242 16.4998 17.6242L15.5918 16.4302L15.5938 16.4282L15.5998 16.4242L15.6098 16.4162L15.6398 16.3962C15.7721 16.3007 15.9082 16.2106 16.0478 16.1262C16.3118 15.9622 16.6858 15.7522 17.1538 15.5442C18.0798 15.1282 19.4198 14.7002 20.9998 14.7002C22.5798 14.7002 23.9178 15.1282 24.8458 15.5442C25.3397 15.7673 25.8146 16.0302 26.2658 16.3302L26.3598 16.3962L26.3898 16.4162L26.3998 16.4242L26.4038 16.4282L26.4078 16.4302L25.4998 17.6242Z" fill="#095140"/>
</svg>
