<svg width="80" height="34" viewBox="0 0 80 34" fill="none" xmlns="http://www.w3.org/2000/svg">
<path d="M38.064 1.07779C34.9841 0.171937 33.9031 3.30014 33.9031 3.30014C33.9031 3.30014 32.967 0.12664 29.8509 0.884536C26.8797 1.61224 26.0312 7.76599 33.3173 11.1176C33.4438 11.1759 33.5808 11.2075 33.72 11.2106C33.8592 11.2137 33.9976 11.1883 34.1265 11.1358C41.5575 8.12229 40.9989 1.93533 38.064 1.07779Z" fill="#16136E"/>
<path d="M30.4312 33.2323C30.8811 32.8971 32.4874 30.1675 32.7773 29.6693C33.2363 28.8822 33.7123 28.1051 34.2055 27.3382C35.1537 25.8667 36.1602 24.4415 37.225 23.0626C43.0768 15.5138 51.767 6.83878 61.7736 5.8514C66.8886 5.33809 72.7163 6.38586 76.4333 10.2055C82.3244 16.2596 80.8146 27.2688 72.6801 30.6174C68.6339 32.2842 63.9235 31.641 59.9347 29.8655C55.946 28.0901 52.4977 25.2789 49.1159 22.504C50.378 23.5367 52.4554 24.1858 53.9471 24.7958C55.7172 25.5377 57.5615 26.0883 59.4486 26.4384C62.8757 27.0423 67.5378 27.0423 70.0169 24.1073C73.136 20.4356 69.5458 16.1962 65.7895 15.2904C63.3739 14.7046 60.445 15.5682 58.1593 16.3261C48.4123 19.5479 38.62 27.1027 30.4312 33.2323Z" fill="#16136E"/>
<path d="M49.0666 4.24805C48.6258 4.59831 47.113 7.38229 46.8412 7.88957C46.4084 8.69477 45.9596 9.4879 45.4946 10.2689C44.5968 11.7706 43.6376 13.2301 42.617 14.6472C37.0309 22.4013 28.6427 31.3602 18.6783 32.7069C13.5844 33.3983 7.72356 32.5499 3.88275 28.8631C-2.21363 23.0143 -1.08132 11.9538 6.92943 8.33041C10.9152 6.51871 15.6377 7.00787 19.6959 8.63237C23.7541 10.2569 27.293 12.9714 30.7533 15.6316C29.458 14.6382 27.3594 14.0645 25.8346 13.5179C24.0406 12.8375 22.1791 12.3506 20.2817 12.0656C16.8364 11.5885 12.1743 11.7455 9.79192 14.7589C6.79959 18.5363 10.5317 22.6489 14.3031 23.4249C16.7458 23.9292 19.6355 22.9629 21.8941 22.1296C31.5656 18.5424 41.0921 10.6554 49.0666 4.24805Z" fill="#16136E"/>
</svg>
