<?xml version="1.0" encoding="UTF-8"?> <svg xmlns="http://www.w3.org/2000/svg" width="65" height="38" viewBox="0 0 65 38" fill="none"> <path fill-rule="evenodd" clip-rule="evenodd" d="M33.9473 9.27224L33.3834 7.99107C31.7221 4.21637 27.8961 1.56318 23.4284 1.56318C17.4189 1.56318 12.5883 6.35439 12.5883 12.2143C12.5883 12.2608 12.5886 12.3072 12.5892 12.3536L12.6069 13.7093L11.2673 13.9184C5.74981 14.7798 1.56318 19.4787 1.56318 25.1071C1.56318 31.3418 6.70225 36.4368 13.0924 36.4368H51.6804C58.0705 36.4368 63.2095 31.3418 63.2095 25.1071C63.2095 18.8725 58.0705 13.7775 51.6804 13.7775C50.8902 13.7775 50.1201 13.8554 49.3772 14.0033L48.3334 14.2111L47.7575 13.3162C45.8381 10.3339 42.4529 8.3489 38.588 8.3489C37.4327 8.3489 36.3226 8.52595 35.2827 8.85268L33.9473 9.27224ZM49.0719 12.4702C49.9149 12.3024 50.7872 12.2143 51.6804 12.2143C58.9111 12.2143 64.7727 17.9866 64.7727 25.1071C64.7727 32.2277 58.9111 38 51.6804 38H13.0924C5.86165 38 0 32.2277 0 25.1071C0 18.6789 4.7772 13.3495 11.0262 12.3739C11.0255 12.3208 11.0251 12.2676 11.0251 12.2143C11.0251 5.46852 16.5783 0 23.4284 0C28.5275 0 32.9078 3.03001 34.8142 7.36137C36.0041 6.9875 37.2721 6.78571 38.588 6.78571C42.9995 6.78571 46.873 9.05368 49.0719 12.4702Z" fill="#4F8EF0"></path> <path d="M7.191 30.2995V18.9932H9.52651V23.304H13.9372V18.9932H16.2803V30.2995H13.9372V25.2523H9.52651V30.2995H7.191Z" fill="#4F8EF0"></path> <path d="M22.6516 26.2341C22.5137 26.3211 22.3733 26.3927 22.2304 26.4489C22.0926 26.5001 21.9011 26.5486 21.6561 26.5947L21.166 26.6867C20.7066 26.7685 20.3773 26.8682 20.1782 26.9859C19.8413 27.1853 19.6728 27.4947 19.6728 27.914C19.6728 28.2873 19.7749 28.5583 19.9791 28.7271C20.1884 28.8907 20.4411 28.9725 20.7372 28.9725C21.2069 28.9725 21.6382 28.8344 22.0313 28.5583C22.4295 28.2822 22.6363 27.7785 22.6516 27.0472V26.2341ZM21.3268 25.214C21.7301 25.1628 22.0186 25.0989 22.1921 25.0222C22.5035 24.8893 22.6592 24.6821 22.6592 24.4009C22.6592 24.0583 22.5393 23.8231 22.2993 23.6952C22.0645 23.5623 21.7174 23.4958 21.2579 23.4958C20.7423 23.4958 20.3773 23.6236 20.1629 23.8793C20.0098 24.0685 19.9077 24.3242 19.8566 24.6464H17.7508C17.7968 23.9151 18.001 23.3142 18.3634 22.8438C18.9403 22.1074 19.9306 21.7392 21.3345 21.7392C22.2483 21.7392 23.06 21.9208 23.7695 22.2838C24.4791 22.6469 24.8339 23.3321 24.8339 24.3395V28.1748C24.8339 28.4407 24.839 28.7628 24.8492 29.1413C24.8646 29.4276 24.9079 29.6219 24.9794 29.7242C25.0509 29.8265 25.1581 29.9109 25.301 29.9773V30.2995H22.9272C22.8609 30.1307 22.8149 29.9722 22.7894 29.8239C22.7639 29.6756 22.7435 29.5069 22.7281 29.3177C22.427 29.645 22.0798 29.9236 21.6867 30.1538C21.2171 30.4248 20.6862 30.5603 20.094 30.5603C19.3385 30.5603 18.7131 30.3455 18.2179 29.916C17.7279 29.4813 17.4828 28.8677 17.4828 28.0751C17.4828 27.0472 17.8785 26.3032 18.6697 25.8429C19.1036 25.5924 19.7418 25.4134 20.5841 25.306L21.3268 25.214Z" fill="#4F8EF0"></path> <path d="M28.6399 21.9387V26.9782C28.6399 27.4537 28.6961 27.8117 28.8084 28.052C29.0075 28.4765 29.398 28.6887 29.98 28.6887C30.7253 28.6887 31.2358 28.387 31.5115 27.7836C31.6544 27.4563 31.7259 27.0242 31.7259 26.4873V21.9387H33.9389V30.2995H31.8178V29.1182C31.7973 29.1438 31.7463 29.2205 31.6646 29.3484C31.5829 29.4762 31.4859 29.5887 31.3736 29.6859C31.0316 29.9927 30.6998 30.2023 30.3782 30.3148C30.0617 30.4273 29.689 30.4836 29.2602 30.4836C28.0248 30.4836 27.1927 30.0387 26.7639 29.1489C26.524 28.658 26.404 27.9344 26.404 26.9782V21.9387H28.6399Z" fill="#4F8EF0"></path> <path d="M34.881 23.5725V22.0154H36.0449V19.6836H38.2043V22.0154H39.5597V23.5725H38.2043V27.9907C38.2043 28.3333 38.2477 28.5481 38.3345 28.635C38.4213 28.7168 38.6867 28.7577 39.1309 28.7577C39.1972 28.7577 39.2661 28.7577 39.3376 28.7577C39.4142 28.7526 39.4882 28.7475 39.5597 28.7424V30.3762L38.5259 30.4146C37.4947 30.4504 36.7903 30.2714 36.4125 29.8776C36.1675 29.6271 36.0449 29.241 36.0449 28.7194V23.5725H34.881Z" fill="#4F8EF0"></path> <path d="M40.609 28.0137H42.9292V30.2995H40.609V28.0137Z" fill="#4F8EF0"></path> <path d="M47.9604 26.027H50.8243L49.4153 21.5782L47.9604 26.027ZM48.1059 18.9932H50.7707L54.7679 30.2995H52.2103L51.4828 27.9753H47.3249L46.5438 30.2995H44.0781L48.1059 18.9932Z" fill="#4F8EF0"></path> <path d="M58.0532 30.2995H55.71V18.9932H58.0532V30.2995Z" fill="#4F8EF0"></path> </svg> 