<svg width="333" height="231" viewBox="0 0 333 231" fill="none" xmlns="http://www.w3.org/2000/svg">
<rect x="45.6494" y="75.8066" width="241.701" height="125.245" rx="8.78912" fill="#FAFAFA"/>
<g filter="url(#filter0_d_259_7213)">
<rect x="5" y="90.0889" width="323" height="101.075" rx="8.78912" fill="white"/>
<rect x="5.54932" y="90.6382" width="321.901" height="99.9762" rx="8.2398" stroke="#CAC4D0" stroke-width="1.09864"/>
<rect x="31.3672" y="116.457" width="81.3673" height="17.5782" rx="8.78912" fill="#095140"/>
<path d="M46.7481 121.949L40.7056 127.992L37.959 125.245" stroke="white" stroke-width="1.09864" stroke-linecap="round" stroke-linejoin="round"/>
<path d="M57.1192 129.495C56.5039 129.495 55.9619 129.372 55.4932 129.126C55.0244 128.886 54.6582 128.54 54.3945 128.089C54.1367 127.644 54.0078 127.116 54.0078 126.507C54.0078 125.886 54.1104 125.312 54.3154 124.784C54.5264 124.251 54.8223 123.785 55.2031 123.387C55.584 122.988 56.0381 122.678 56.5654 122.455C57.0928 122.232 57.6758 122.121 58.3145 122.121C58.959 122.121 59.5186 122.247 59.9932 122.499C60.4737 122.745 60.8457 123.091 61.1094 123.536C61.3731 123.981 61.5049 124.497 61.5049 125.083C61.5049 125.423 61.4639 125.754 61.3819 126.076C61.3057 126.398 61.1885 126.688 61.0303 126.946C60.8721 127.204 60.6788 127.412 60.4502 127.57C60.2217 127.723 59.958 127.799 59.6592 127.799C59.3077 127.799 59.0528 127.69 58.8946 127.474C58.7422 127.257 58.6866 126.979 58.7276 126.639L58.7539 126.34L58.9034 126.604C58.7569 126.973 58.5254 127.266 58.209 127.482C57.8926 127.693 57.5469 127.799 57.1719 127.799C56.7324 127.799 56.3897 127.664 56.1436 127.395C55.8975 127.125 55.7744 126.759 55.7744 126.296C55.7744 125.974 55.8242 125.666 55.9238 125.373C56.0235 125.08 56.1641 124.819 56.3457 124.591C56.5332 124.356 56.753 124.172 57.0049 124.037C57.2627 123.902 57.5498 123.835 57.8662 123.835C58.2237 123.835 58.5078 123.932 58.7188 124.125C58.9297 124.312 59.0528 124.591 59.0879 124.96L58.9121 125.074L59.1143 123.932H59.7383L59.2989 126.454C59.2578 126.7 59.2696 126.902 59.334 127.061C59.4043 127.213 59.5479 127.289 59.7647 127.289C59.9522 127.289 60.1163 127.222 60.2569 127.087C60.4034 126.952 60.5235 126.776 60.6172 126.56C60.7168 126.343 60.7901 126.108 60.837 125.856C60.8838 125.604 60.9073 125.358 60.9073 125.118C60.9073 124.597 60.7989 124.154 60.5821 123.791C60.3653 123.422 60.0547 123.138 59.6504 122.938C59.252 122.739 58.7774 122.64 58.2266 122.64C57.6934 122.64 57.2041 122.736 56.7588 122.93C56.3194 123.123 55.9385 123.395 55.6162 123.747C55.294 124.093 55.0449 124.497 54.8692 124.96C54.6934 125.417 54.6055 125.912 54.6055 126.445C54.6055 126.984 54.7109 127.441 54.9219 127.816C55.1387 128.191 55.4463 128.476 55.8447 128.669C56.2432 128.868 56.7149 128.968 57.2598 128.968C57.5117 128.968 57.7608 128.941 58.0069 128.889C58.2588 128.842 58.4932 128.769 58.71 128.669L58.833 129.17C58.5694 129.281 58.294 129.363 58.0069 129.416C57.7198 129.469 57.4239 129.495 57.1192 129.495ZM57.3828 127.236C57.6348 127.236 57.8633 127.169 58.0684 127.034C58.2735 126.899 58.4434 126.715 58.5782 126.48C58.7129 126.24 58.795 125.962 58.8243 125.645C58.8535 125.417 58.836 125.209 58.7715 125.021C58.7071 124.834 58.6016 124.685 58.4551 124.573C58.3086 124.456 58.1182 124.397 57.8838 124.397C57.6553 124.397 57.4532 124.45 57.2774 124.556C57.1016 124.655 56.9522 124.79 56.8291 124.96C56.7061 125.13 56.6123 125.32 56.5479 125.531C56.4834 125.742 56.4512 125.959 56.4512 126.182C56.4512 126.498 56.5303 126.753 56.6885 126.946C56.8467 127.14 57.0781 127.236 57.3828 127.236ZM62.8311 127.746V121.594H63.5693V124.38L66.1358 121.594H67.0674L64.7822 124.046L67.1026 127.746H66.2061L64.2549 124.617L63.5693 125.347V127.746H62.8311ZM67.9901 127.746V123.316H68.7284V127.746H67.9901ZM68.3593 122.376C68.2128 122.376 68.0897 122.329 67.9901 122.235C67.8964 122.136 67.8495 122.013 67.8495 121.866C67.8495 121.72 67.8964 121.603 67.9901 121.515C68.0897 121.421 68.2128 121.374 68.3593 121.374C68.4999 121.374 68.62 121.421 68.7196 121.515C68.8192 121.603 68.869 121.72 68.869 121.866C68.869 122.013 68.8192 122.136 68.7196 122.235C68.62 122.329 68.4999 122.376 68.3593 122.376ZM70.0313 127.746V123.316H70.6992L70.7344 124.09C70.875 123.814 71.0742 123.601 71.3321 123.448C71.5957 123.29 71.8946 123.211 72.2285 123.211C72.5743 123.211 72.8731 123.281 73.125 123.422C73.377 123.557 73.5733 123.765 73.7139 124.046C73.8545 124.321 73.9248 124.673 73.9248 125.101V127.746H73.1866V125.18C73.1866 124.734 73.0869 124.4 72.8877 124.178C72.6944 123.955 72.419 123.844 72.0616 123.844C71.8155 123.844 71.5957 123.905 71.4024 124.028C71.209 124.145 71.0537 124.318 70.9365 124.547C70.8252 124.77 70.7696 125.048 70.7696 125.382V127.746H70.0313ZM76.8272 129.785C76.4287 129.785 76.0742 129.732 75.7637 129.627C75.459 129.527 75.2217 129.372 75.0518 129.161C74.8819 128.95 74.7969 128.689 74.7969 128.379C74.7969 128.244 74.8233 128.101 74.876 127.948C74.9346 127.796 75.0313 127.646 75.166 127.5C75.3067 127.354 75.5029 127.222 75.7549 127.104L76.2647 127.403C75.9541 127.532 75.752 127.679 75.6582 127.843C75.5645 128.013 75.5176 128.168 75.5176 128.309C75.5176 128.502 75.5733 128.663 75.6846 128.792C75.7959 128.921 75.9512 129.018 76.1504 129.082C76.3496 129.146 76.5752 129.179 76.8272 129.179C77.0791 129.179 77.2959 129.144 77.4776 129.073C77.6592 129.003 77.7998 128.903 77.8994 128.774C77.9991 128.646 78.0489 128.493 78.0489 128.317C78.0489 128.112 77.9727 127.939 77.8203 127.799C77.668 127.664 77.378 127.585 76.9502 127.562C76.6045 127.538 76.3145 127.506 76.0801 127.465C75.8457 127.424 75.6524 127.377 75.5 127.324C75.3477 127.266 75.2188 127.201 75.1133 127.131C75.0137 127.061 74.9229 126.987 74.8408 126.911V126.709L75.6934 125.865L76.335 126.094L75.4561 126.885L75.5703 126.577C75.6348 126.624 75.6963 126.668 75.7549 126.709C75.8135 126.75 75.8926 126.785 75.9922 126.814C76.0918 126.844 76.2295 126.87 76.4053 126.894C76.5869 126.917 76.8242 126.94 77.1172 126.964C77.5215 126.993 77.8438 127.063 78.084 127.175C78.3301 127.286 78.5059 127.436 78.6114 127.623C78.7227 127.811 78.7784 128.033 78.7784 128.291C78.7784 128.543 78.708 128.78 78.5674 129.003C78.4327 129.231 78.2217 129.419 77.9346 129.565C77.6475 129.712 77.2784 129.785 76.8272 129.785ZM76.8184 126.357C76.4492 126.357 76.1328 126.287 75.8692 126.146C75.6113 126.006 75.4151 125.818 75.2803 125.584C75.1455 125.344 75.0781 125.077 75.0781 124.784C75.0781 124.491 75.1455 124.228 75.2803 123.993C75.4209 123.759 75.6201 123.571 75.878 123.431C76.1358 123.284 76.4492 123.211 76.8184 123.211C77.1875 123.211 77.501 123.284 77.7588 123.431C78.0166 123.571 78.2129 123.759 78.3477 123.993C78.4825 124.228 78.5498 124.491 78.5498 124.784C78.5498 125.077 78.4825 125.344 78.3477 125.584C78.2129 125.818 78.0166 126.006 77.7588 126.146C77.501 126.287 77.1875 126.357 76.8184 126.357ZM76.8184 125.751C77.1348 125.751 77.3838 125.669 77.5655 125.505C77.7471 125.341 77.8379 125.101 77.8379 124.784C77.8379 124.474 77.7471 124.236 77.5655 124.072C77.3838 123.908 77.1348 123.826 76.8184 123.826C76.5078 123.826 76.2559 123.908 76.0625 124.072C75.875 124.236 75.7813 124.474 75.7813 124.784C75.7813 125.101 75.875 125.341 76.0625 125.505C76.25 125.669 76.502 125.751 76.8184 125.751ZM77.5391 123.94L77.3194 123.316H79.1299V123.87L77.5391 123.94ZM81.649 127.852C81.2799 127.852 80.9576 127.79 80.6822 127.667C80.4127 127.544 80.1959 127.374 80.0318 127.157C79.8736 126.935 79.777 126.674 79.7418 126.375H80.4977C80.527 126.527 80.5885 126.668 80.6822 126.797C80.776 126.926 80.902 127.031 81.0602 127.113C81.2242 127.189 81.4234 127.228 81.6578 127.228C81.8629 127.228 82.0328 127.198 82.1676 127.14C82.3024 127.075 82.402 126.99 82.4664 126.885C82.5367 126.779 82.5719 126.665 82.5719 126.542C82.5719 126.36 82.5279 126.223 82.4401 126.129C82.358 126.035 82.235 125.962 82.0709 125.909C81.9068 125.851 81.7076 125.801 81.4733 125.76C81.2799 125.725 81.0895 125.678 80.902 125.619C80.7145 125.561 80.5475 125.484 80.401 125.391C80.2545 125.291 80.1373 125.171 80.0494 125.03C79.9674 124.89 79.9264 124.717 79.9264 124.512C79.9264 124.26 79.9908 124.037 80.1197 123.844C80.2486 123.645 80.4332 123.489 80.6734 123.378C80.9195 123.267 81.2037 123.211 81.526 123.211C82.0006 123.211 82.3844 123.325 82.6774 123.554C82.9703 123.782 83.1432 124.113 83.1959 124.547H82.4664C82.4371 124.324 82.3404 124.151 82.1764 124.028C82.0182 123.899 81.7985 123.835 81.5172 123.835C81.2418 123.835 81.0309 123.891 80.8844 124.002C80.7438 124.113 80.6734 124.26 80.6734 124.441C80.6734 124.559 80.7115 124.664 80.7877 124.758C80.8697 124.846 80.9869 124.922 81.1393 124.986C81.2975 125.051 81.4908 125.103 81.7193 125.145C82.0123 125.197 82.2789 125.268 82.5192 125.355C82.7594 125.443 82.9528 125.575 83.0992 125.751C83.2516 125.921 83.3278 126.164 83.3278 126.48C83.3278 126.756 83.2574 126.996 83.1168 127.201C82.9821 127.406 82.7887 127.567 82.5367 127.685C82.2848 127.796 81.9889 127.852 81.649 127.852ZM84.3908 127.746V121.418H85.1291V127.746H84.3908ZM88.2902 127.852C87.8742 127.852 87.505 127.755 87.1827 127.562C86.8663 127.368 86.6173 127.099 86.4357 126.753C86.254 126.401 86.1632 125.994 86.1632 125.531C86.1632 125.062 86.2511 124.655 86.4269 124.31C86.6085 123.964 86.8605 123.694 87.1827 123.501C87.5109 123.308 87.8859 123.211 88.3078 123.211C88.7413 123.211 89.1076 123.308 89.4064 123.501C89.7111 123.694 89.9425 123.949 90.1007 124.266C90.2648 124.576 90.3468 124.919 90.3468 125.294C90.3468 125.353 90.3468 125.414 90.3468 125.479C90.3468 125.543 90.3439 125.616 90.338 125.698H86.7169V125.127H89.6261C89.6085 124.723 89.4738 124.406 89.2218 124.178C88.9757 123.949 88.6652 123.835 88.2902 123.835C88.0382 123.835 87.8038 123.894 87.587 124.011C87.3761 124.122 87.2062 124.289 87.0773 124.512C86.9484 124.728 86.8839 125.001 86.8839 125.329V125.575C86.8839 125.938 86.9484 126.243 87.0773 126.489C87.212 126.735 87.3849 126.92 87.5958 127.043C87.8126 127.166 88.0441 127.228 88.2902 127.228C88.6007 127.228 88.8556 127.16 89.0548 127.025C89.2599 126.885 89.4064 126.697 89.4943 126.463H90.2238C90.1535 126.727 90.0304 126.964 89.8546 127.175C89.6789 127.386 89.4591 127.553 89.1955 127.676C88.9376 127.793 88.6359 127.852 88.2902 127.852ZM91.6549 129.68L92.736 127.254H92.4811L90.7408 123.316H91.5406L92.9821 126.7L94.4938 123.316H95.2584L92.4283 129.68H91.6549ZM95.2027 129.68V129.047H95.5455C95.7682 129.047 95.9264 129 96.0201 128.906C96.1139 128.818 96.1608 128.666 96.1608 128.449V123.316H96.899V128.467C96.899 128.748 96.8522 128.977 96.7584 129.152C96.6647 129.334 96.524 129.466 96.3365 129.548C96.1549 129.636 95.9293 129.68 95.6598 129.68H95.2027ZM96.5387 122.376C96.3922 122.376 96.2692 122.329 96.1695 122.235C96.0758 122.136 96.0289 122.013 96.0289 121.866C96.0289 121.72 96.0758 121.603 96.1695 121.515C96.2692 121.421 96.3922 121.374 96.5387 121.374C96.6793 121.374 96.7965 121.421 96.8903 121.515C96.9899 121.603 97.0397 121.72 97.0397 121.866C97.0397 122.013 96.9899 122.136 96.8903 122.235C96.7965 122.329 96.6793 122.376 96.5387 122.376ZM100.17 127.852C99.7599 127.852 99.3907 127.758 99.0626 127.57C98.7345 127.377 98.4767 127.107 98.2892 126.762C98.1017 126.41 98.0079 126.003 98.0079 125.54C98.0079 125.065 98.1017 124.655 98.2892 124.31C98.4825 123.958 98.7433 123.688 99.0714 123.501C99.4054 123.308 99.7775 123.211 100.188 123.211C100.609 123.211 100.982 123.308 101.304 123.501C101.632 123.688 101.89 123.958 102.077 124.31C102.271 124.655 102.367 125.062 102.367 125.531C102.367 126 102.271 126.41 102.077 126.762C101.884 127.107 101.623 127.377 101.295 127.57C100.967 127.758 100.592 127.852 100.17 127.852ZM100.179 127.219C100.431 127.219 100.665 127.157 100.882 127.034C101.099 126.905 101.275 126.715 101.409 126.463C101.544 126.211 101.611 125.9 101.611 125.531C101.611 125.156 101.544 124.846 101.409 124.6C101.28 124.348 101.108 124.16 100.891 124.037C100.68 123.908 100.445 123.844 100.188 123.844C99.9415 123.844 99.7071 123.908 99.4845 124.037C99.2677 124.16 99.0919 124.348 98.9571 124.6C98.8282 124.846 98.7638 125.156 98.7638 125.531C98.7638 125.9 98.8282 126.211 98.9571 126.463C99.0919 126.715 99.2648 126.905 99.4757 127.034C99.6925 127.157 99.9269 127.219 100.179 127.219ZM105.345 127.852C104.929 127.852 104.56 127.755 104.237 127.562C103.921 127.368 103.672 127.099 103.49 126.753C103.309 126.401 103.218 125.994 103.218 125.531C103.218 125.062 103.306 124.655 103.482 124.31C103.663 123.964 103.915 123.694 104.237 123.501C104.566 123.308 104.941 123.211 105.362 123.211C105.796 123.211 106.162 123.308 106.461 123.501C106.766 123.694 106.997 123.949 107.155 124.266C107.319 124.576 107.401 124.919 107.401 125.294C107.401 125.353 107.401 125.414 107.401 125.479C107.401 125.543 107.399 125.616 107.393 125.698H103.772V125.127H106.681C106.663 124.723 106.528 124.406 106.276 124.178C106.03 123.949 105.72 123.835 105.345 123.835C105.093 123.835 104.859 123.894 104.642 124.011C104.431 124.122 104.261 124.289 104.132 124.512C104.003 124.728 103.939 125.001 103.939 125.329V125.575C103.939 125.938 104.003 126.243 104.132 126.489C104.267 126.735 104.44 126.92 104.65 127.043C104.867 127.166 105.099 127.228 105.345 127.228C105.655 127.228 105.91 127.16 106.109 127.025C106.315 126.885 106.461 126.697 106.549 126.463H107.278C107.208 126.727 107.085 126.964 106.909 127.175C106.734 127.386 106.514 127.553 106.25 127.676C105.992 127.793 105.691 127.852 105.345 127.852Z" fill="white"/>
<rect x="31.3672" y="147.219" width="81.3673" height="17.5782" rx="8.78912" fill="#FAFAFA"/>
<path d="M46.7486 153.261L41.2554 158.754L38.5088 156.007" stroke="#119111" stroke-width="1.09864" stroke-linecap="round" stroke-linejoin="round"/>
<path d="M57.1192 160.257C56.5039 160.257 55.9619 160.134 55.4932 159.888C55.0244 159.647 54.6582 159.302 54.3945 158.851C54.1367 158.405 54.0078 157.878 54.0078 157.269C54.0078 156.647 54.1104 156.073 54.3154 155.546C54.5264 155.013 54.8223 154.547 55.2031 154.148C55.584 153.75 56.0381 153.439 56.5654 153.217C57.0928 152.994 57.6758 152.883 58.3145 152.883C58.959 152.883 59.5186 153.009 59.9932 153.261C60.4737 153.507 60.8457 153.853 61.1094 154.298C61.3731 154.743 61.5049 155.259 61.5049 155.845C61.5049 156.185 61.4639 156.516 61.3819 156.838C61.3057 157.16 61.1885 157.45 61.0303 157.708C60.8721 157.966 60.6788 158.174 60.4502 158.332C60.2217 158.484 59.958 158.561 59.6592 158.561C59.3077 158.561 59.0528 158.452 58.8946 158.235C58.7422 158.019 58.6866 157.74 58.7276 157.4L58.7539 157.102L58.9034 157.365C58.7569 157.734 58.5254 158.027 58.209 158.244C57.8926 158.455 57.5469 158.561 57.1719 158.561C56.7324 158.561 56.3897 158.426 56.1436 158.156C55.8975 157.887 55.7744 157.521 55.7744 157.058C55.7744 156.735 55.8242 156.428 55.9238 156.135C56.0235 155.842 56.1641 155.581 56.3457 155.353C56.5332 155.118 56.753 154.934 57.0049 154.799C57.2627 154.664 57.5498 154.597 57.8662 154.597C58.2237 154.597 58.5078 154.693 58.7188 154.887C58.9297 155.074 59.0528 155.353 59.0879 155.722L58.9121 155.836L59.1143 154.693H59.7383L59.2989 157.216C59.2578 157.462 59.2696 157.664 59.334 157.822C59.4043 157.975 59.5479 158.051 59.7647 158.051C59.9522 158.051 60.1163 157.983 60.2569 157.849C60.4034 157.714 60.5235 157.538 60.6172 157.321C60.7168 157.104 60.7901 156.87 60.837 156.618C60.8838 156.366 60.9073 156.12 60.9073 155.88C60.9073 155.358 60.7989 154.916 60.5821 154.553C60.3653 154.184 60.0547 153.899 59.6504 153.7C59.252 153.501 58.7774 153.401 58.2266 153.401C57.6934 153.401 57.2041 153.498 56.7588 153.691C56.3194 153.885 55.9385 154.157 55.6162 154.509C55.294 154.854 55.0449 155.259 54.8692 155.722C54.6934 156.179 54.6055 156.674 54.6055 157.207C54.6055 157.746 54.7109 158.203 54.9219 158.578C55.1387 158.953 55.4463 159.237 55.8447 159.431C56.2432 159.63 56.7149 159.729 57.2598 159.729C57.5117 159.729 57.7608 159.703 58.0069 159.65C58.2588 159.604 58.4932 159.53 58.71 159.431L58.833 159.932C58.5694 160.043 58.294 160.125 58.0069 160.178C57.7198 160.23 57.4239 160.257 57.1192 160.257ZM57.3828 157.998C57.6348 157.998 57.8633 157.931 58.0684 157.796C58.2735 157.661 58.4434 157.477 58.5782 157.242C58.7129 157.002 58.795 156.724 58.8243 156.407C58.8535 156.179 58.836 155.971 58.7715 155.783C58.7071 155.596 58.6016 155.446 58.4551 155.335C58.3086 155.218 58.1182 155.159 57.8838 155.159C57.6553 155.159 57.4532 155.212 57.2774 155.317C57.1016 155.417 56.9522 155.552 56.8291 155.722C56.7061 155.892 56.6123 156.082 56.5479 156.293C56.4834 156.504 56.4512 156.721 56.4512 156.943C56.4512 157.26 56.5303 157.515 56.6885 157.708C56.8467 157.901 57.0781 157.998 57.3828 157.998ZM62.8311 158.508V152.355H63.5693V155.142L66.1358 152.355H67.0674L64.7822 154.808L67.1026 158.508H66.2061L64.2549 155.379L63.5693 156.108V158.508H62.8311ZM67.9901 158.508V154.078H68.7284V158.508H67.9901ZM68.3593 153.138C68.2128 153.138 68.0897 153.091 67.9901 152.997C67.8964 152.897 67.8495 152.774 67.8495 152.628C67.8495 152.481 67.8964 152.364 67.9901 152.276C68.0897 152.183 68.2128 152.136 68.3593 152.136C68.4999 152.136 68.62 152.183 68.7196 152.276C68.8192 152.364 68.869 152.481 68.869 152.628C68.869 152.774 68.8192 152.897 68.7196 152.997C68.62 153.091 68.4999 153.138 68.3593 153.138ZM70.0313 158.508V154.078H70.6992L70.7344 154.852C70.875 154.576 71.0742 154.362 71.3321 154.21C71.5957 154.052 71.8946 153.973 72.2285 153.973C72.5743 153.973 72.8731 154.043 73.125 154.184C73.377 154.318 73.5733 154.526 73.7139 154.808C73.8545 155.083 73.9248 155.435 73.9248 155.862V158.508H73.1866V155.941C73.1866 155.496 73.0869 155.162 72.8877 154.939C72.6944 154.717 72.419 154.605 72.0616 154.605C71.8155 154.605 71.5957 154.667 71.4024 154.79C71.209 154.907 71.0537 155.08 70.9365 155.309C70.8252 155.531 70.7696 155.81 70.7696 156.144V158.508H70.0313ZM76.8272 160.547C76.4287 160.547 76.0742 160.494 75.7637 160.389C75.459 160.289 75.2217 160.134 75.0518 159.923C74.8819 159.712 74.7969 159.451 74.7969 159.141C74.7969 159.006 74.8233 158.862 74.876 158.71C74.9346 158.558 75.0313 158.408 75.166 158.262C75.3067 158.115 75.5029 157.983 75.7549 157.866L76.2647 158.165C75.9541 158.294 75.752 158.44 75.6582 158.604C75.5645 158.774 75.5176 158.93 75.5176 159.07C75.5176 159.264 75.5733 159.425 75.6846 159.554C75.7959 159.683 75.9512 159.779 76.1504 159.844C76.3496 159.908 76.5752 159.94 76.8272 159.94C77.0791 159.94 77.2959 159.905 77.4776 159.835C77.6592 159.765 77.7998 159.665 77.8994 159.536C77.9991 159.407 78.0489 159.255 78.0489 159.079C78.0489 158.874 77.9727 158.701 77.8203 158.561C77.668 158.426 77.378 158.347 76.9502 158.323C76.6045 158.3 76.3145 158.268 76.0801 158.227C75.8457 158.186 75.6524 158.139 75.5 158.086C75.3477 158.027 75.2188 157.963 75.1133 157.893C75.0137 157.822 74.9229 157.749 74.8408 157.673V157.471L75.6934 156.627L76.335 156.855L75.4561 157.646L75.5703 157.339C75.6348 157.386 75.6963 157.43 75.7549 157.471C75.8135 157.512 75.8926 157.547 75.9922 157.576C76.0918 157.605 76.2295 157.632 76.4053 157.655C76.5869 157.679 76.8242 157.702 77.1172 157.726C77.5215 157.755 77.8438 157.825 78.084 157.937C78.3301 158.048 78.5059 158.197 78.6114 158.385C78.7227 158.572 78.7784 158.795 78.7784 159.053C78.7784 159.305 78.708 159.542 78.5674 159.765C78.4327 159.993 78.2217 160.181 77.9346 160.327C77.6475 160.474 77.2784 160.547 76.8272 160.547ZM76.8184 157.119C76.4492 157.119 76.1328 157.049 75.8692 156.908C75.6113 156.768 75.4151 156.58 75.2803 156.346C75.1455 156.105 75.0781 155.839 75.0781 155.546C75.0781 155.253 75.1455 154.989 75.2803 154.755C75.4209 154.52 75.6201 154.333 75.878 154.192C76.1358 154.046 76.4492 153.973 76.8184 153.973C77.1875 153.973 77.501 154.046 77.7588 154.192C78.0166 154.333 78.2129 154.52 78.3477 154.755C78.4825 154.989 78.5498 155.253 78.5498 155.546C78.5498 155.839 78.4825 156.105 78.3477 156.346C78.2129 156.58 78.0166 156.768 77.7588 156.908C77.501 157.049 77.1875 157.119 76.8184 157.119ZM76.8184 156.513C77.1348 156.513 77.3838 156.431 77.5655 156.267C77.7471 156.103 77.8379 155.862 77.8379 155.546C77.8379 155.235 77.7471 154.998 77.5655 154.834C77.3838 154.67 77.1348 154.588 76.8184 154.588C76.5078 154.588 76.2559 154.67 76.0625 154.834C75.875 154.998 75.7813 155.235 75.7813 155.546C75.7813 155.862 75.875 156.103 76.0625 156.267C76.25 156.431 76.502 156.513 76.8184 156.513ZM77.5391 154.702L77.3194 154.078H79.1299V154.632L77.5391 154.702ZM81.649 158.613C81.2799 158.613 80.9576 158.552 80.6822 158.429C80.4127 158.306 80.1959 158.136 80.0318 157.919C79.8736 157.696 79.777 157.436 79.7418 157.137H80.4977C80.527 157.289 80.5885 157.43 80.6822 157.559C80.776 157.687 80.902 157.793 81.0602 157.875C81.2242 157.951 81.4234 157.989 81.6578 157.989C81.8629 157.989 82.0328 157.96 82.1676 157.901C82.3024 157.837 82.402 157.752 82.4664 157.646C82.5367 157.541 82.5719 157.427 82.5719 157.304C82.5719 157.122 82.5279 156.984 82.4401 156.891C82.358 156.797 82.235 156.724 82.0709 156.671C81.9068 156.612 81.7076 156.562 81.4733 156.521C81.2799 156.486 81.0895 156.439 80.902 156.381C80.7145 156.322 80.5475 156.246 80.401 156.152C80.2545 156.053 80.1373 155.933 80.0494 155.792C79.9674 155.651 79.9264 155.478 79.9264 155.273C79.9264 155.021 79.9908 154.799 80.1197 154.605C80.2486 154.406 80.4332 154.251 80.6734 154.14C80.9195 154.028 81.2037 153.973 81.526 153.973C82.0006 153.973 82.3844 154.087 82.6774 154.315C82.9703 154.544 83.1432 154.875 83.1959 155.309H82.4664C82.4371 155.086 82.3404 154.913 82.1764 154.79C82.0182 154.661 81.7985 154.597 81.5172 154.597C81.2418 154.597 81.0309 154.652 80.8844 154.764C80.7438 154.875 80.6734 155.021 80.6734 155.203C80.6734 155.32 80.7115 155.426 80.7877 155.52C80.8697 155.607 80.9869 155.684 81.1393 155.748C81.2975 155.812 81.4908 155.865 81.7193 155.906C82.0123 155.959 82.2789 156.029 82.5192 156.117C82.7594 156.205 82.9528 156.337 83.0992 156.513C83.2516 156.683 83.3278 156.926 83.3278 157.242C83.3278 157.518 83.2574 157.758 83.1168 157.963C82.9821 158.168 82.7887 158.329 82.5367 158.446C82.2848 158.558 81.9889 158.613 81.649 158.613ZM84.3908 158.508V152.18H85.1291V158.508H84.3908ZM88.2902 158.613C87.8742 158.613 87.505 158.517 87.1827 158.323C86.8663 158.13 86.6173 157.86 86.4357 157.515C86.254 157.163 86.1632 156.756 86.1632 156.293C86.1632 155.824 86.2511 155.417 86.4269 155.071C86.6085 154.726 86.8605 154.456 87.1827 154.263C87.5109 154.069 87.8859 153.973 88.3078 153.973C88.7413 153.973 89.1076 154.069 89.4064 154.263C89.7111 154.456 89.9425 154.711 90.1007 155.027C90.2648 155.338 90.3468 155.681 90.3468 156.056C90.3468 156.114 90.3468 156.176 90.3468 156.24C90.3468 156.305 90.3439 156.378 90.338 156.46H86.7169V155.889H89.6261C89.6085 155.484 89.4738 155.168 89.2218 154.939C88.9757 154.711 88.6652 154.597 88.2902 154.597C88.0382 154.597 87.8038 154.655 87.587 154.772C87.3761 154.884 87.2062 155.051 87.0773 155.273C86.9484 155.49 86.8839 155.763 86.8839 156.091V156.337C86.8839 156.7 86.9484 157.005 87.0773 157.251C87.212 157.497 87.3849 157.682 87.5958 157.805C87.8126 157.928 88.0441 157.989 88.2902 157.989C88.6007 157.989 88.8556 157.922 89.0548 157.787C89.2599 157.646 89.4064 157.459 89.4943 157.225H90.2238C90.1535 157.488 90.0304 157.726 89.8546 157.937C89.6789 158.147 89.4591 158.314 89.1955 158.437C88.9376 158.555 88.6359 158.613 88.2902 158.613ZM91.6549 160.441L92.736 158.016H92.4811L90.7408 154.078H91.5406L92.9821 157.462L94.4938 154.078H95.2584L92.4283 160.441H91.6549ZM95.2027 160.441V159.809H95.5455C95.7682 159.809 95.9264 159.762 96.0201 159.668C96.1139 159.58 96.1608 159.428 96.1608 159.211V154.078H96.899V159.229C96.899 159.51 96.8522 159.738 96.7584 159.914C96.6647 160.096 96.524 160.228 96.3365 160.31C96.1549 160.397 95.9293 160.441 95.6598 160.441H95.2027ZM96.5387 153.138C96.3922 153.138 96.2692 153.091 96.1695 152.997C96.0758 152.897 96.0289 152.774 96.0289 152.628C96.0289 152.481 96.0758 152.364 96.1695 152.276C96.2692 152.183 96.3922 152.136 96.5387 152.136C96.6793 152.136 96.7965 152.183 96.8903 152.276C96.9899 152.364 97.0397 152.481 97.0397 152.628C97.0397 152.774 96.9899 152.897 96.8903 152.997C96.7965 153.091 96.6793 153.138 96.5387 153.138ZM100.17 158.613C99.7599 158.613 99.3907 158.52 99.0626 158.332C98.7345 158.139 98.4767 157.869 98.2892 157.523C98.1017 157.172 98.0079 156.765 98.0079 156.302C98.0079 155.827 98.1017 155.417 98.2892 155.071C98.4825 154.72 98.7433 154.45 99.0714 154.263C99.4054 154.069 99.7775 153.973 100.188 153.973C100.609 153.973 100.982 154.069 101.304 154.263C101.632 154.45 101.89 154.72 102.077 155.071C102.271 155.417 102.367 155.824 102.367 156.293C102.367 156.762 102.271 157.172 102.077 157.523C101.884 157.869 101.623 158.139 101.295 158.332C100.967 158.52 100.592 158.613 100.17 158.613ZM100.179 157.98C100.431 157.98 100.665 157.919 100.882 157.796C101.099 157.667 101.275 157.477 101.409 157.225C101.544 156.973 101.611 156.662 101.611 156.293C101.611 155.918 101.544 155.607 101.409 155.361C101.28 155.109 101.108 154.922 100.891 154.799C100.68 154.67 100.445 154.605 100.188 154.605C99.9415 154.605 99.7071 154.67 99.4845 154.799C99.2677 154.922 99.0919 155.109 98.9571 155.361C98.8282 155.607 98.7638 155.918 98.7638 156.293C98.7638 156.662 98.8282 156.973 98.9571 157.225C99.0919 157.477 99.2648 157.667 99.4757 157.796C99.6925 157.919 99.9269 157.98 100.179 157.98ZM105.345 158.613C104.929 158.613 104.56 158.517 104.237 158.323C103.921 158.13 103.672 157.86 103.49 157.515C103.309 157.163 103.218 156.756 103.218 156.293C103.218 155.824 103.306 155.417 103.482 155.071C103.663 154.726 103.915 154.456 104.237 154.263C104.566 154.069 104.941 153.973 105.362 153.973C105.796 153.973 106.162 154.069 106.461 154.263C106.766 154.456 106.997 154.711 107.155 155.027C107.319 155.338 107.401 155.681 107.401 156.056C107.401 156.114 107.401 156.176 107.401 156.24C107.401 156.305 107.399 156.378 107.393 156.46H103.772V155.889H106.681C106.663 155.484 106.528 155.168 106.276 154.939C106.03 154.711 105.72 154.597 105.345 154.597C105.093 154.597 104.859 154.655 104.642 154.772C104.431 154.884 104.261 155.051 104.132 155.273C104.003 155.49 103.939 155.763 103.939 156.091V156.337C103.939 156.7 104.003 157.005 104.132 157.251C104.267 157.497 104.44 157.682 104.65 157.805C104.867 157.928 105.099 157.989 105.345 157.989C105.655 157.989 105.91 157.922 106.109 157.787C106.315 157.646 106.461 157.459 106.549 157.225H107.278C107.208 157.488 107.085 157.726 106.909 157.937C106.734 158.147 106.514 158.314 106.25 158.437C105.992 158.555 105.691 158.613 105.345 158.613Z" fill="#8F918F"/>
<rect x="125.851" y="116.457" width="81.3673" height="17.5782" rx="8.78912" fill="#FAFAFA"/>
<path d="M141.232 122.499L135.739 127.992L132.992 125.246" stroke="#119111" stroke-width="1.09864" stroke-linecap="round" stroke-linejoin="round"/>
<path d="M151.603 129.495C150.987 129.495 150.445 129.372 149.977 129.126C149.508 128.886 149.142 128.54 148.878 128.089C148.62 127.644 148.491 127.116 148.491 126.507C148.491 125.886 148.594 125.312 148.799 124.784C149.01 124.251 149.306 123.785 149.687 123.387C150.067 122.988 150.522 122.678 151.049 122.455C151.576 122.232 152.159 122.121 152.798 122.121C153.442 122.121 154.002 122.247 154.477 122.499C154.957 122.745 155.329 123.091 155.593 123.536C155.856 123.981 155.988 124.497 155.988 125.083C155.988 125.423 155.947 125.754 155.865 126.076C155.789 126.398 155.672 126.688 155.514 126.946C155.356 127.204 155.162 127.412 154.934 127.57C154.705 127.723 154.441 127.799 154.143 127.799C153.791 127.799 153.536 127.69 153.378 127.474C153.226 127.257 153.17 126.979 153.211 126.639L153.237 126.34L153.387 126.604C153.24 126.973 153.009 127.266 152.692 127.482C152.376 127.693 152.03 127.799 151.655 127.799C151.216 127.799 150.873 127.664 150.627 127.395C150.381 127.125 150.258 126.759 150.258 126.296C150.258 125.974 150.308 125.666 150.407 125.373C150.507 125.08 150.647 124.819 150.829 124.591C151.017 124.356 151.236 124.172 151.488 124.037C151.746 123.902 152.033 123.835 152.35 123.835C152.707 123.835 152.991 123.932 153.202 124.125C153.413 124.312 153.536 124.591 153.571 124.96L153.396 125.074L153.598 123.932H154.222L153.782 126.454C153.741 126.7 153.753 126.902 153.817 127.061C153.888 127.213 154.031 127.289 154.248 127.289C154.436 127.289 154.6 127.222 154.74 127.087C154.887 126.952 155.007 126.776 155.101 126.56C155.2 126.343 155.273 126.108 155.32 125.856C155.367 125.604 155.391 125.358 155.391 125.118C155.391 124.597 155.282 124.154 155.065 123.791C154.849 123.422 154.538 123.138 154.134 122.938C153.735 122.739 153.261 122.64 152.71 122.64C152.177 122.64 151.688 122.736 151.242 122.93C150.803 123.123 150.422 123.395 150.1 123.747C149.777 124.093 149.528 124.497 149.353 124.96C149.177 125.417 149.089 125.912 149.089 126.445C149.089 126.984 149.194 127.441 149.405 127.816C149.622 128.191 149.93 128.476 150.328 128.669C150.727 128.868 151.198 128.968 151.743 128.968C151.995 128.968 152.244 128.941 152.49 128.889C152.742 128.842 152.977 128.769 153.193 128.669L153.316 129.17C153.053 129.281 152.777 129.363 152.49 129.416C152.203 129.469 151.907 129.495 151.603 129.495ZM151.866 127.236C152.118 127.236 152.347 127.169 152.552 127.034C152.757 126.899 152.927 126.715 153.062 126.48C153.196 126.24 153.278 125.962 153.308 125.645C153.337 125.417 153.319 125.209 153.255 125.021C153.19 124.834 153.085 124.685 152.939 124.573C152.792 124.456 152.602 124.397 152.367 124.397C152.139 124.397 151.937 124.45 151.761 124.556C151.585 124.655 151.436 124.79 151.313 124.96C151.189 125.13 151.096 125.32 151.031 125.531C150.967 125.742 150.935 125.959 150.935 126.182C150.935 126.498 151.014 126.753 151.172 126.946C151.33 127.14 151.562 127.236 151.866 127.236ZM157.314 127.746V121.594H158.053V124.38L160.619 121.594H161.551L159.266 124.046L161.586 127.746H160.689L158.738 124.617L158.053 125.347V127.746H157.314ZM162.474 127.746V123.316H163.212V127.746H162.474ZM162.843 122.376C162.696 122.376 162.573 122.329 162.474 122.235C162.38 122.136 162.333 122.013 162.333 121.866C162.333 121.72 162.38 121.603 162.474 121.515C162.573 121.421 162.696 121.374 162.843 121.374C162.983 121.374 163.103 121.421 163.203 121.515C163.303 121.603 163.352 121.72 163.352 121.866C163.352 122.013 163.303 122.136 163.203 122.235C163.103 122.329 162.983 122.376 162.843 122.376ZM164.515 127.746V123.316H165.183L165.218 124.09C165.358 123.814 165.558 123.601 165.815 123.448C166.079 123.29 166.378 123.211 166.712 123.211C167.058 123.211 167.356 123.281 167.608 123.422C167.86 123.557 168.057 123.765 168.197 124.046C168.338 124.321 168.408 124.673 168.408 125.101V127.746H167.67V125.18C167.67 124.734 167.57 124.4 167.371 124.178C167.178 123.955 166.902 123.844 166.545 123.844C166.299 123.844 166.079 123.905 165.886 124.028C165.692 124.145 165.537 124.318 165.42 124.547C165.309 124.77 165.253 125.048 165.253 125.382V127.746H164.515ZM171.311 129.785C170.912 129.785 170.558 129.732 170.247 129.627C169.942 129.527 169.705 129.372 169.535 129.161C169.365 128.95 169.28 128.689 169.28 128.379C169.28 128.244 169.307 128.101 169.359 127.948C169.418 127.796 169.515 127.646 169.649 127.5C169.79 127.354 169.986 127.222 170.238 127.104L170.748 127.403C170.438 127.532 170.235 127.679 170.142 127.843C170.048 128.013 170.001 128.168 170.001 128.309C170.001 128.502 170.057 128.663 170.168 128.792C170.279 128.921 170.435 129.018 170.634 129.082C170.833 129.146 171.059 129.179 171.311 129.179C171.563 129.179 171.779 129.144 171.961 129.073C172.143 129.003 172.283 128.903 172.383 128.774C172.482 128.646 172.532 128.493 172.532 128.317C172.532 128.112 172.456 127.939 172.304 127.799C172.151 127.664 171.861 127.585 171.434 127.562C171.088 127.538 170.798 127.506 170.563 127.465C170.329 127.424 170.136 127.377 169.983 127.324C169.831 127.266 169.702 127.201 169.597 127.131C169.497 127.061 169.406 126.987 169.324 126.911V126.709L170.177 125.865L170.818 126.094L169.939 126.885L170.054 126.577C170.118 126.624 170.18 126.668 170.238 126.709C170.297 126.75 170.376 126.785 170.476 126.814C170.575 126.844 170.713 126.87 170.889 126.894C171.07 126.917 171.308 126.94 171.601 126.964C172.005 126.993 172.327 127.063 172.567 127.175C172.814 127.286 172.989 127.436 173.095 127.623C173.206 127.811 173.262 128.033 173.262 128.291C173.262 128.543 173.191 128.78 173.051 129.003C172.916 129.231 172.705 129.419 172.418 129.565C172.131 129.712 171.762 129.785 171.311 129.785ZM171.302 126.357C170.933 126.357 170.616 126.287 170.353 126.146C170.095 126.006 169.898 125.818 169.764 125.584C169.629 125.344 169.562 125.077 169.562 124.784C169.562 124.491 169.629 124.228 169.764 123.993C169.904 123.759 170.104 123.571 170.361 123.431C170.619 123.284 170.933 123.211 171.302 123.211C171.671 123.211 171.984 123.284 172.242 123.431C172.5 123.571 172.696 123.759 172.831 123.993C172.966 124.228 173.033 124.491 173.033 124.784C173.033 125.077 172.966 125.344 172.831 125.584C172.696 125.818 172.5 126.006 172.242 126.146C171.984 126.287 171.671 126.357 171.302 126.357ZM171.302 125.751C171.618 125.751 171.867 125.669 172.049 125.505C172.231 125.341 172.321 125.101 172.321 124.784C172.321 124.474 172.231 124.236 172.049 124.072C171.867 123.908 171.618 123.826 171.302 123.826C170.991 123.826 170.739 123.908 170.546 124.072C170.358 124.236 170.265 124.474 170.265 124.784C170.265 125.101 170.358 125.341 170.546 125.505C170.733 125.669 170.985 125.751 171.302 125.751ZM172.022 123.94L171.803 123.316H173.613V123.87L172.022 123.94ZM176.132 127.852C175.763 127.852 175.441 127.79 175.166 127.667C174.896 127.544 174.679 127.374 174.515 127.157C174.357 126.935 174.26 126.674 174.225 126.375H174.981C175.01 126.527 175.072 126.668 175.166 126.797C175.259 126.926 175.385 127.031 175.544 127.113C175.708 127.189 175.907 127.228 176.141 127.228C176.346 127.228 176.516 127.198 176.651 127.14C176.786 127.075 176.885 126.99 176.95 126.885C177.02 126.779 177.055 126.665 177.055 126.542C177.055 126.36 177.011 126.223 176.923 126.129C176.841 126.035 176.718 125.962 176.554 125.909C176.39 125.851 176.191 125.801 175.957 125.76C175.763 125.725 175.573 125.678 175.385 125.619C175.198 125.561 175.031 125.484 174.884 125.391C174.738 125.291 174.621 125.171 174.533 125.03C174.451 124.89 174.41 124.717 174.41 124.512C174.41 124.26 174.474 124.037 174.603 123.844C174.732 123.645 174.917 123.489 175.157 123.378C175.403 123.267 175.687 123.211 176.009 123.211C176.484 123.211 176.868 123.325 177.161 123.554C177.454 123.782 177.627 124.113 177.679 124.547H176.95C176.921 124.324 176.824 124.151 176.66 124.028C176.502 123.899 176.282 123.835 176.001 123.835C175.725 123.835 175.514 123.891 175.368 124.002C175.227 124.113 175.157 124.26 175.157 124.441C175.157 124.559 175.195 124.664 175.271 124.758C175.353 124.846 175.47 124.922 175.623 124.986C175.781 125.051 175.974 125.103 176.203 125.145C176.496 125.197 176.762 125.268 177.003 125.355C177.243 125.443 177.436 125.575 177.583 125.751C177.735 125.921 177.811 126.164 177.811 126.48C177.811 126.756 177.741 126.996 177.6 127.201C177.465 127.406 177.272 127.567 177.02 127.685C176.768 127.796 176.472 127.852 176.132 127.852ZM178.874 127.746V121.418H179.613V127.746H178.874ZM182.774 127.852C182.358 127.852 181.988 127.755 181.666 127.562C181.35 127.368 181.101 127.099 180.919 126.753C180.737 126.401 180.647 125.994 180.647 125.531C180.647 125.062 180.734 124.655 180.91 124.31C181.092 123.964 181.344 123.694 181.666 123.501C181.994 123.308 182.369 123.211 182.791 123.211C183.225 123.211 183.591 123.308 183.89 123.501C184.194 123.694 184.426 123.949 184.584 124.266C184.748 124.576 184.83 124.919 184.83 125.294C184.83 125.353 184.83 125.414 184.83 125.479C184.83 125.543 184.827 125.616 184.821 125.698H181.2V125.127H184.11C184.092 124.723 183.957 124.406 183.705 124.178C183.459 123.949 183.149 123.835 182.774 123.835C182.522 123.835 182.287 123.894 182.07 124.011C181.86 124.122 181.69 124.289 181.561 124.512C181.432 124.728 181.367 125.001 181.367 125.329V125.575C181.367 125.938 181.432 126.243 181.561 126.489C181.695 126.735 181.868 126.92 182.079 127.043C182.296 127.166 182.527 127.228 182.774 127.228C183.084 127.228 183.339 127.16 183.538 127.025C183.743 126.885 183.89 126.697 183.978 126.463H184.707C184.637 126.727 184.514 126.964 184.338 127.175C184.162 127.386 183.943 127.553 183.679 127.676C183.421 127.793 183.119 127.852 182.774 127.852ZM186.138 129.68L187.219 127.254H186.964L185.224 123.316H186.024L187.465 126.7L188.977 123.316H189.742L186.912 129.68H186.138ZM189.686 129.68V129.047H190.029C190.252 129.047 190.41 129 190.504 128.906C190.597 128.818 190.644 128.666 190.644 128.449V123.316H191.382V128.467C191.382 128.748 191.336 128.977 191.242 129.152C191.148 129.334 191.007 129.466 190.82 129.548C190.638 129.636 190.413 129.68 190.143 129.68H189.686ZM191.022 122.376C190.876 122.376 190.753 122.329 190.653 122.235C190.559 122.136 190.512 122.013 190.512 121.866C190.512 121.72 190.559 121.603 190.653 121.515C190.753 121.421 190.876 121.374 191.022 121.374C191.163 121.374 191.28 121.421 191.374 121.515C191.473 121.603 191.523 121.72 191.523 121.866C191.523 122.013 191.473 122.136 191.374 122.235C191.28 122.329 191.163 122.376 191.022 122.376ZM194.653 127.852C194.243 127.852 193.874 127.758 193.546 127.57C193.218 127.377 192.96 127.107 192.773 126.762C192.585 126.41 192.491 126.003 192.491 125.54C192.491 125.065 192.585 124.655 192.773 124.31C192.966 123.958 193.227 123.688 193.555 123.501C193.889 123.308 194.261 123.211 194.671 123.211C195.093 123.211 195.465 123.308 195.787 123.501C196.115 123.688 196.373 123.958 196.561 124.31C196.754 124.655 196.851 125.062 196.851 125.531C196.851 126 196.754 126.41 196.561 126.762C196.367 127.107 196.107 127.377 195.778 127.57C195.45 127.758 195.075 127.852 194.653 127.852ZM194.662 127.219C194.914 127.219 195.149 127.157 195.365 127.034C195.582 126.905 195.758 126.715 195.893 126.463C196.027 126.211 196.095 125.9 196.095 125.531C196.095 125.156 196.027 124.846 195.893 124.6C195.764 124.348 195.591 124.16 195.374 124.037C195.163 123.908 194.929 123.844 194.671 123.844C194.425 123.844 194.191 123.908 193.968 124.037C193.751 124.16 193.575 124.348 193.441 124.6C193.312 124.846 193.247 125.156 193.247 125.531C193.247 125.9 193.312 126.211 193.441 126.463C193.575 126.715 193.748 126.905 193.959 127.034C194.176 127.157 194.41 127.219 194.662 127.219ZM199.828 127.852C199.412 127.852 199.043 127.755 198.721 127.562C198.404 127.368 198.155 127.099 197.974 126.753C197.792 126.401 197.701 125.994 197.701 125.531C197.701 125.062 197.789 124.655 197.965 124.31C198.147 123.964 198.399 123.694 198.721 123.501C199.049 123.308 199.424 123.211 199.846 123.211C200.279 123.211 200.646 123.308 200.944 123.501C201.249 123.694 201.481 123.949 201.639 124.266C201.803 124.576 201.885 124.919 201.885 125.294C201.885 125.353 201.885 125.414 201.885 125.479C201.885 125.543 201.882 125.616 201.876 125.698H198.255V125.127H201.164C201.147 124.723 201.012 124.406 200.76 124.178C200.514 123.949 200.203 123.835 199.828 123.835C199.576 123.835 199.342 123.894 199.125 124.011C198.914 124.122 198.744 124.289 198.615 124.512C198.486 124.728 198.422 125.001 198.422 125.329V125.575C198.422 125.938 198.486 126.243 198.615 126.489C198.75 126.735 198.923 126.92 199.134 127.043C199.351 127.166 199.582 127.228 199.828 127.228C200.139 127.228 200.394 127.16 200.593 127.025C200.798 126.885 200.944 126.697 201.032 126.463H201.762C201.692 126.727 201.568 126.964 201.393 127.175C201.217 127.386 200.997 127.553 200.734 127.676C200.476 127.793 200.174 127.852 199.828 127.852Z" fill="#8F918F"/>
<rect x="125.851" y="147.219" width="81.3673" height="17.5782" rx="8.78912" fill="#095140"/>
<path d="M141.232 152.711L135.19 158.753L132.443 156.007" stroke="white" stroke-width="1.09864" stroke-linecap="round" stroke-linejoin="round"/>
<path d="M151.603 160.257C150.987 160.257 150.445 160.134 149.977 159.888C149.508 159.647 149.142 159.302 148.878 158.851C148.62 158.405 148.491 157.878 148.491 157.269C148.491 156.647 148.594 156.073 148.799 155.546C149.01 155.013 149.306 154.547 149.687 154.148C150.067 153.75 150.522 153.439 151.049 153.217C151.576 152.994 152.159 152.883 152.798 152.883C153.442 152.883 154.002 153.009 154.477 153.261C154.957 153.507 155.329 153.853 155.593 154.298C155.856 154.743 155.988 155.259 155.988 155.845C155.988 156.185 155.947 156.516 155.865 156.838C155.789 157.16 155.672 157.45 155.514 157.708C155.356 157.966 155.162 158.174 154.934 158.332C154.705 158.484 154.441 158.561 154.143 158.561C153.791 158.561 153.536 158.452 153.378 158.235C153.226 158.019 153.17 157.74 153.211 157.4L153.237 157.102L153.387 157.365C153.24 157.734 153.009 158.027 152.692 158.244C152.376 158.455 152.03 158.561 151.655 158.561C151.216 158.561 150.873 158.426 150.627 158.156C150.381 157.887 150.258 157.521 150.258 157.058C150.258 156.735 150.308 156.428 150.407 156.135C150.507 155.842 150.647 155.581 150.829 155.353C151.017 155.118 151.236 154.934 151.488 154.799C151.746 154.664 152.033 154.597 152.35 154.597C152.707 154.597 152.991 154.693 153.202 154.887C153.413 155.074 153.536 155.353 153.571 155.722L153.396 155.836L153.598 154.693H154.222L153.782 157.216C153.741 157.462 153.753 157.664 153.817 157.822C153.888 157.975 154.031 158.051 154.248 158.051C154.436 158.051 154.6 157.983 154.74 157.849C154.887 157.714 155.007 157.538 155.101 157.321C155.2 157.104 155.273 156.87 155.32 156.618C155.367 156.366 155.391 156.12 155.391 155.88C155.391 155.358 155.282 154.916 155.065 154.553C154.849 154.184 154.538 153.899 154.134 153.7C153.735 153.501 153.261 153.401 152.71 153.401C152.177 153.401 151.688 153.498 151.242 153.691C150.803 153.885 150.422 154.157 150.1 154.509C149.777 154.854 149.528 155.259 149.353 155.722C149.177 156.179 149.089 156.674 149.089 157.207C149.089 157.746 149.194 158.203 149.405 158.578C149.622 158.953 149.93 159.237 150.328 159.431C150.727 159.63 151.198 159.729 151.743 159.729C151.995 159.729 152.244 159.703 152.49 159.65C152.742 159.604 152.977 159.53 153.193 159.431L153.316 159.932C153.053 160.043 152.777 160.125 152.49 160.178C152.203 160.23 151.907 160.257 151.603 160.257ZM151.866 157.998C152.118 157.998 152.347 157.931 152.552 157.796C152.757 157.661 152.927 157.477 153.062 157.242C153.196 157.002 153.278 156.724 153.308 156.407C153.337 156.179 153.319 155.971 153.255 155.783C153.19 155.596 153.085 155.446 152.939 155.335C152.792 155.218 152.602 155.159 152.367 155.159C152.139 155.159 151.937 155.212 151.761 155.317C151.585 155.417 151.436 155.552 151.313 155.722C151.189 155.892 151.096 156.082 151.031 156.293C150.967 156.504 150.935 156.721 150.935 156.943C150.935 157.26 151.014 157.515 151.172 157.708C151.33 157.901 151.562 157.998 151.866 157.998ZM157.314 158.508V152.355H158.053V155.142L160.619 152.355H161.551L159.266 154.808L161.586 158.508H160.689L158.738 155.379L158.053 156.108V158.508H157.314ZM162.474 158.508V154.078H163.212V158.508H162.474ZM162.843 153.138C162.696 153.138 162.573 153.091 162.474 152.997C162.38 152.897 162.333 152.774 162.333 152.628C162.333 152.481 162.38 152.364 162.474 152.276C162.573 152.183 162.696 152.136 162.843 152.136C162.983 152.136 163.103 152.183 163.203 152.276C163.303 152.364 163.352 152.481 163.352 152.628C163.352 152.774 163.303 152.897 163.203 152.997C163.103 153.091 162.983 153.138 162.843 153.138ZM164.515 158.508V154.078H165.183L165.218 154.852C165.358 154.576 165.558 154.362 165.815 154.21C166.079 154.052 166.378 153.973 166.712 153.973C167.058 153.973 167.356 154.043 167.608 154.184C167.86 154.318 168.057 154.526 168.197 154.808C168.338 155.083 168.408 155.435 168.408 155.862V158.508H167.67V155.941C167.67 155.496 167.57 155.162 167.371 154.939C167.178 154.717 166.902 154.605 166.545 154.605C166.299 154.605 166.079 154.667 165.886 154.79C165.692 154.907 165.537 155.08 165.42 155.309C165.309 155.531 165.253 155.81 165.253 156.144V158.508H164.515ZM171.311 160.547C170.912 160.547 170.558 160.494 170.247 160.389C169.942 160.289 169.705 160.134 169.535 159.923C169.365 159.712 169.28 159.451 169.28 159.141C169.28 159.006 169.307 158.862 169.359 158.71C169.418 158.558 169.515 158.408 169.649 158.262C169.79 158.115 169.986 157.983 170.238 157.866L170.748 158.165C170.438 158.294 170.235 158.44 170.142 158.604C170.048 158.774 170.001 158.93 170.001 159.07C170.001 159.264 170.057 159.425 170.168 159.554C170.279 159.683 170.435 159.779 170.634 159.844C170.833 159.908 171.059 159.94 171.311 159.94C171.563 159.94 171.779 159.905 171.961 159.835C172.143 159.765 172.283 159.665 172.383 159.536C172.482 159.407 172.532 159.255 172.532 159.079C172.532 158.874 172.456 158.701 172.304 158.561C172.151 158.426 171.861 158.347 171.434 158.323C171.088 158.3 170.798 158.268 170.563 158.227C170.329 158.186 170.136 158.139 169.983 158.086C169.831 158.027 169.702 157.963 169.597 157.893C169.497 157.822 169.406 157.749 169.324 157.673V157.471L170.177 156.627L170.818 156.855L169.939 157.646L170.054 157.339C170.118 157.386 170.18 157.43 170.238 157.471C170.297 157.512 170.376 157.547 170.476 157.576C170.575 157.605 170.713 157.632 170.889 157.655C171.07 157.679 171.308 157.702 171.601 157.726C172.005 157.755 172.327 157.825 172.567 157.937C172.814 158.048 172.989 158.197 173.095 158.385C173.206 158.572 173.262 158.795 173.262 159.053C173.262 159.305 173.191 159.542 173.051 159.765C172.916 159.993 172.705 160.181 172.418 160.327C172.131 160.474 171.762 160.547 171.311 160.547ZM171.302 157.119C170.933 157.119 170.616 157.049 170.353 156.908C170.095 156.768 169.898 156.58 169.764 156.346C169.629 156.105 169.562 155.839 169.562 155.546C169.562 155.253 169.629 154.989 169.764 154.755C169.904 154.52 170.104 154.333 170.361 154.192C170.619 154.046 170.933 153.973 171.302 153.973C171.671 153.973 171.984 154.046 172.242 154.192C172.5 154.333 172.696 154.52 172.831 154.755C172.966 154.989 173.033 155.253 173.033 155.546C173.033 155.839 172.966 156.105 172.831 156.346C172.696 156.58 172.5 156.768 172.242 156.908C171.984 157.049 171.671 157.119 171.302 157.119ZM171.302 156.513C171.618 156.513 171.867 156.431 172.049 156.267C172.231 156.103 172.321 155.862 172.321 155.546C172.321 155.235 172.231 154.998 172.049 154.834C171.867 154.67 171.618 154.588 171.302 154.588C170.991 154.588 170.739 154.67 170.546 154.834C170.358 154.998 170.265 155.235 170.265 155.546C170.265 155.862 170.358 156.103 170.546 156.267C170.733 156.431 170.985 156.513 171.302 156.513ZM172.022 154.702L171.803 154.078H173.613V154.632L172.022 154.702ZM176.132 158.613C175.763 158.613 175.441 158.552 175.166 158.429C174.896 158.306 174.679 158.136 174.515 157.919C174.357 157.696 174.26 157.436 174.225 157.137H174.981C175.01 157.289 175.072 157.43 175.166 157.559C175.259 157.687 175.385 157.793 175.544 157.875C175.708 157.951 175.907 157.989 176.141 157.989C176.346 157.989 176.516 157.96 176.651 157.901C176.786 157.837 176.885 157.752 176.95 157.646C177.02 157.541 177.055 157.427 177.055 157.304C177.055 157.122 177.011 156.984 176.923 156.891C176.841 156.797 176.718 156.724 176.554 156.671C176.39 156.612 176.191 156.562 175.957 156.521C175.763 156.486 175.573 156.439 175.385 156.381C175.198 156.322 175.031 156.246 174.884 156.152C174.738 156.053 174.621 155.933 174.533 155.792C174.451 155.651 174.41 155.478 174.41 155.273C174.41 155.021 174.474 154.799 174.603 154.605C174.732 154.406 174.917 154.251 175.157 154.14C175.403 154.028 175.687 153.973 176.009 153.973C176.484 153.973 176.868 154.087 177.161 154.315C177.454 154.544 177.627 154.875 177.679 155.309H176.95C176.921 155.086 176.824 154.913 176.66 154.79C176.502 154.661 176.282 154.597 176.001 154.597C175.725 154.597 175.514 154.652 175.368 154.764C175.227 154.875 175.157 155.021 175.157 155.203C175.157 155.32 175.195 155.426 175.271 155.52C175.353 155.607 175.47 155.684 175.623 155.748C175.781 155.812 175.974 155.865 176.203 155.906C176.496 155.959 176.762 156.029 177.003 156.117C177.243 156.205 177.436 156.337 177.583 156.513C177.735 156.683 177.811 156.926 177.811 157.242C177.811 157.518 177.741 157.758 177.6 157.963C177.465 158.168 177.272 158.329 177.02 158.446C176.768 158.558 176.472 158.613 176.132 158.613ZM178.874 158.508V152.18H179.613V158.508H178.874ZM182.774 158.613C182.358 158.613 181.988 158.517 181.666 158.323C181.35 158.13 181.101 157.86 180.919 157.515C180.737 157.163 180.647 156.756 180.647 156.293C180.647 155.824 180.734 155.417 180.91 155.071C181.092 154.726 181.344 154.456 181.666 154.263C181.994 154.069 182.369 153.973 182.791 153.973C183.225 153.973 183.591 154.069 183.89 154.263C184.194 154.456 184.426 154.711 184.584 155.027C184.748 155.338 184.83 155.681 184.83 156.056C184.83 156.114 184.83 156.176 184.83 156.24C184.83 156.305 184.827 156.378 184.821 156.46H181.2V155.889H184.11C184.092 155.484 183.957 155.168 183.705 154.939C183.459 154.711 183.149 154.597 182.774 154.597C182.522 154.597 182.287 154.655 182.07 154.772C181.86 154.884 181.69 155.051 181.561 155.273C181.432 155.49 181.367 155.763 181.367 156.091V156.337C181.367 156.7 181.432 157.005 181.561 157.251C181.695 157.497 181.868 157.682 182.079 157.805C182.296 157.928 182.527 157.989 182.774 157.989C183.084 157.989 183.339 157.922 183.538 157.787C183.743 157.646 183.89 157.459 183.978 157.225H184.707C184.637 157.488 184.514 157.726 184.338 157.937C184.162 158.147 183.943 158.314 183.679 158.437C183.421 158.555 183.119 158.613 182.774 158.613ZM186.138 160.441L187.219 158.016H186.964L185.224 154.078H186.024L187.465 157.462L188.977 154.078H189.742L186.912 160.441H186.138ZM189.686 160.441V159.809H190.029C190.252 159.809 190.41 159.762 190.504 159.668C190.597 159.58 190.644 159.428 190.644 159.211V154.078H191.382V159.229C191.382 159.51 191.336 159.738 191.242 159.914C191.148 160.096 191.007 160.228 190.82 160.31C190.638 160.397 190.413 160.441 190.143 160.441H189.686ZM191.022 153.138C190.876 153.138 190.753 153.091 190.653 152.997C190.559 152.897 190.512 152.774 190.512 152.628C190.512 152.481 190.559 152.364 190.653 152.276C190.753 152.183 190.876 152.136 191.022 152.136C191.163 152.136 191.28 152.183 191.374 152.276C191.473 152.364 191.523 152.481 191.523 152.628C191.523 152.774 191.473 152.897 191.374 152.997C191.28 153.091 191.163 153.138 191.022 153.138ZM194.653 158.613C194.243 158.613 193.874 158.52 193.546 158.332C193.218 158.139 192.96 157.869 192.773 157.523C192.585 157.172 192.491 156.765 192.491 156.302C192.491 155.827 192.585 155.417 192.773 155.071C192.966 154.72 193.227 154.45 193.555 154.263C193.889 154.069 194.261 153.973 194.671 153.973C195.093 153.973 195.465 154.069 195.787 154.263C196.115 154.45 196.373 154.72 196.561 155.071C196.754 155.417 196.851 155.824 196.851 156.293C196.851 156.762 196.754 157.172 196.561 157.523C196.367 157.869 196.107 158.139 195.778 158.332C195.45 158.52 195.075 158.613 194.653 158.613ZM194.662 157.98C194.914 157.98 195.149 157.919 195.365 157.796C195.582 157.667 195.758 157.477 195.893 157.225C196.027 156.973 196.095 156.662 196.095 156.293C196.095 155.918 196.027 155.607 195.893 155.361C195.764 155.109 195.591 154.922 195.374 154.799C195.163 154.67 194.929 154.605 194.671 154.605C194.425 154.605 194.191 154.67 193.968 154.799C193.751 154.922 193.575 155.109 193.441 155.361C193.312 155.607 193.247 155.918 193.247 156.293C193.247 156.662 193.312 156.973 193.441 157.225C193.575 157.477 193.748 157.667 193.959 157.796C194.176 157.919 194.41 157.98 194.662 157.98ZM199.828 158.613C199.412 158.613 199.043 158.517 198.721 158.323C198.404 158.13 198.155 157.86 197.974 157.515C197.792 157.163 197.701 156.756 197.701 156.293C197.701 155.824 197.789 155.417 197.965 155.071C198.147 154.726 198.399 154.456 198.721 154.263C199.049 154.069 199.424 153.973 199.846 153.973C200.279 153.973 200.646 154.069 200.944 154.263C201.249 154.456 201.481 154.711 201.639 155.027C201.803 155.338 201.885 155.681 201.885 156.056C201.885 156.114 201.885 156.176 201.885 156.24C201.885 156.305 201.882 156.378 201.876 156.46H198.255V155.889H201.164C201.147 155.484 201.012 155.168 200.76 154.939C200.514 154.711 200.203 154.597 199.828 154.597C199.576 154.597 199.342 154.655 199.125 154.772C198.914 154.884 198.744 155.051 198.615 155.273C198.486 155.49 198.422 155.763 198.422 156.091V156.337C198.422 156.7 198.486 157.005 198.615 157.251C198.75 157.497 198.923 157.682 199.134 157.805C199.351 157.928 199.582 157.989 199.828 157.989C200.139 157.989 200.394 157.922 200.593 157.787C200.798 157.646 200.944 157.459 201.032 157.225H201.762C201.692 157.488 201.568 157.726 201.393 157.937C201.217 158.147 200.997 158.314 200.734 158.437C200.476 158.555 200.174 158.613 199.828 158.613Z" fill="white"/>
<rect x="220.333" y="116.457" width="81.3673" height="17.5782" rx="8.78912" fill="#095140"/>
<path d="M235.714 121.949L229.671 127.992L226.925 125.245" stroke="white" stroke-width="1.09864" stroke-linecap="round" stroke-linejoin="round"/>
<path d="M246.085 129.495C245.47 129.495 244.928 129.372 244.459 129.126C243.991 128.886 243.625 128.54 243.361 128.089C243.103 127.644 242.974 127.116 242.974 126.507C242.974 125.886 243.077 125.312 243.282 124.784C243.493 124.251 243.789 123.785 244.169 123.387C244.55 122.988 245.004 122.678 245.532 122.455C246.059 122.232 246.642 122.121 247.281 122.121C247.925 122.121 248.485 122.247 248.96 122.499C249.44 122.745 249.812 123.091 250.076 123.536C250.339 123.981 250.471 124.497 250.471 125.083C250.471 125.423 250.43 125.754 250.348 126.076C250.272 126.398 250.155 126.688 249.997 126.946C249.838 127.204 249.645 127.412 249.417 127.57C249.188 127.723 248.924 127.799 248.626 127.799C248.274 127.799 248.019 127.69 247.861 127.474C247.709 127.257 247.653 126.979 247.694 126.639L247.72 126.34L247.87 126.604C247.723 126.973 247.492 127.266 247.175 127.482C246.859 127.693 246.513 127.799 246.138 127.799C245.699 127.799 245.356 127.664 245.11 127.395C244.864 127.125 244.741 126.759 244.741 126.296C244.741 125.974 244.791 125.666 244.89 125.373C244.99 125.08 245.13 124.819 245.312 124.591C245.5 124.356 245.719 124.172 245.971 124.037C246.229 123.902 246.516 123.835 246.833 123.835C247.19 123.835 247.474 123.932 247.685 124.125C247.896 124.312 248.019 124.591 248.054 124.96L247.878 125.074L248.081 123.932H248.705L248.265 126.454C248.224 126.7 248.236 126.902 248.3 127.061C248.371 127.213 248.514 127.289 248.731 127.289C248.918 127.289 249.083 127.222 249.223 127.087C249.37 126.952 249.49 126.776 249.584 126.56C249.683 126.343 249.756 126.108 249.803 125.856C249.85 125.604 249.874 125.358 249.874 125.118C249.874 124.597 249.765 124.154 249.548 123.791C249.332 123.422 249.021 123.138 248.617 122.938C248.218 122.739 247.744 122.64 247.193 122.64C246.66 122.64 246.17 122.736 245.725 122.93C245.286 123.123 244.905 123.395 244.583 123.747C244.26 124.093 244.011 124.497 243.835 124.96C243.66 125.417 243.572 125.912 243.572 126.445C243.572 126.984 243.677 127.441 243.888 127.816C244.105 128.191 244.413 128.476 244.811 128.669C245.209 128.868 245.681 128.968 246.226 128.968C246.478 128.968 246.727 128.941 246.973 128.889C247.225 128.842 247.46 128.769 247.676 128.669L247.799 129.17C247.536 129.281 247.26 129.363 246.973 129.416C246.686 129.469 246.39 129.495 246.085 129.495ZM246.349 127.236C246.601 127.236 246.83 127.169 247.035 127.034C247.24 126.899 247.41 126.715 247.544 126.48C247.679 126.24 247.761 125.962 247.791 125.645C247.82 125.417 247.802 125.209 247.738 125.021C247.673 124.834 247.568 124.685 247.421 124.573C247.275 124.456 247.085 124.397 246.85 124.397C246.622 124.397 246.419 124.45 246.244 124.556C246.068 124.655 245.918 124.79 245.795 124.96C245.672 125.13 245.579 125.32 245.514 125.531C245.45 125.742 245.417 125.959 245.417 126.182C245.417 126.498 245.497 126.753 245.655 126.946C245.813 127.14 246.044 127.236 246.349 127.236ZM251.797 127.746V121.594H252.536V124.38L255.102 121.594H256.034L253.749 124.046L256.069 127.746H255.172L253.221 124.617L252.536 125.347V127.746H251.797ZM256.956 127.746V123.316H257.695V127.746H256.956ZM257.326 122.376C257.179 122.376 257.056 122.329 256.956 122.235C256.863 122.136 256.816 122.013 256.816 121.866C256.816 121.72 256.863 121.603 256.956 121.515C257.056 121.421 257.179 121.374 257.326 121.374C257.466 121.374 257.586 121.421 257.686 121.515C257.786 121.603 257.835 121.72 257.835 121.866C257.835 122.013 257.786 122.136 257.686 122.235C257.586 122.329 257.466 122.376 257.326 122.376ZM258.998 127.746V123.316H259.666L259.701 124.09C259.841 123.814 260.041 123.601 260.298 123.448C260.562 123.29 260.861 123.211 261.195 123.211C261.541 123.211 261.839 123.281 262.091 123.422C262.343 123.557 262.54 123.765 262.68 124.046C262.821 124.321 262.891 124.673 262.891 125.101V127.746H262.153V125.18C262.153 124.734 262.053 124.4 261.854 124.178C261.661 123.955 261.385 123.844 261.028 123.844C260.782 123.844 260.562 123.905 260.369 124.028C260.175 124.145 260.02 124.318 259.903 124.547C259.792 124.77 259.736 125.048 259.736 125.382V127.746H258.998ZM265.793 129.785C265.395 129.785 265.041 129.732 264.73 129.627C264.425 129.527 264.188 129.372 264.018 129.161C263.848 128.95 263.763 128.689 263.763 128.379C263.763 128.244 263.79 128.101 263.842 127.948C263.901 127.796 263.998 127.646 264.132 127.5C264.273 127.354 264.469 127.222 264.721 127.104L265.231 127.403C264.92 127.532 264.718 127.679 264.625 127.843C264.531 128.013 264.484 128.168 264.484 128.309C264.484 128.502 264.54 128.663 264.651 128.792C264.762 128.921 264.918 129.018 265.117 129.082C265.316 129.146 265.542 129.179 265.793 129.179C266.045 129.179 266.262 129.144 266.444 129.073C266.626 129.003 266.766 128.903 266.866 128.774C266.965 128.646 267.015 128.493 267.015 128.317C267.015 128.112 266.939 127.939 266.787 127.799C266.634 127.664 266.344 127.585 265.917 127.562C265.571 127.538 265.281 127.506 265.046 127.465C264.812 127.424 264.619 127.377 264.466 127.324C264.314 127.266 264.185 127.201 264.08 127.131C263.98 127.061 263.889 126.987 263.807 126.911V126.709L264.66 125.865L265.301 126.094L264.422 126.885L264.537 126.577C264.601 126.624 264.663 126.668 264.721 126.709C264.78 126.75 264.859 126.785 264.959 126.814C265.058 126.844 265.196 126.87 265.372 126.894C265.553 126.917 265.791 126.94 266.084 126.964C266.488 126.993 266.81 127.063 267.05 127.175C267.296 127.286 267.472 127.436 267.578 127.623C267.689 127.811 267.745 128.033 267.745 128.291C267.745 128.543 267.674 128.78 267.534 129.003C267.399 129.231 267.188 129.419 266.901 129.565C266.614 129.712 266.245 129.785 265.793 129.785ZM265.785 126.357C265.416 126.357 265.099 126.287 264.835 126.146C264.578 126.006 264.381 125.818 264.247 125.584C264.112 125.344 264.044 125.077 264.044 124.784C264.044 124.491 264.112 124.228 264.247 123.993C264.387 123.759 264.586 123.571 264.844 123.431C265.102 123.284 265.416 123.211 265.785 123.211C266.154 123.211 266.467 123.284 266.725 123.431C266.983 123.571 267.179 123.759 267.314 123.993C267.449 124.228 267.516 124.491 267.516 124.784C267.516 125.077 267.449 125.344 267.314 125.584C267.179 125.818 266.983 126.006 266.725 126.146C266.467 126.287 266.154 126.357 265.785 126.357ZM265.785 125.751C266.101 125.751 266.35 125.669 266.532 125.505C266.713 125.341 266.804 125.101 266.804 124.784C266.804 124.474 266.713 124.236 266.532 124.072C266.35 123.908 266.101 123.826 265.785 123.826C265.474 123.826 265.222 123.908 265.029 124.072C264.841 124.236 264.748 124.474 264.748 124.784C264.748 125.101 264.841 125.341 265.029 125.505C265.216 125.669 265.468 125.751 265.785 125.751ZM266.505 123.94L266.286 123.316H268.096V123.87L266.505 123.94ZM270.615 127.852C270.246 127.852 269.924 127.79 269.649 127.667C269.379 127.544 269.162 127.374 268.998 127.157C268.84 126.935 268.743 126.674 268.708 126.375H269.464C269.493 126.527 269.555 126.668 269.649 126.797C269.742 126.926 269.868 127.031 270.026 127.113C270.191 127.189 270.39 127.228 270.624 127.228C270.829 127.228 270.999 127.198 271.134 127.14C271.269 127.075 271.368 126.99 271.433 126.885C271.503 126.779 271.538 126.665 271.538 126.542C271.538 126.36 271.494 126.223 271.406 126.129C271.324 126.035 271.201 125.962 271.037 125.909C270.873 125.851 270.674 125.801 270.44 125.76C270.246 125.725 270.056 125.678 269.868 125.619C269.681 125.561 269.514 125.484 269.367 125.391C269.221 125.291 269.104 125.171 269.016 125.03C268.934 124.89 268.893 124.717 268.893 124.512C268.893 124.26 268.957 124.037 269.086 123.844C269.215 123.645 269.4 123.489 269.64 123.378C269.886 123.267 270.17 123.211 270.492 123.211C270.967 123.211 271.351 123.325 271.644 123.554C271.937 123.782 272.109 124.113 272.162 124.547H271.433C271.403 124.324 271.307 124.151 271.143 124.028C270.984 123.899 270.765 123.835 270.484 123.835C270.208 123.835 269.997 123.891 269.851 124.002C269.71 124.113 269.64 124.26 269.64 124.441C269.64 124.559 269.678 124.664 269.754 124.758C269.836 124.846 269.953 124.922 270.106 124.986C270.264 125.051 270.457 125.103 270.686 125.145C270.979 125.197 271.245 125.268 271.485 125.355C271.726 125.443 271.919 125.575 272.066 125.751C272.218 125.921 272.294 126.164 272.294 126.48C272.294 126.756 272.224 126.996 272.083 127.201C271.948 127.406 271.755 127.567 271.503 127.685C271.251 127.796 270.955 127.852 270.615 127.852ZM273.357 127.746V121.418H274.095V127.746H273.357ZM277.256 127.852C276.84 127.852 276.471 127.755 276.149 127.562C275.833 127.368 275.584 127.099 275.402 126.753C275.22 126.401 275.13 125.994 275.13 125.531C275.13 125.062 275.217 124.655 275.393 124.31C275.575 123.964 275.827 123.694 276.149 123.501C276.477 123.308 276.852 123.211 277.274 123.211C277.708 123.211 278.074 123.308 278.373 123.501C278.677 123.694 278.909 123.949 279.067 124.266C279.231 124.576 279.313 124.919 279.313 125.294C279.313 125.353 279.313 125.414 279.313 125.479C279.313 125.543 279.31 125.616 279.304 125.698H275.683V125.127H278.592C278.575 124.723 278.44 124.406 278.188 124.178C277.942 123.949 277.631 123.835 277.256 123.835C277.005 123.835 276.77 123.894 276.553 124.011C276.342 124.122 276.172 124.289 276.044 124.512C275.915 124.728 275.85 125.001 275.85 125.329V125.575C275.85 125.938 275.915 126.243 276.044 126.489C276.178 126.735 276.351 126.92 276.562 127.043C276.779 127.166 277.01 127.228 277.256 127.228C277.567 127.228 277.822 127.16 278.021 127.025C278.226 126.885 278.373 126.697 278.461 126.463H279.19C279.12 126.727 278.997 126.964 278.821 127.175C278.645 127.386 278.425 127.553 278.162 127.676C277.904 127.793 277.602 127.852 277.256 127.852ZM280.621 129.68L281.702 127.254H281.447L279.707 123.316H280.507L281.948 126.7L283.46 123.316H284.225L281.395 129.68H280.621ZM284.169 129.68V129.047H284.512C284.734 129.047 284.893 129 284.986 128.906C285.08 128.818 285.127 128.666 285.127 128.449V123.316H285.865V128.467C285.865 128.748 285.818 128.977 285.725 129.152C285.631 129.334 285.49 129.466 285.303 129.548C285.121 129.636 284.896 129.68 284.626 129.68H284.169ZM285.505 122.376C285.359 122.376 285.235 122.329 285.136 122.235C285.042 122.136 284.995 122.013 284.995 121.866C284.995 121.72 285.042 121.603 285.136 121.515C285.235 121.421 285.359 121.374 285.505 121.374C285.646 121.374 285.763 121.421 285.857 121.515C285.956 121.603 286.006 121.72 286.006 121.866C286.006 122.013 285.956 122.136 285.857 122.235C285.763 122.329 285.646 122.376 285.505 122.376ZM289.136 127.852C288.726 127.852 288.357 127.758 288.029 127.57C287.701 127.377 287.443 127.107 287.255 126.762C287.068 126.41 286.974 126.003 286.974 125.54C286.974 125.065 287.068 124.655 287.255 124.31C287.449 123.958 287.71 123.688 288.038 123.501C288.372 123.308 288.744 123.211 289.154 123.211C289.576 123.211 289.948 123.308 290.27 123.501C290.598 123.688 290.856 123.958 291.044 124.31C291.237 124.655 291.334 125.062 291.334 125.531C291.334 126 291.237 126.41 291.044 126.762C290.85 127.107 290.589 127.377 290.261 127.57C289.933 127.758 289.558 127.852 289.136 127.852ZM289.145 127.219C289.397 127.219 289.631 127.157 289.848 127.034C290.065 126.905 290.241 126.715 290.376 126.463C290.51 126.211 290.578 125.9 290.578 125.531C290.578 125.156 290.51 124.846 290.376 124.6C290.247 124.348 290.074 124.16 289.857 124.037C289.646 123.908 289.412 123.844 289.154 123.844C288.908 123.844 288.673 123.908 288.451 124.037C288.234 124.16 288.058 124.348 287.923 124.6C287.795 124.846 287.73 125.156 287.73 125.531C287.73 125.9 287.795 126.211 287.923 126.463C288.058 126.715 288.231 126.905 288.442 127.034C288.659 127.157 288.893 127.219 289.145 127.219ZM294.311 127.852C293.895 127.852 293.526 127.755 293.204 127.562C292.887 127.368 292.638 127.099 292.457 126.753C292.275 126.401 292.184 125.994 292.184 125.531C292.184 125.062 292.272 124.655 292.448 124.31C292.629 123.964 292.881 123.694 293.204 123.501C293.532 123.308 293.907 123.211 294.329 123.211C294.762 123.211 295.129 123.308 295.427 123.501C295.732 123.694 295.963 123.949 296.122 124.266C296.286 124.576 296.368 124.919 296.368 125.294C296.368 125.353 296.368 125.414 296.368 125.479C296.368 125.543 296.365 125.616 296.359 125.698H292.738V125.127H295.647C295.63 124.723 295.495 124.406 295.243 124.178C294.997 123.949 294.686 123.835 294.311 123.835C294.059 123.835 293.825 123.894 293.608 124.011C293.397 124.122 293.227 124.289 293.098 124.512C292.969 124.728 292.905 125.001 292.905 125.329V125.575C292.905 125.938 292.969 126.243 293.098 126.489C293.233 126.735 293.406 126.92 293.617 127.043C293.834 127.166 294.065 127.228 294.311 127.228C294.622 127.228 294.877 127.16 295.076 127.025C295.281 126.885 295.427 126.697 295.515 126.463H296.245C296.174 126.727 296.051 126.964 295.876 127.175C295.7 127.386 295.48 127.553 295.216 127.676C294.959 127.793 294.657 127.852 294.311 127.852Z" fill="white"/>
<rect x="220.333" y="147.219" width="81.3673" height="17.5782" rx="8.78912" fill="#FAFAFA"/>
<path d="M235.715 153.261L230.222 158.754L227.475 156.007" stroke="#119111" stroke-width="1.09864" stroke-linecap="round" stroke-linejoin="round"/>
<path d="M246.085 160.257C245.47 160.257 244.928 160.134 244.459 159.888C243.991 159.647 243.625 159.302 243.361 158.851C243.103 158.405 242.974 157.878 242.974 157.269C242.974 156.647 243.077 156.073 243.282 155.546C243.493 155.013 243.789 154.547 244.169 154.148C244.55 153.75 245.004 153.439 245.532 153.217C246.059 152.994 246.642 152.883 247.281 152.883C247.925 152.883 248.485 153.009 248.96 153.261C249.44 153.507 249.812 153.853 250.076 154.298C250.339 154.743 250.471 155.259 250.471 155.845C250.471 156.185 250.43 156.516 250.348 156.838C250.272 157.16 250.155 157.45 249.997 157.708C249.838 157.966 249.645 158.174 249.417 158.332C249.188 158.484 248.924 158.561 248.626 158.561C248.274 158.561 248.019 158.452 247.861 158.235C247.709 158.019 247.653 157.74 247.694 157.4L247.72 157.102L247.87 157.365C247.723 157.734 247.492 158.027 247.175 158.244C246.859 158.455 246.513 158.561 246.138 158.561C245.699 158.561 245.356 158.426 245.11 158.156C244.864 157.887 244.741 157.521 244.741 157.058C244.741 156.735 244.791 156.428 244.89 156.135C244.99 155.842 245.13 155.581 245.312 155.353C245.5 155.118 245.719 154.934 245.971 154.799C246.229 154.664 246.516 154.597 246.833 154.597C247.19 154.597 247.474 154.693 247.685 154.887C247.896 155.074 248.019 155.353 248.054 155.722L247.878 155.836L248.081 154.693H248.705L248.265 157.216C248.224 157.462 248.236 157.664 248.3 157.822C248.371 157.975 248.514 158.051 248.731 158.051C248.918 158.051 249.083 157.983 249.223 157.849C249.37 157.714 249.49 157.538 249.584 157.321C249.683 157.104 249.756 156.87 249.803 156.618C249.85 156.366 249.874 156.12 249.874 155.88C249.874 155.358 249.765 154.916 249.548 154.553C249.332 154.184 249.021 153.899 248.617 153.7C248.218 153.501 247.744 153.401 247.193 153.401C246.66 153.401 246.17 153.498 245.725 153.691C245.286 153.885 244.905 154.157 244.583 154.509C244.26 154.854 244.011 155.259 243.835 155.722C243.66 156.179 243.572 156.674 243.572 157.207C243.572 157.746 243.677 158.203 243.888 158.578C244.105 158.953 244.413 159.237 244.811 159.431C245.209 159.63 245.681 159.729 246.226 159.729C246.478 159.729 246.727 159.703 246.973 159.65C247.225 159.604 247.46 159.53 247.676 159.431L247.799 159.932C247.536 160.043 247.26 160.125 246.973 160.178C246.686 160.23 246.39 160.257 246.085 160.257ZM246.349 157.998C246.601 157.998 246.83 157.931 247.035 157.796C247.24 157.661 247.41 157.477 247.544 157.242C247.679 157.002 247.761 156.724 247.791 156.407C247.82 156.179 247.802 155.971 247.738 155.783C247.673 155.596 247.568 155.446 247.421 155.335C247.275 155.218 247.085 155.159 246.85 155.159C246.622 155.159 246.419 155.212 246.244 155.317C246.068 155.417 245.918 155.552 245.795 155.722C245.672 155.892 245.579 156.082 245.514 156.293C245.45 156.504 245.417 156.721 245.417 156.943C245.417 157.26 245.497 157.515 245.655 157.708C245.813 157.901 246.044 157.998 246.349 157.998ZM251.797 158.508V152.355H252.536V155.142L255.102 152.355H256.034L253.749 154.808L256.069 158.508H255.172L253.221 155.379L252.536 156.108V158.508H251.797ZM256.956 158.508V154.078H257.695V158.508H256.956ZM257.326 153.138C257.179 153.138 257.056 153.091 256.956 152.997C256.863 152.897 256.816 152.774 256.816 152.628C256.816 152.481 256.863 152.364 256.956 152.276C257.056 152.183 257.179 152.136 257.326 152.136C257.466 152.136 257.586 152.183 257.686 152.276C257.786 152.364 257.835 152.481 257.835 152.628C257.835 152.774 257.786 152.897 257.686 152.997C257.586 153.091 257.466 153.138 257.326 153.138ZM258.998 158.508V154.078H259.666L259.701 154.852C259.841 154.576 260.041 154.362 260.298 154.21C260.562 154.052 260.861 153.973 261.195 153.973C261.541 153.973 261.839 154.043 262.091 154.184C262.343 154.318 262.54 154.526 262.68 154.808C262.821 155.083 262.891 155.435 262.891 155.862V158.508H262.153V155.941C262.153 155.496 262.053 155.162 261.854 154.939C261.661 154.717 261.385 154.605 261.028 154.605C260.782 154.605 260.562 154.667 260.369 154.79C260.175 154.907 260.02 155.08 259.903 155.309C259.792 155.531 259.736 155.81 259.736 156.144V158.508H258.998ZM265.793 160.547C265.395 160.547 265.041 160.494 264.73 160.389C264.425 160.289 264.188 160.134 264.018 159.923C263.848 159.712 263.763 159.451 263.763 159.141C263.763 159.006 263.79 158.862 263.842 158.71C263.901 158.558 263.998 158.408 264.132 158.262C264.273 158.115 264.469 157.983 264.721 157.866L265.231 158.165C264.92 158.294 264.718 158.44 264.625 158.604C264.531 158.774 264.484 158.93 264.484 159.07C264.484 159.264 264.54 159.425 264.651 159.554C264.762 159.683 264.918 159.779 265.117 159.844C265.316 159.908 265.542 159.94 265.793 159.94C266.045 159.94 266.262 159.905 266.444 159.835C266.626 159.765 266.766 159.665 266.866 159.536C266.965 159.407 267.015 159.255 267.015 159.079C267.015 158.874 266.939 158.701 266.787 158.561C266.634 158.426 266.344 158.347 265.917 158.323C265.571 158.3 265.281 158.268 265.046 158.227C264.812 158.186 264.619 158.139 264.466 158.086C264.314 158.027 264.185 157.963 264.08 157.893C263.98 157.822 263.889 157.749 263.807 157.673V157.471L264.66 156.627L265.301 156.855L264.422 157.646L264.537 157.339C264.601 157.386 264.663 157.43 264.721 157.471C264.78 157.512 264.859 157.547 264.959 157.576C265.058 157.605 265.196 157.632 265.372 157.655C265.553 157.679 265.791 157.702 266.084 157.726C266.488 157.755 266.81 157.825 267.05 157.937C267.296 158.048 267.472 158.197 267.578 158.385C267.689 158.572 267.745 158.795 267.745 159.053C267.745 159.305 267.674 159.542 267.534 159.765C267.399 159.993 267.188 160.181 266.901 160.327C266.614 160.474 266.245 160.547 265.793 160.547ZM265.785 157.119C265.416 157.119 265.099 157.049 264.835 156.908C264.578 156.768 264.381 156.58 264.247 156.346C264.112 156.105 264.044 155.839 264.044 155.546C264.044 155.253 264.112 154.989 264.247 154.755C264.387 154.52 264.586 154.333 264.844 154.192C265.102 154.046 265.416 153.973 265.785 153.973C266.154 153.973 266.467 154.046 266.725 154.192C266.983 154.333 267.179 154.52 267.314 154.755C267.449 154.989 267.516 155.253 267.516 155.546C267.516 155.839 267.449 156.105 267.314 156.346C267.179 156.58 266.983 156.768 266.725 156.908C266.467 157.049 266.154 157.119 265.785 157.119ZM265.785 156.513C266.101 156.513 266.35 156.431 266.532 156.267C266.713 156.103 266.804 155.862 266.804 155.546C266.804 155.235 266.713 154.998 266.532 154.834C266.35 154.67 266.101 154.588 265.785 154.588C265.474 154.588 265.222 154.67 265.029 154.834C264.841 154.998 264.748 155.235 264.748 155.546C264.748 155.862 264.841 156.103 265.029 156.267C265.216 156.431 265.468 156.513 265.785 156.513ZM266.505 154.702L266.286 154.078H268.096V154.632L266.505 154.702ZM270.615 158.613C270.246 158.613 269.924 158.552 269.649 158.429C269.379 158.306 269.162 158.136 268.998 157.919C268.84 157.696 268.743 157.436 268.708 157.137H269.464C269.493 157.289 269.555 157.43 269.649 157.559C269.742 157.687 269.868 157.793 270.026 157.875C270.191 157.951 270.39 157.989 270.624 157.989C270.829 157.989 270.999 157.96 271.134 157.901C271.269 157.837 271.368 157.752 271.433 157.646C271.503 157.541 271.538 157.427 271.538 157.304C271.538 157.122 271.494 156.984 271.406 156.891C271.324 156.797 271.201 156.724 271.037 156.671C270.873 156.612 270.674 156.562 270.44 156.521C270.246 156.486 270.056 156.439 269.868 156.381C269.681 156.322 269.514 156.246 269.367 156.152C269.221 156.053 269.104 155.933 269.016 155.792C268.934 155.651 268.893 155.478 268.893 155.273C268.893 155.021 268.957 154.799 269.086 154.605C269.215 154.406 269.4 154.251 269.64 154.14C269.886 154.028 270.17 153.973 270.492 153.973C270.967 153.973 271.351 154.087 271.644 154.315C271.937 154.544 272.109 154.875 272.162 155.309H271.433C271.403 155.086 271.307 154.913 271.143 154.79C270.984 154.661 270.765 154.597 270.484 154.597C270.208 154.597 269.997 154.652 269.851 154.764C269.71 154.875 269.64 155.021 269.64 155.203C269.64 155.32 269.678 155.426 269.754 155.52C269.836 155.607 269.953 155.684 270.106 155.748C270.264 155.812 270.457 155.865 270.686 155.906C270.979 155.959 271.245 156.029 271.485 156.117C271.726 156.205 271.919 156.337 272.066 156.513C272.218 156.683 272.294 156.926 272.294 157.242C272.294 157.518 272.224 157.758 272.083 157.963C271.948 158.168 271.755 158.329 271.503 158.446C271.251 158.558 270.955 158.613 270.615 158.613ZM273.357 158.508V152.18H274.095V158.508H273.357ZM277.256 158.613C276.84 158.613 276.471 158.517 276.149 158.323C275.833 158.13 275.584 157.86 275.402 157.515C275.22 157.163 275.13 156.756 275.13 156.293C275.13 155.824 275.217 155.417 275.393 155.071C275.575 154.726 275.827 154.456 276.149 154.263C276.477 154.069 276.852 153.973 277.274 153.973C277.708 153.973 278.074 154.069 278.373 154.263C278.677 154.456 278.909 154.711 279.067 155.027C279.231 155.338 279.313 155.681 279.313 156.056C279.313 156.114 279.313 156.176 279.313 156.24C279.313 156.305 279.31 156.378 279.304 156.46H275.683V155.889H278.592C278.575 155.484 278.44 155.168 278.188 154.939C277.942 154.711 277.631 154.597 277.256 154.597C277.005 154.597 276.77 154.655 276.553 154.772C276.342 154.884 276.172 155.051 276.044 155.273C275.915 155.49 275.85 155.763 275.85 156.091V156.337C275.85 156.7 275.915 157.005 276.044 157.251C276.178 157.497 276.351 157.682 276.562 157.805C276.779 157.928 277.01 157.989 277.256 157.989C277.567 157.989 277.822 157.922 278.021 157.787C278.226 157.646 278.373 157.459 278.461 157.225H279.19C279.12 157.488 278.997 157.726 278.821 157.937C278.645 158.147 278.425 158.314 278.162 158.437C277.904 158.555 277.602 158.613 277.256 158.613ZM280.621 160.441L281.702 158.016H281.447L279.707 154.078H280.507L281.948 157.462L283.46 154.078H284.225L281.395 160.441H280.621ZM284.169 160.441V159.809H284.512C284.734 159.809 284.893 159.762 284.986 159.668C285.08 159.58 285.127 159.428 285.127 159.211V154.078H285.865V159.229C285.865 159.51 285.818 159.738 285.725 159.914C285.631 160.096 285.49 160.228 285.303 160.31C285.121 160.397 284.896 160.441 284.626 160.441H284.169ZM285.505 153.138C285.359 153.138 285.235 153.091 285.136 152.997C285.042 152.897 284.995 152.774 284.995 152.628C284.995 152.481 285.042 152.364 285.136 152.276C285.235 152.183 285.359 152.136 285.505 152.136C285.646 152.136 285.763 152.183 285.857 152.276C285.956 152.364 286.006 152.481 286.006 152.628C286.006 152.774 285.956 152.897 285.857 152.997C285.763 153.091 285.646 153.138 285.505 153.138ZM289.136 158.613C288.726 158.613 288.357 158.52 288.029 158.332C287.701 158.139 287.443 157.869 287.255 157.523C287.068 157.172 286.974 156.765 286.974 156.302C286.974 155.827 287.068 155.417 287.255 155.071C287.449 154.72 287.71 154.45 288.038 154.263C288.372 154.069 288.744 153.973 289.154 153.973C289.576 153.973 289.948 154.069 290.27 154.263C290.598 154.45 290.856 154.72 291.044 155.071C291.237 155.417 291.334 155.824 291.334 156.293C291.334 156.762 291.237 157.172 291.044 157.523C290.85 157.869 290.589 158.139 290.261 158.332C289.933 158.52 289.558 158.613 289.136 158.613ZM289.145 157.98C289.397 157.98 289.631 157.919 289.848 157.796C290.065 157.667 290.241 157.477 290.376 157.225C290.51 156.973 290.578 156.662 290.578 156.293C290.578 155.918 290.51 155.607 290.376 155.361C290.247 155.109 290.074 154.922 289.857 154.799C289.646 154.67 289.412 154.605 289.154 154.605C288.908 154.605 288.673 154.67 288.451 154.799C288.234 154.922 288.058 155.109 287.923 155.361C287.795 155.607 287.73 155.918 287.73 156.293C287.73 156.662 287.795 156.973 287.923 157.225C288.058 157.477 288.231 157.667 288.442 157.796C288.659 157.919 288.893 157.98 289.145 157.98ZM294.311 158.613C293.895 158.613 293.526 158.517 293.204 158.323C292.887 158.13 292.638 157.86 292.457 157.515C292.275 157.163 292.184 156.756 292.184 156.293C292.184 155.824 292.272 155.417 292.448 155.071C292.629 154.726 292.881 154.456 293.204 154.263C293.532 154.069 293.907 153.973 294.329 153.973C294.762 153.973 295.129 154.069 295.427 154.263C295.732 154.456 295.963 154.711 296.122 155.027C296.286 155.338 296.368 155.681 296.368 156.056C296.368 156.114 296.368 156.176 296.368 156.24C296.368 156.305 296.365 156.378 296.359 156.46H292.738V155.889H295.647C295.63 155.484 295.495 155.168 295.243 154.939C294.997 154.711 294.686 154.597 294.311 154.597C294.059 154.597 293.825 154.655 293.608 154.772C293.397 154.884 293.227 155.051 293.098 155.273C292.969 155.49 292.905 155.763 292.905 156.091V156.337C292.905 156.7 292.969 157.005 293.098 157.251C293.233 157.497 293.406 157.682 293.617 157.805C293.834 157.928 294.065 157.989 294.311 157.989C294.622 157.989 294.877 157.922 295.076 157.787C295.281 157.646 295.427 157.459 295.515 157.225H296.245C296.174 157.488 296.051 157.726 295.876 157.937C295.7 158.147 295.48 158.314 295.216 158.437C294.959 158.555 294.657 158.613 294.311 158.613Z" fill="#8F918F"/>
</g>
<path d="M170.122 91.1873V61.173M170.122 61.173L224.728 36.2554M170.122 61.173L112 36.2554" stroke="#CAC4D0" stroke-width="1.09864"/>
<circle cx="237.911" cy="31.8604" r="12.6344" stroke="#CAC4D0" stroke-width="1.09864"/>
<path d="M244.577 32.2271L245.602 33.2598L240.819 38.0865L238.278 35.523L239.303 34.4903L240.819 36.0137L244.577 32.2271ZM237.179 26.0015C237.956 26.0015 238.701 26.3101 239.251 26.8596C239.8 27.409 240.109 28.1542 240.109 28.9312C240.109 29.7082 239.8 30.4534 239.251 31.0028C238.701 31.5522 237.956 31.8609 237.179 31.8609C236.402 31.8609 235.657 31.5522 235.108 31.0028C234.558 30.4534 234.25 29.7082 234.25 28.9312C234.25 28.1542 234.558 27.409 235.108 26.8596C235.657 26.3101 236.402 26.0015 237.179 26.0015ZM237.179 27.4663C236.791 27.4663 236.418 27.6206 236.143 27.8954C235.869 28.1701 235.714 28.5427 235.714 28.9312C235.714 29.3197 235.869 29.6923 236.143 29.967C236.418 30.2417 236.791 30.396 237.179 30.396C237.568 30.396 237.94 30.2417 238.215 29.967C238.49 29.6923 238.644 29.3197 238.644 28.9312C238.644 28.5427 238.49 28.1701 238.215 27.8954C237.94 27.6206 237.568 27.4663 237.179 27.4663ZM237.179 32.5933C237.677 32.5933 238.278 32.6592 238.944 32.7837L237.721 34.0069L237.179 33.9849C235.004 33.9849 232.711 35.0543 232.711 35.523V36.3287H237.252L238.644 37.7203H231.32V35.523C231.32 33.5748 235.224 32.5933 237.179 32.5933Z" fill="#8F918F"/>
<circle cx="166.5" cy="17.5792" r="17.5782" fill="#095140"/>
<path d="M175.564 8.27523C175.76 8.22464 175.965 8.22897 176.159 8.28775C176.352 8.34654 176.525 8.45748 176.66 8.6084C176.794 8.75932 176.884 8.94436 176.92 9.14318C176.956 9.34199 176.937 9.54689 176.864 9.73532L170.272 26.7642C170.207 26.9329 170.101 27.0829 169.964 27.2008C169.827 27.3188 169.663 27.4011 169.486 27.4404C169.31 27.4797 169.126 27.4749 168.952 27.4263C168.778 27.3778 168.618 27.2869 168.488 27.1619L164.772 23.6078L163.45 24.9284C162.752 25.6271 161.556 25.1328 161.556 24.144V20.5316L155.853 15.0769C155.712 14.9415 155.609 14.7708 155.556 14.5824C155.502 14.3939 155.5 14.1947 155.55 14.0052C155.599 13.8158 155.699 13.643 155.837 13.5048C155.976 13.3665 156.149 13.2679 156.339 13.2191L175.564 8.27523ZM173.241 13.0049L164.455 20.2636L168.816 24.4362L173.241 13.0049ZM171.508 11.5876L158.8 14.8539L162.856 18.7321L171.508 11.5854V11.5876Z" fill="white"/>
<rect x="150.922" y="52.7344" width="35.1565" height="13.1837" rx="6.59184" fill="#119111"/>
<path d="M161.619 61.9316C161.168 61.9316 160.775 61.8496 160.441 61.6855C160.107 61.5215 159.85 61.293 159.668 61C159.486 60.707 159.396 60.3672 159.396 59.9805H160.169C160.169 60.2207 160.225 60.4434 160.336 60.6484C160.447 60.8477 160.608 61.0088 160.819 61.1318C161.036 61.249 161.303 61.3076 161.619 61.3076C161.895 61.3076 162.129 61.2637 162.322 61.1758C162.522 61.082 162.671 60.956 162.771 60.7978C162.876 60.6396 162.929 60.4609 162.929 60.2617C162.929 60.0215 162.876 59.8281 162.771 59.6816C162.671 59.5293 162.533 59.4062 162.357 59.3125C162.182 59.2187 161.977 59.1367 161.742 59.0664C161.514 58.9902 161.273 58.9111 161.021 58.8291C160.535 58.665 160.178 58.4599 159.949 58.2138C159.721 57.9677 159.606 57.6484 159.606 57.2558C159.606 56.9218 159.683 56.6289 159.835 56.3769C159.993 56.125 160.216 55.9287 160.503 55.788C160.796 55.6416 161.142 55.5683 161.54 55.5683C161.933 55.5683 162.272 55.6416 162.56 55.788C162.853 55.9345 163.081 56.1367 163.245 56.3945C163.409 56.6465 163.491 56.9394 163.491 57.2734H162.718C162.718 57.1035 162.674 56.9365 162.586 56.7724C162.498 56.6084 162.363 56.4736 162.182 56.3681C162.006 56.2568 161.783 56.2011 161.514 56.2011C161.291 56.1953 161.092 56.2334 160.916 56.3154C160.746 56.3916 160.611 56.5029 160.512 56.6494C160.418 56.7959 160.371 56.9746 160.371 57.1855C160.371 57.3847 160.412 57.5459 160.494 57.6689C160.582 57.792 160.705 57.8974 160.863 57.9853C161.027 58.0674 161.218 58.1435 161.435 58.2138C161.651 58.2842 161.892 58.3633 162.155 58.4512C162.454 58.5508 162.718 58.6738 162.946 58.8203C163.181 58.9609 163.362 59.1426 163.491 59.3652C163.626 59.5879 163.693 59.8721 163.693 60.2178C163.693 60.5107 163.614 60.7891 163.456 61.0527C163.304 61.3105 163.075 61.5215 162.771 61.6855C162.466 61.8496 162.082 61.9316 161.619 61.9316ZM166.656 61.9316C166.24 61.9316 165.871 61.835 165.549 61.6416C165.232 61.4482 164.983 61.1787 164.802 60.833C164.62 60.4814 164.529 60.0742 164.529 59.6113C164.529 59.1426 164.617 58.7353 164.793 58.3896C164.974 58.0439 165.226 57.7744 165.549 57.581C165.877 57.3877 166.252 57.291 166.674 57.291C167.107 57.291 167.473 57.3877 167.772 57.581C168.077 57.7744 168.308 58.0293 168.467 58.3457C168.631 58.6562 168.713 58.999 168.713 59.374C168.713 59.4326 168.713 59.4941 168.713 59.5586C168.713 59.623 168.71 59.6963 168.704 59.7783H165.083V59.207H167.992C167.974 58.8027 167.84 58.4863 167.588 58.2578C167.342 58.0293 167.031 57.915 166.656 57.915C166.404 57.915 166.17 57.9736 165.953 58.0908C165.742 58.2021 165.572 58.3691 165.443 58.5918C165.314 58.8086 165.25 59.081 165.25 59.4092V59.6553C165.25 60.0185 165.314 60.3232 165.443 60.5693C165.578 60.8154 165.751 61 165.962 61.123C166.178 61.2461 166.41 61.3076 166.656 61.3076C166.967 61.3076 167.221 61.2402 167.421 61.1055C167.626 60.9648 167.772 60.7773 167.86 60.543H168.59C168.519 60.8066 168.396 61.0439 168.22 61.2549C168.045 61.4658 167.825 61.6328 167.561 61.7559C167.303 61.873 167.002 61.9316 166.656 61.9316ZM169.709 61.8262V57.3965H170.377L170.412 58.1699C170.553 57.8945 170.752 57.6806 171.01 57.5283C171.273 57.3701 171.572 57.291 171.906 57.291C172.252 57.291 172.551 57.3613 172.803 57.5019C173.055 57.6367 173.251 57.8447 173.392 58.126C173.532 58.4013 173.603 58.7529 173.603 59.1806V61.8262H172.864V59.2597C172.864 58.8144 172.765 58.4804 172.565 58.2578C172.372 58.0351 172.097 57.9238 171.739 57.9238C171.493 57.9238 171.273 57.9853 171.08 58.1084C170.887 58.2256 170.731 58.3984 170.614 58.6269C170.503 58.8496 170.447 59.1279 170.447 59.4619V61.8262H169.709ZM176.496 61.8262C176.232 61.8262 176.004 61.7852 175.811 61.7031C175.617 61.6211 175.468 61.4834 175.362 61.29C175.263 61.0908 175.213 60.8242 175.213 60.4902V58.0205H174.439V57.3965H175.213L175.31 56.3242H175.951V57.3965H177.234V58.0205H175.951V60.4902C175.951 60.7656 176.007 60.9531 176.118 61.0527C176.23 61.1465 176.426 61.1934 176.707 61.1934H177.182V61.8262H176.496Z" fill="white"/>
<g filter="url(#filter1_ii_259_7213)">
<circle cx="166.5" cy="204.347" r="26.3673" fill="#FAFAFA"/>
</g>
<circle cx="166.5" cy="204.347" r="17.5782" fill="white"/>
<path d="M178.036 204.602C178.036 203.653 177.958 202.961 177.788 202.243H166.736V206.524H173.223C173.092 207.588 172.386 209.19 170.816 210.267L170.794 210.41L174.289 213.063L174.531 213.087C176.754 211.074 178.036 208.114 178.036 204.602Z" fill="#4285F4"/>
<path d="M166.735 215.882C169.913 215.882 172.581 214.856 174.53 213.088L170.816 210.268C169.822 210.947 168.488 211.421 166.735 211.421C163.623 211.421 160.981 209.409 160.039 206.627L159.901 206.639L156.267 209.395L156.22 209.524C158.155 213.293 162.131 215.882 166.735 215.882Z" fill="#34A853"/>
<path d="M160.039 206.629C159.79 205.911 159.647 205.142 159.647 204.347C159.647 203.553 159.79 202.783 160.026 202.066L160.019 201.913L156.34 199.113L156.22 199.169C155.422 200.733 154.964 202.489 154.964 204.347C154.964 206.206 155.422 207.962 156.22 209.525L160.039 206.629Z" fill="#FBBC05"/>
<path d="M166.735 197.271C168.946 197.271 170.437 198.207 171.287 198.989L174.609 195.81C172.569 193.951 169.914 192.811 166.735 192.811C162.131 192.811 158.155 195.4 156.22 199.168L160.026 202.065C160.981 199.283 163.623 197.271 166.735 197.271Z" fill="#EB4335"/>
<circle cx="99.1861" cy="31.8609" r="12.6344" stroke="#CAC4D0" stroke-width="1.09864"/>
<path d="M105.852 32.2276L106.877 33.2603L102.094 38.087L99.5528 35.5235L100.578 34.4908L102.094 36.0142L105.852 32.2276ZM98.4541 26.002C99.2311 26.002 99.9763 26.3106 100.526 26.86C101.075 27.4095 101.384 28.1547 101.384 28.9317C101.384 29.7087 101.075 30.4538 100.526 31.0033C99.9763 31.5527 99.2311 31.8614 98.4541 31.8614C97.6771 31.8614 96.9319 31.5527 96.3825 31.0033C95.8331 30.4538 95.5244 29.7087 95.5244 28.9317C95.5244 28.1547 95.8331 27.4095 96.3825 26.86C96.9319 26.3106 97.6771 26.002 98.4541 26.002ZM98.4541 27.4668C98.0656 27.4668 97.693 27.6211 97.4183 27.8959C97.1436 28.1706 96.9893 28.5432 96.9893 28.9317C96.9893 29.3202 97.1436 29.6928 97.4183 29.9675C97.693 30.2422 98.0656 30.3965 98.4541 30.3965C98.8426 30.3965 99.2152 30.2422 99.4899 29.9675C99.7647 29.6928 99.919 29.3202 99.919 28.9317C99.919 28.5432 99.7647 28.1706 99.4899 27.8959C99.2152 27.6211 98.8426 27.4668 98.4541 27.4668ZM98.4541 32.5938C98.9522 32.5938 99.5528 32.6597 100.219 32.7842L98.9961 34.0074L98.4541 33.9854C96.2788 33.9854 93.9863 35.0547 93.9863 35.5235V36.3292H98.5274L99.919 37.7208H92.5947V35.5235C92.5947 33.5752 96.4986 32.5938 98.4541 32.5938Z" fill="#8F918F"/>
<defs>
<filter id="filter0_d_259_7213" x="0.605442" y="90.0889" width="331.789" height="109.864" filterUnits="userSpaceOnUse" color-interpolation-filters="sRGB">
<feFlood flood-opacity="0" result="BackgroundImageFix"/>
<feColorMatrix in="SourceAlpha" type="matrix" values="0 0 0 0 0 0 0 0 0 0 0 0 0 0 0 0 0 0 127 0" result="hardAlpha"/>
<feOffset dy="4.39456"/>
<feGaussianBlur stdDeviation="2.19728"/>
<feComposite in2="hardAlpha" operator="out"/>
<feColorMatrix type="matrix" values="0 0 0 0 0.792157 0 0 0 0 0.768627 0 0 0 0 0.815686 0 0 0 0.25 0"/>
<feBlend mode="normal" in2="BackgroundImageFix" result="effect1_dropShadow_259_7213"/>
<feBlend mode="normal" in="SourceGraphic" in2="effect1_dropShadow_259_7213" result="shape"/>
</filter>
<filter id="filter1_ii_259_7213" x="140.133" y="175.979" width="52.7349" height="56.7349" filterUnits="userSpaceOnUse" color-interpolation-filters="sRGB">
<feFlood flood-opacity="0" result="BackgroundImageFix"/>
<feBlend mode="normal" in="SourceGraphic" in2="BackgroundImageFix" result="shape"/>
<feColorMatrix in="SourceAlpha" type="matrix" values="0 0 0 0 0 0 0 0 0 0 0 0 0 0 0 0 0 0 127 0" result="hardAlpha"/>
<feOffset dy="2"/>
<feGaussianBlur stdDeviation="1"/>
<feComposite in2="hardAlpha" operator="arithmetic" k2="-1" k3="1"/>
<feColorMatrix type="matrix" values="0 0 0 0 0 0 0 0 0 0 0 0 0 0 0 0 0 0 0.1 0"/>
<feBlend mode="normal" in2="shape" result="effect1_innerShadow_259_7213"/>
<feColorMatrix in="SourceAlpha" type="matrix" values="0 0 0 0 0 0 0 0 0 0 0 0 0 0 0 0 0 0 127 0" result="hardAlpha"/>
<feOffset dy="-2"/>
<feGaussianBlur stdDeviation="1"/>
<feComposite in2="hardAlpha" operator="arithmetic" k2="-1" k3="1"/>
<feColorMatrix type="matrix" values="0 0 0 0 0 0 0 0 0 0 0 0 0 0 0 0 0 0 0.1 0"/>
<feBlend mode="normal" in2="effect1_innerShadow_259_7213" result="effect2_innerShadow_259_7213"/>
</filter>
</defs>
</svg>
