<svg width="254" height="331" viewBox="0 0 254 331" fill="none" xmlns="http://www.w3.org/2000/svg">
<path d="M116.224 66.6036V3.02734M116.224 66.6036L161.934 14.6325M116.224 66.6036L152.139 71.6494M116.224 66.6036V119.584M116.224 66.6036L72.4737 14.6325M116.224 66.6036L82.2685 71.6494M116.224 3.02734L161.934 14.6325M116.224 3.02734H114.918L72.4737 14.6325M161.934 14.6325L193.93 29.7697M152.139 71.6494L193.93 29.7697M152.139 71.6494L186.094 85.2728M152.139 71.6494L116.224 119.584M193.93 29.7697L224.621 54.9984M224.621 54.9984L186.094 85.2728M224.621 54.9984L251.393 108.988M186.094 85.2728L224.621 124.125M186.094 85.2728L152.139 116.556M224.621 124.125L251.393 108.988M224.621 124.125L237.681 160.454M224.621 124.125L201.113 139.262M251.393 108.988L237.681 160.454M237.681 160.454V218.985M237.681 160.454L201.113 212.425M237.681 160.454L201.113 139.262M237.681 160.454L205.684 159.445M237.681 218.985L201.113 212.425M237.681 218.985L217.438 263.387M201.113 212.425L161.934 191.738M201.113 212.425L152.139 208.893M201.113 212.425L193.93 247.241M201.113 212.425L205.684 159.445M201.113 139.262L152.139 116.556M201.113 139.262H152.139M201.113 139.262L205.684 159.445M152.139 116.556L116.224 119.584M152.139 116.556V139.262M116.224 119.584L82.2685 71.6494M116.224 119.584H82.2685M116.224 119.584V139.262M72.4737 14.6325L39.1711 29.7697M82.2685 71.6494L39.1711 29.7697M82.2685 71.6494L43.742 85.2728M39.1711 29.7697L8.48044 54.9984M8.48044 54.9984L43.742 85.2728M8.48044 54.9984L2.60352 108.988M43.742 85.2728L2.60352 108.988M43.742 85.2728L82.2685 119.584M2.60352 108.988L20.8873 150.867M2.60352 108.988L5.21548 157.427M82.2685 119.584L20.8873 150.867M82.2685 119.584L88.1455 139.262M20.8873 150.867L5.21548 157.427M20.8873 150.867L39.1711 223.526M20.8873 150.867L39.1711 163.042M5.21548 157.427L8.48044 223.526M5.21548 157.427L39.1711 223.526M8.48044 223.526H39.1711M8.48044 223.526L43.742 283.57M39.1711 223.526L82.2685 191.738M39.1711 223.526L82.2685 218.985M39.1711 223.526L60.0668 263.387M39.1711 223.526V163.042M82.2685 191.738L105.776 160.454M82.2685 191.738L88.1455 139.262M82.2685 191.738L39.1711 163.042M82.2685 191.738L95.3284 208.893M82.2685 191.738V218.985M105.776 160.454L88.1455 139.262M105.776 160.454H136.467M105.776 160.454L111 203.343M105.776 160.454L66.4292 166.728L64.6378 167.014L39.1711 163.042M88.1455 139.262H116.224M88.1455 139.262L40.2672 140.99L39.1711 163.042M116.224 139.262H152.139M152.139 139.262L136.467 160.454M136.467 160.454L178.258 167.014M136.467 160.454L161.934 191.738M136.467 160.454L127.325 203.343M178.258 167.014L205.684 159.445M178.258 167.014V186.692M205.684 159.445L178.258 186.692M161.934 191.738L178.258 186.692M161.934 191.738L152.139 208.893M127.325 203.343L152.139 208.893M127.325 203.343H111M127.325 203.343L111 212.425M152.139 208.893L111 212.425M111 203.343L95.3284 208.893M111 203.343V212.425M95.3284 208.893L111 212.425M82.2685 218.985L111 212.425M43.742 283.57L60.0668 263.387M43.742 283.57L75.0856 311.322M60.0668 263.387L86.1865 280.038M75.0856 311.322L86.1865 280.038M75.0856 311.322L111 328.05M86.1865 280.038L111 302.744M86.1865 280.038L127.325 283.57M111 328.05V302.744M111 328.05L148.874 329.991M111 302.744L127.325 283.57M127.325 283.57L152.139 302.744M127.325 283.57L155.004 280.038M152.139 302.744L148.874 329.991M152.139 302.744L181.055 298.707M148.874 329.991L189.359 314.854M217.438 263.387L193.93 247.241M217.438 263.387L201.113 293.157M193.93 247.241L185.614 271.46M201.113 293.157L185.614 271.46M201.113 293.157L189.359 314.854M185.614 271.46L181.055 298.707M185.614 271.46L155.004 280.038M189.359 314.854L181.055 298.707M181.055 298.707L155.004 280.038M75.0856 236.14L109.041 228.572L118.183 233.617M75.0856 236.14L86.1865 247.241L99.2463 255.819M75.0856 236.14L118.183 242.195M118.183 233.617L130.59 228.572L164.546 236.14M118.183 233.617V242.195M164.546 236.14L152.139 251.782L136.467 255.819M164.546 236.14L118.183 242.195M136.467 255.819H99.2463M136.467 255.819L118.183 242.195M99.2463 255.819L118.183 242.195" stroke="#CAC4D0" stroke-width="1.18634"/>
<ellipse cx="115.927" cy="2.01831" rx="2.60515" ry="2.01831" fill="#CAC4D0"/>
<ellipse cx="115.927" cy="65.5945" rx="2.60515" ry="2.01831" fill="#CAC4D0"/>
<ellipse cx="82.0612" cy="71.6497" rx="2.60515" ry="2.01831" fill="#CAC4D0"/>
<ellipse cx="44.2858" cy="84.7673" rx="2.60515" ry="2.01831" fill="#CAC4D0"/>
<ellipse cx="115.927" cy="119.079" rx="2.60515" ry="2.01831" fill="#CAC4D0"/>
<ellipse cx="115.927" cy="138.254" rx="2.60515" ry="2.01831" fill="#CAC4D0"/>
<ellipse cx="115.927" cy="138.254" rx="2.60515" ry="2.01831" fill="#CAC4D0"/>
<ellipse cx="105.507" cy="160.455" rx="2.60515" ry="2.01831" fill="#CAC4D0"/>
<ellipse cx="88.5739" cy="140.271" rx="2.60515" ry="2.01831" fill="#CAC4D0"/>
<ellipse cx="82.0612" cy="120.088" rx="2.60515" ry="2.01831" fill="#CAC4D0"/>
<ellipse cx="40.3796" cy="141.281" rx="2.60515" ry="2.01831" fill="#CAC4D0"/>
<ellipse cx="20.8395" cy="150.363" rx="2.60515" ry="2.01831" fill="#CAC4D0"/>
<ellipse cx="39.0759" cy="223.021" rx="2.60515" ry="2.01831" fill="#CAC4D0"/>
<ellipse cx="40.3796" cy="163.482" rx="2.60515" ry="2.01831" fill="#CAC4D0"/>
<ellipse cx="65.1276" cy="166.509" rx="2.60515" ry="2.01831" fill="#CAC4D0"/>
<ellipse cx="85.9684" cy="163.482" rx="2.60515" ry="2.01831" fill="#CAC4D0"/>
<ellipse cx="110.716" cy="211.921" rx="2.60515" ry="2.01831" fill="#CAC4D0"/>
<ellipse cx="96.3884" cy="208.893" rx="2.60515" ry="2.01831" fill="#CAC4D0"/>
<ellipse cx="82.0612" cy="191.739" rx="2.60515" ry="2.01831" fill="#CAC4D0"/>
<ellipse cx="110.716" cy="203.847" rx="2.60515" ry="2.01831" fill="#CAC4D0"/>
<ellipse cx="127.65" cy="202.839" rx="2.60515" ry="2.01831" fill="#CAC4D0"/>
<ellipse cx="152.398" cy="208.893" rx="2.60515" ry="2.01831" fill="#CAC4D0"/>
<ellipse cx="162.82" cy="191.739" rx="2.60515" ry="2.01831" fill="#CAC4D0"/>
<ellipse cx="178.451" cy="185.682" rx="2.60515" ry="2.01831" fill="#CAC4D0"/>
<ellipse cx="178.451" cy="167.519" rx="2.60515" ry="2.01831" fill="#CAC4D0"/>
<ellipse cx="136.768" cy="160.455" rx="2.60515" ry="2.01831" fill="#CAC4D0"/>
<ellipse cx="152.398" cy="139.262" rx="2.60515" ry="2.01831" fill="#CAC4D0"/>
<ellipse cx="152.398" cy="139.262" rx="2.60515" ry="2.01831" fill="#CAC4D0"/>
<ellipse cx="152.398" cy="116.052" rx="2.60515" ry="2.01831" fill="#CAC4D0"/>
<ellipse cx="186.266" cy="85.7776" rx="2.60515" ry="2.01831" fill="#CAC4D0"/>
<ellipse cx="152.398" cy="71.6497" rx="2.60515" ry="2.01831" fill="#CAC4D0"/>
<ellipse cx="201.896" cy="139.262" rx="2.60515" ry="2.01831" fill="#CAC4D0"/>
<ellipse cx="224.042" cy="124.125" rx="2.60515" ry="2.01831" fill="#CAC4D0"/>
<ellipse cx="205.804" cy="160.455" rx="2.60515" ry="2.01831" fill="#CAC4D0"/>
<ellipse cx="201.896" cy="211.921" rx="2.60515" ry="2.01831" fill="#CAC4D0"/>
<ellipse cx="127.65" cy="283.57" rx="2.60515" ry="2.01831" fill="#CAC4D0"/>
<ellipse cx="118.532" cy="242.195" rx="2.60515" ry="2.01831" fill="#CAC4D0"/>
<ellipse cx="118.532" cy="233.113" rx="2.60515" ry="2.01831" fill="#CAC4D0"/>
<ellipse cx="161.517" cy="14.1287" rx="2.60515" ry="2.01831" fill="#CAC4D0"/>
<ellipse cx="192.779" cy="29.2654" rx="2.60515" ry="2.01831" fill="#CAC4D0"/>
<ellipse cx="224.042" cy="54.4944" rx="2.60515" ry="2.01831" fill="#CAC4D0"/>
<ellipse cx="251.393" cy="107.979" rx="2.60515" ry="2.01831" fill="#CAC4D0"/>
<ellipse cx="237.067" cy="159.446" rx="2.60515" ry="2.01831" fill="#CAC4D0"/>
<ellipse cx="237.067" cy="217.976" rx="2.60515" ry="2.01831" fill="#CAC4D0"/>
<ellipse cx="217.527" cy="263.387" rx="2.60515" ry="2.01831" fill="#CAC4D0"/>
<ellipse cx="194.081" cy="247.241" rx="2.60515" ry="2.01831" fill="#CAC4D0"/>
<ellipse cx="184.962" cy="272.469" rx="2.60515" ry="2.01831" fill="#CAC4D0"/>
<ellipse cx="181.055" cy="297.698" rx="2.60515" ry="2.01831" fill="#CAC4D0"/>
<ellipse cx="155.005" cy="280.542" rx="2.60515" ry="2.01831" fill="#CAC4D0"/>
<ellipse cx="152.398" cy="303.754" rx="2.60515" ry="2.01831" fill="#CAC4D0"/>
<ellipse cx="110.716" cy="302.743" rx="2.60515" ry="2.01831" fill="#CAC4D0"/>
<ellipse cx="85.9684" cy="280.542" rx="2.60515" ry="2.01831" fill="#CAC4D0"/>
<ellipse cx="59.9167" cy="263.387" rx="2.60515" ry="2.01831" fill="#CAC4D0"/>
<ellipse cx="100.297" cy="255.314" rx="2.60515" ry="2.01831" fill="#CAC4D0"/>
<ellipse cx="135.465" cy="255.314" rx="2.60515" ry="2.01831" fill="#CAC4D0"/>
<ellipse cx="151.095" cy="252.287" rx="2.60515" ry="2.01831" fill="#CAC4D0"/>
<ellipse cx="164.123" cy="236.141" rx="2.60515" ry="2.01831" fill="#CAC4D0"/>
<ellipse cx="132.86" cy="228.067" rx="2.60515" ry="2.01831" fill="#CAC4D0"/>
<ellipse cx="109.414" cy="228.067" rx="2.60515" ry="2.01831" fill="#CAC4D0"/>
<ellipse cx="75.5466" cy="236.141" rx="2.60515" ry="2.01831" fill="#CAC4D0"/>
<ellipse cx="85.9684" cy="247.241" rx="2.60515" ry="2.01831" fill="#CAC4D0"/>
<ellipse cx="200.594" cy="292.653" rx="2.60515" ry="2.01831" fill="#CAC4D0"/>
<ellipse cx="188.871" cy="313.845" rx="2.60515" ry="2.01831" fill="#CAC4D0"/>
<ellipse cx="148.492" cy="328.982" rx="2.60515" ry="2.01831" fill="#CAC4D0"/>
<ellipse cx="110.716" cy="327.972" rx="2.60515" ry="2.01831" fill="#CAC4D0"/>
<ellipse cx="74.2448" cy="310.817" rx="2.60515" ry="2.01831" fill="#CAC4D0"/>
<ellipse cx="44.2858" cy="282.562" rx="2.60515" ry="2.01831" fill="#CAC4D0"/>
<ellipse cx="9.11785" cy="223.021" rx="2.60515" ry="2.01831" fill="#CAC4D0"/>
<ellipse cx="5.20867" cy="156.417" rx="2.60515" ry="2.01831" fill="#CAC4D0"/>
<ellipse cx="2.60418" cy="107.979" rx="2.60515" ry="2.01831" fill="#CAC4D0"/>
<ellipse cx="9.11785" cy="54.4944" rx="2.60515" ry="2.01831" fill="#CAC4D0"/>
<ellipse cx="39.0768" cy="29.2654" rx="2.60515" ry="2.01831" fill="#CAC4D0"/>
<ellipse cx="72.943" cy="14.1287" rx="2.60515" ry="2.01831" fill="#CAC4D0"/>
</svg>
