<?xml version="1.0" encoding="UTF-8"?> <svg xmlns="http://www.w3.org/2000/svg" width="119" height="50" viewBox="0 0 119 50" fill="none"><g clip-path="url(#clip0_83_7)"><path d="M23.3647 20.8643C23.3287 20.8139 23.2589 20.8031 23.2089 20.8394C23.1888 20.8545 23.1737 20.8754 23.1672 20.8991L22.5305 23.1267C22.5187 23.1979 22.4507 23.2454 22.3795 23.2332C22.3086 23.2213 22.2608 23.1534 22.273 23.0821L22.6327 19.3428L22.6644 18.7636C22.7144 18.1327 22.7226 17.499 22.6895 16.8677C22.2219 8.08073 16.1312 1.68427 14.5367 0.153769C14.3245 -0.0512565 13.9885 -0.0512565 13.7759 0.153769C12.1814 1.68427 6.09069 8.08073 5.62276 16.8677C5.59323 17.4979 5.60513 18.1288 5.65797 18.7575L5.69 19.3363L5.98246 23.1048C5.9853 23.1767 5.92884 23.2372 5.85616 23.24C5.79828 23.2415 5.74539 23.2055 5.72776 23.1494L5.09147 21.0265C5.07384 20.9675 5.01233 20.9337 4.95297 20.9509C4.93103 20.9578 4.91164 20.9711 4.89724 20.9884L0 26.9111V30.7292H6.68276L6.90216 33.214H9.42901L10.2944 41.0521C10.3002 41.2046 10.4272 41.3233 10.5793 41.3183C10.7315 41.3125 10.8506 41.1848 10.8448 41.033L11.1631 33.1859H12.5983L13.0184 43.0923C13.04 43.2448 13.1799 43.3496 13.3313 43.3284C13.4616 43.3108 13.5616 43.2017 13.5691 43.0703L14.5968 21.9933C14.5968 21.9297 14.6478 21.879 14.7111 21.879C14.7744 21.879 14.8255 21.93 14.8255 21.9933L15.8219 49.6991C15.8165 49.8517 15.9363 49.9802 16.0891 49.9849C16.2424 49.9901 16.3704 49.8707 16.3754 49.7177L17.1804 33.1694H21.4141L21.6399 30.7127H27.8296V26.8953L23.3647 20.8643ZM14.2219 14.5728C12.6137 14.5728 11.3099 13.2693 11.3099 11.6604C11.3099 10.0525 12.6137 8.74901 14.2219 8.74901C15.8301 8.74901 17.1337 10.0525 17.1337 11.6604C17.1333 13.2693 15.8298 14.5728 14.2219 14.5728Z" fill="#B1BECA"></path><path d="M36.9404 31.0663H37.2588V3.33203H36.9404V31.0663Z" fill="#B1BECA"></path><path d="M49.6959 19.708C49.4838 19.6209 49.1967 19.5781 48.8342 19.5781C48.1635 19.5781 47.6036 19.8029 47.1545 20.2551C46.7058 20.7061 46.4812 21.3205 46.4812 22.0974V23.2988H45.2148V24.312H46.4812V30.7117H47.661V24.312H49.3989V23.2988H47.661V22.1546C47.661 21.1083 48.076 20.5838 48.9062 20.5838C49.2006 20.5838 49.464 20.6493 49.6954 20.7795L49.6959 19.708ZM56.3123 29.8175C56.9808 29.1064 57.3153 28.159 57.3153 26.9767C57.3153 25.7699 57.0054 24.8268 56.3851 24.1462C55.7648 23.4657 54.9019 23.1254 53.7972 23.1254C52.6385 23.1254 51.7196 23.4754 51.0386 24.175C50.3579 24.875 50.0179 25.8469 50.0179 27.0917C50.0179 28.2356 50.345 29.1542 50.9993 29.847C51.6528 30.5398 52.5282 30.8862 53.6239 30.8862C54.748 30.8858 55.6446 30.5297 56.3123 29.8175ZM55.4804 24.8768C55.8929 25.3789 56.0993 26.0933 56.0993 27.0198C56.0993 27.936 55.8929 28.6435 55.4804 29.1406C55.0674 29.6373 54.4778 29.8859 53.7101 29.8859C52.9571 29.8859 52.3567 29.633 51.9075 29.1258C51.4592 28.6201 51.2347 27.9266 51.2347 27.0486C51.2347 26.1361 51.4558 25.4206 51.9006 24.902C52.3446 24.3833 52.9476 24.1236 53.7101 24.1236C54.4778 24.1239 55.067 24.375 55.4804 24.8768ZM62.9299 23.2696C62.7653 23.202 62.5295 23.1682 62.22 23.1682C61.7911 23.1682 61.4023 23.3142 61.0554 23.6063C60.7075 23.8988 60.4489 24.3048 60.2799 24.8268H60.2519V23.2988H59.0635V30.7117H60.2519V26.9328C60.2519 26.108 60.4217 25.4562 60.7618 24.9782C61.1019 24.5002 61.5256 24.2617 62.0321 24.2617C62.4235 24.2617 62.7226 24.3408 62.9299 24.5005V23.2696ZM68.1972 30.5423C68.4213 30.6168 68.6584 30.6794 68.9092 30.7297C69.1605 30.7811 69.4066 30.8189 69.6476 30.8455C69.8894 30.8721 70.0916 30.8855 70.2567 30.8855C70.7485 30.8855 71.2166 30.8355 71.6601 30.7365C72.1041 30.6383 72.4963 30.4772 72.8364 30.2553C73.1769 30.0333 73.4476 29.7452 73.6472 29.3898C73.8485 29.0352 73.948 28.6025 73.948 28.091C73.948 27.7047 73.8743 27.3626 73.7273 27.0633C73.5799 26.7641 73.3804 26.4914 73.1304 26.2451C72.8795 25.999 72.5873 25.7749 72.2541 25.572C71.9209 25.3692 71.5683 25.176 71.1972 24.993C70.8355 24.8145 70.5153 24.6505 70.2368 24.5009C69.9601 24.3513 69.7239 24.1966 69.5317 24.0376C69.339 23.8779 69.1933 23.7017 69.0933 23.5089C68.995 23.3161 68.9454 23.0866 68.9454 22.8211C68.9454 22.5362 69.011 22.2952 69.1411 22.0974C69.2713 21.8992 69.4403 21.7377 69.6472 21.6114C69.8554 21.4863 70.0911 21.3957 70.3562 21.3402C70.6217 21.2852 70.8877 21.2572 71.1532 21.2572C72.114 21.2572 72.9006 21.4701 73.5135 21.8942V20.5259C73.0459 20.2795 72.2998 20.1569 71.2769 20.1569C70.8286 20.1569 70.3873 20.2123 69.9558 20.323C69.5235 20.4349 69.1386 20.6029 68.8011 20.8302C68.4627 21.0568 68.1898 21.3453 67.9834 21.6949C67.7756 22.0452 67.6717 22.4567 67.6717 22.9294C67.6717 23.3157 67.7377 23.6523 67.8713 23.9394C68.0032 24.2268 68.186 24.4836 68.4174 24.711C68.6498 24.9376 68.9213 25.1447 69.2355 25.3332C69.5498 25.5214 69.8868 25.707 70.2485 25.8904C70.5911 26.0638 70.911 26.2289 71.2079 26.3864C71.5045 26.5433 71.7618 26.7069 71.9795 26.8781C72.1967 27.0504 72.3666 27.2392 72.4898 27.4464C72.6127 27.6543 72.6748 27.8982 72.6748 28.1777C72.6748 28.6989 72.4898 29.0996 72.1204 29.3762C71.7523 29.6535 71.1929 29.792 70.4442 29.792C70.2278 29.792 69.9916 29.7708 69.7351 29.7273C69.4786 29.6837 69.2252 29.6219 68.9713 29.5423C68.7179 29.4629 68.4769 29.3647 68.2476 29.2496C68.0174 29.133 67.8213 29.0028 67.6575 28.8589V30.2912C67.7924 30.3837 67.9722 30.4671 68.1972 30.5423ZM78.6717 29.6262C78.4545 29.7905 78.1972 29.8722 77.8976 29.8722C77.5071 29.8722 77.2269 29.7654 77.0575 29.5532C76.8885 29.3409 76.8045 28.987 76.8045 28.4895V24.312H78.6717V23.2988H76.8045V21.105L75.6174 21.4884V23.2984H74.3429V24.3117H75.6174V28.6985C75.6174 30.147 76.2666 30.8707 77.5644 30.8707C78.0226 30.8707 78.3924 30.7934 78.6717 30.6387V29.6262ZM85.4153 25.8904C85.4153 24.047 84.5442 23.1251 82.8023 23.1251C81.8511 23.1251 81.0114 23.357 80.2834 23.8204V25.0361C81.0019 24.4282 81.8075 24.1239 82.7015 24.1239C83.7187 24.1239 84.2286 24.7541 84.2286 26.0141L82.0058 26.3253C80.3748 26.5522 79.5579 27.3572 79.5579 28.7428C79.5579 29.3898 79.7674 29.9089 80.1847 30.2995C80.6019 30.6902 81.1804 30.8862 81.9183 30.8862C82.9222 30.8862 83.6829 30.4416 84.1989 29.5535H84.2282V30.7121H85.4148V25.8904H85.4153ZM84.2291 27.7007C84.2291 28.3331 84.0364 28.855 83.6528 29.2672C83.2691 29.6801 82.7829 29.8862 82.1941 29.8862C81.7644 29.8862 81.4209 29.7726 81.1623 29.5427C80.9045 29.3129 80.7752 29.0179 80.7752 28.6554C80.7752 28.1586 80.9153 27.8122 81.1954 27.6169C81.4748 27.4216 81.8911 27.2853 82.4403 27.2072L84.2291 26.9612V27.7007ZM91.3709 23.2696C91.2062 23.202 90.9704 23.1682 90.6605 23.1682C90.2312 23.1682 89.8429 23.3142 89.495 23.6063C89.148 23.8988 88.8894 24.3048 88.7209 24.8268H88.6916V23.2988H87.5049V30.7117H88.6916V26.9328C88.6916 26.108 88.8623 25.4562 89.2028 24.9782C89.5429 24.5005 89.9657 24.2617 90.473 24.2617C90.8635 24.2617 91.1627 24.3408 91.3709 24.5005V23.2696ZM95.9498 29.6262C95.7321 29.7905 95.4735 29.8722 95.1743 29.8722C94.7834 29.8722 94.5041 29.7654 94.3355 29.5532C94.1661 29.3409 94.0817 28.987 94.0817 28.4895V24.312H95.9498V23.2988H94.0817V21.105L92.8937 21.4884V23.2984H91.62V24.3117H92.8937V28.6985C92.8937 30.147 93.5429 30.8707 94.8411 30.8707C95.2998 30.8707 95.6696 30.7934 95.9498 30.6387V29.6262ZM103.381 23.2988H102.194V27.5709C102.194 28.2608 102.007 28.8186 101.633 29.2456C101.258 29.6726 100.782 29.8862 100.203 29.8862C99.0058 29.8862 98.4071 29.105 98.4071 27.541V23.2988H97.2269V27.7295C97.2269 29.8337 98.1105 30.8858 99.8769 30.8858C100.91 30.8858 101.673 30.4369 102.164 29.5391H102.194V30.7117H103.381V23.2988H103.381ZM109.067 30.8858C110.115 30.8858 110.94 30.5128 111.544 29.7668C112.147 29.0215 112.448 28.0288 112.448 26.7882C112.448 25.6731 112.18 24.7843 111.645 24.12C111.109 23.4567 110.363 23.1251 109.408 23.1251C108.284 23.1251 107.429 23.6171 106.845 24.602H106.816V23.2984H105.629V34.1216H106.816V29.6402H106.845C107.366 30.4708 108.107 30.8858 109.067 30.8858ZM107.446 24.8444C107.865 24.3639 108.421 24.1236 109.111 24.1236C109.763 24.1236 110.279 24.3577 110.661 24.8264C111.042 25.294 111.233 25.9408 111.233 26.767C111.233 27.7464 111.028 28.5115 110.62 29.0614C110.213 29.6107 109.649 29.8862 108.93 29.8862C108.317 29.8862 107.812 29.6726 107.413 29.2456C107.014 28.8186 106.816 28.2992 106.816 27.686V26.6511C106.816 25.9267 107.026 25.3242 107.446 24.8444ZM115.732 30.8858C116.118 30.8858 116.486 30.8416 116.839 30.7545C117.192 30.6689 117.502 30.5355 117.773 30.3571C118.043 30.1787 118.26 29.9546 118.421 29.6841C118.583 29.4136 118.664 29.0953 118.664 28.7287C118.664 28.4295 118.614 28.1708 118.515 27.9539C118.417 27.7367 118.275 27.5442 118.092 27.3784C117.908 27.2112 117.686 27.0623 117.426 26.9295C117.165 26.7968 116.871 26.6673 116.542 26.5425C116.296 26.4454 116.077 26.3562 115.883 26.2742C115.69 26.1925 115.527 26.1015 115.391 25.9994C115.255 25.8972 115.154 25.7821 115.084 25.6515C115.014 25.5217 114.979 25.3595 114.979 25.1667C114.979 25.012 115.014 24.8714 115.084 24.743C115.153 24.6153 115.253 24.5048 115.38 24.4135C115.508 24.3221 115.661 24.2509 115.84 24.1998C116.018 24.1491 116.219 24.1236 116.441 24.1236C117.151 24.1236 117.778 24.3027 118.323 24.6592V23.4578C117.817 23.2358 117.242 23.1247 116.6 23.1247C116.239 23.1247 115.888 23.1708 115.547 23.2621C115.207 23.3538 114.904 23.4901 114.638 23.6711C114.373 23.8523 114.161 24.0768 114.001 24.3444C113.842 24.6127 113.762 24.9199 113.762 25.267C113.762 25.5519 113.804 25.8012 113.889 26.0134C113.974 26.2256 114.099 26.4145 114.267 26.581C114.432 26.7475 114.639 26.8972 114.889 27.0306C115.136 27.1626 115.425 27.2939 115.753 27.4241C115.989 27.5169 116.211 27.604 116.416 27.6896C116.62 27.773 116.799 27.8694 116.951 27.9748C117.103 28.0817 117.224 28.2025 117.314 28.3403C117.402 28.478 117.447 28.6467 117.447 28.8439C117.447 29.5388 116.926 29.8855 115.883 29.8855C115.106 29.8855 114.395 29.6474 113.747 29.1697V30.4434C114.308 30.7383 114.969 30.8858 115.732 30.8858Z" fill="#B1BECA"></path><path d="M56.7759 4.09988H55.2561L52.0053 11.3103C51.8798 11.5902 51.7126 12.0146 51.5057 12.5843H51.4626C51.3902 12.3085 51.2307 11.8937 50.9841 11.3391L47.7997 4.09988H46.1919V14.4807H47.3652V7.53102C47.3652 6.59002 47.3458 5.9124 47.3065 5.49731H47.3354C47.4419 5.97498 47.5458 6.32964 47.6471 6.56127L51.1872 14.4814H51.7807L55.3281 6.50373C55.4199 6.30119 55.5238 5.96563 55.6389 5.49731H55.6678C55.6001 6.29364 55.5669 6.96701 55.5669 7.51662V14.481H56.7755V4.09988H56.7759ZM60.3591 4.96097C60.5117 4.81136 60.5876 4.6308 60.5876 4.41783C60.5876 4.19627 60.5117 4.0114 60.3591 3.86392C60.2074 3.71716 60.0234 3.64379 59.8061 3.64379C59.5932 3.64379 59.4126 3.71716 59.263 3.86392C59.1134 4.0114 59.0384 4.19627 59.0384 4.41783C59.0384 4.64015 59.1134 4.8236 59.263 4.96817C59.4126 5.11244 59.5932 5.18546 59.8061 5.18546C60.0238 5.18546 60.2074 5.11063 60.3591 4.96097ZM60.3854 7.06735H59.1975V14.4807H60.3854V7.06735ZM67.694 13.0109C67.1242 13.4411 66.516 13.6555 65.8695 13.6555C65.1022 13.6555 64.4906 13.4048 64.0341 12.9023C63.5777 12.4009 63.3501 11.7153 63.3501 10.8463C63.3501 9.9636 63.5928 9.25033 64.0772 8.70757C64.5626 8.16442 65.1837 7.89321 65.941 7.89321C66.569 7.89321 67.1578 8.08602 67.7087 8.47196V7.25584C67.2113 7.01446 66.6367 6.89365 65.9854 6.89365C64.8169 6.89365 63.8824 7.26412 63.1828 8.00507C62.4841 8.7464 62.1333 9.72658 62.1333 10.9477C62.1333 12.0434 62.4578 12.9351 63.1078 13.6231C63.7561 14.3109 64.61 14.6548 65.6665 14.6548C66.4484 14.6548 67.1242 14.4835 67.694 14.1404V13.0109ZM73.2066 7.0386C73.0423 6.97097 72.8061 6.93714 72.4971 6.93714C72.0678 6.93714 71.6794 7.08317 71.332 7.37524C70.9837 7.6677 70.7255 8.07377 70.5565 8.59571H70.5285V7.0677H69.3406V14.481H70.5285V10.7017C70.5285 9.87658 70.6979 9.22515 71.0384 8.74714C71.3785 8.26946 71.8022 8.03063 72.3087 8.03063C72.7001 8.03063 72.9992 8.11046 73.2066 8.26946V7.0386ZM80.135 13.5868C80.8031 12.875 81.138 11.9279 81.138 10.746C81.138 9.53916 80.8277 8.59571 80.2078 7.91515C79.5867 7.23459 78.7242 6.89434 77.6191 6.89434C76.4609 6.89434 75.5419 7.24395 74.8613 7.94395C74.1803 8.6439 73.8402 9.61649 73.8402 10.8618C73.8402 12.0056 74.1669 12.9236 74.8212 13.6163C75.4742 14.3084 76.3501 14.6551 77.4453 14.6551C78.5695 14.6548 79.466 14.2986 80.135 13.5868ZM79.3022 8.64571C79.7143 9.14783 79.9212 9.86218 79.9212 10.7888C79.9212 11.706 79.7147 12.4135 79.3022 12.9102C78.8897 13.407 78.2996 13.6552 77.532 13.6552C76.7794 13.6552 76.1781 13.4023 75.729 12.8951C75.2803 12.3887 75.057 11.6959 75.057 10.8175C75.057 9.90533 75.2781 9.19028 75.7216 8.67089C76.1652 8.15218 76.7695 7.89321 77.532 7.89321C78.2996 7.89321 78.8902 8.14464 79.3022 8.64571ZM84.4212 14.6548C84.8065 14.6548 85.1755 14.6109 85.5281 14.5245C85.8803 14.4375 86.1923 14.3048 86.4622 14.1264C86.7324 13.948 86.9484 13.7235 87.11 13.453C87.2721 13.1833 87.3531 12.8645 87.3531 12.4977C87.3531 12.1984 87.3031 11.9402 87.2048 11.7233C87.1057 11.506 86.9639 11.3142 86.7811 11.1474C86.5971 10.9812 86.3755 10.8316 86.1147 10.6985C85.8535 10.5661 85.56 10.4366 85.232 10.3114C84.985 10.215 84.766 10.1258 84.5729 10.0431C84.3798 9.9611 84.2152 9.87011 84.0803 9.7683C83.9458 9.66649 83.8432 9.55106 83.7729 9.42084C83.7035 9.29063 83.6682 9.12839 83.6682 8.93597C83.6682 8.78093 83.7035 8.64028 83.7729 8.51188C83.8432 8.38421 83.9423 8.27451 84.0695 8.18239C84.1971 8.09106 84.3501 8.01981 84.5285 7.96873C84.7083 7.91839 84.9083 7.89321 85.1303 7.89321C85.8397 7.89321 86.4669 8.07162 87.0126 8.42843V7.22705C86.5057 7.00477 85.9307 6.89365 85.2893 6.89365C84.9277 6.89365 84.5764 6.93968 84.2363 7.03102C83.8962 7.12313 83.5928 7.25942 83.3272 7.44071C83.0617 7.62127 82.8497 7.84576 82.6902 8.11408C82.5316 8.38132 82.4514 8.68959 82.4514 9.03666C82.4514 9.32158 82.494 9.56977 82.5785 9.78196C82.6634 9.9942 82.788 10.1841 82.9553 10.3503C83.1212 10.5172 83.329 10.6668 83.5777 10.7992C83.8259 10.9323 84.1143 11.0632 84.4432 11.1941C84.679 11.2855 84.8997 11.374 85.1048 11.4581C85.31 11.5423 85.4884 11.638 85.6402 11.7437C85.7932 11.8502 85.9126 11.9718 86.0027 12.1099C86.091 12.2473 86.1367 12.4153 86.1367 12.6128C86.1367 13.3077 85.6147 13.6548 84.5729 13.6548C83.7958 13.6548 83.0841 13.416 82.4367 12.9386V14.2127C82.9971 14.5073 83.6574 14.6548 84.4212 14.6548ZM94.8165 13.5868C95.485 12.875 95.8186 11.9279 95.8186 10.746C95.8186 9.53916 95.5091 8.59571 94.8884 7.91515C94.2682 7.23459 93.4057 6.89434 92.3014 6.89434C91.1428 6.89434 90.2234 7.24395 89.5432 7.94395C88.8622 8.6439 88.5216 9.61649 88.5216 10.8618C88.5216 12.0056 88.8488 12.9236 89.5027 13.6163C90.157 14.3084 91.0311 14.6551 92.1272 14.6551C93.2514 14.6548 94.1475 14.2986 94.8165 13.5868ZM93.9837 8.64571C94.3962 9.14783 94.6031 9.86218 94.6031 10.7888C94.6031 11.706 94.3966 12.4135 93.9837 12.9102C93.5712 13.407 92.9815 13.6552 92.2143 13.6552C91.4609 13.6552 90.8596 13.4023 90.4113 12.8951C89.9626 12.3887 89.7384 11.6959 89.7384 10.8175C89.7384 9.90533 89.9604 9.19028 90.4044 8.67089C90.8484 8.15218 91.4514 7.89321 92.2143 7.89321C92.9815 7.89321 93.5712 8.14464 93.9837 8.64571ZM101.23 3.47725C101.018 3.3902 100.731 3.34668 100.369 3.34668C99.6988 3.34668 99.1389 3.57293 98.6897 4.02398C98.241 4.47502 98.0169 5.08938 98.0169 5.86632V7.0677H96.7497V8.08097H98.0169V14.481H99.1962V8.08097H100.934V7.0677H99.1962V5.92352C99.1962 4.87718 99.6113 4.35347 100.442 4.35347C100.735 4.35347 100.999 4.41821 101.23 4.54843V3.47725H101.23ZM105.498 13.3951C105.281 13.5591 105.022 13.6415 104.725 13.6415C104.333 13.6415 104.053 13.5347 103.884 13.3224C103.714 13.1102 103.631 12.7556 103.631 12.2585V8.08097H105.498V7.0677H103.631V4.87395L102.444 5.25808V7.06735H101.17V8.08063H102.444V12.4682C102.444 13.9156 103.093 14.64 104.391 14.64C104.85 14.64 105.218 14.5623 105.498 14.4083V13.3951Z" fill="#B1BECA"></path></g><defs><clipPath id="clip0_83_7"><rect width="118.966" height="50" fill="white"></rect></clipPath></defs></svg> 