<?xml version="1.0" encoding="UTF-8"?> <svg xmlns="http://www.w3.org/2000/svg" width="167" height="50" viewBox="0 0 167 50" fill="none"><g clip-path="url(#clip0_82_73)"><path d="M164.179 25.2238V24.7761H164.477C164.627 24.7761 164.851 24.7761 164.851 24.9999C164.851 25.2238 164.701 25.2238 164.552 25.2238H164.179ZM164.179 25.5223H164.403L164.851 26.3432H165.373L164.851 25.5223C165.075 25.5223 165.298 25.3731 165.298 24.9999C165.298 24.5522 165 24.4029 164.477 24.4029H163.731V26.2686H164.179V25.5223ZM166.343 25.3731C166.343 24.2537 165.448 23.582 164.477 23.582C163.507 23.582 162.612 24.2537 162.612 25.3731C162.612 26.4925 163.507 27.1641 164.477 27.1641C165.448 27.1641 166.343 26.4925 166.343 25.3731ZM165.821 25.3731C165.821 26.194 165.224 26.7164 164.552 26.7164C163.806 26.7164 163.209 26.194 163.209 25.3731C163.209 24.5522 163.806 24.0298 164.552 24.0298C165.224 24.0298 165.821 24.5522 165.821 25.3731Z" fill="#B1BECA"></path><path d="M98.9551 6.4926V26.5673H104.627V6.4926H98.9551ZM54.4028 6.41797V26.4926H60.1491V10.8956H64.6267C66.1192 10.8956 67.0894 11.2688 67.8357 12.015C68.7312 12.9852 69.1043 14.4777 69.1043 17.3135V26.4926H74.6267V15.4479C74.6267 7.53741 69.5521 6.4926 64.6267 6.4926H54.4028V6.41797ZM108.06 6.4926V26.5673H117.239C122.164 26.5673 123.731 25.7464 125.448 23.9553C126.642 22.6867 127.463 19.8508 127.463 16.7911C127.463 13.9553 126.791 11.4926 125.597 9.92547C123.507 7.08961 120.448 6.56722 115.97 6.56722L108.06 6.4926ZM113.657 10.821H116.119C119.627 10.821 121.94 12.3882 121.94 16.4926C121.94 20.5971 119.627 22.1643 116.119 22.1643H113.657V10.821ZM90.7461 6.4926L86.0446 22.3882L81.4924 6.4926H75.373L81.8655 26.5673H89.9998L96.4924 6.4926H90.7461ZM130.074 26.4926H135.746V6.4926H130.074V26.4926ZM145.97 6.4926L138.06 26.4926H143.657L144.925 22.9852H154.254L155.448 26.4926H161.492L153.507 6.4926H145.97ZM149.627 10.1493L153.06 19.5523H146.119L149.627 10.1493Z" fill="#B1BECA"></path><path d="M17.9107 9.77635V7.01516C18.2092 7.01516 18.4331 7.01516 18.7316 6.94053C26.2689 6.71665 31.1943 13.4331 31.1943 13.4331C31.1943 13.4331 25.8211 20.8958 20.1495 20.8958C19.3286 20.8958 18.5823 20.7465 17.9107 20.5226V12.1644C20.8211 12.5375 21.4181 13.8062 23.2092 16.7913L27.1644 13.5077C27.1644 13.5077 24.3286 9.77635 19.4778 9.77635C18.8808 9.70172 18.3584 9.77635 17.9107 9.77635ZM17.9107 0.671875V4.77635C18.2092 4.77635 18.4331 4.70172 18.7316 4.70172C29.1793 4.40322 36.045 13.3584 36.045 13.3584C36.045 13.3584 28.1346 22.9107 20.0002 22.9107C19.254 22.9107 18.5823 22.8361 17.9107 22.7614V25.2987C18.5077 25.3734 19.0301 25.448 19.7017 25.448C27.3137 25.448 32.8361 21.5674 38.1346 16.9405C39.0301 17.6122 42.6122 19.4032 43.3584 20.1495C38.2838 24.4032 26.4928 27.8361 19.7764 27.8361C19.1047 27.8361 18.5077 27.7614 17.9107 27.7614V31.3435H46.8659V0.671875H17.9107ZM17.9107 20.5972V22.7614C10.8211 21.4928 8.88083 14.1793 8.88083 14.1793C8.88083 14.1793 12.239 10.448 17.9107 9.85098V12.239C15.0002 11.8659 12.6868 14.6271 12.6868 14.6271C12.6868 14.6271 13.8808 19.254 17.9107 20.5972ZM5.37337 13.8808C5.37337 13.8808 9.55248 7.6868 17.9107 7.08978V4.85098C8.65695 5.59725 0.671875 13.4331 0.671875 13.4331C0.671875 13.4331 5.22411 26.4928 17.9107 27.6868V25.2987C8.58233 24.1047 5.37337 13.8808 5.37337 13.8808Z" fill="#B1BECA"></path><path d="M17.9106 49.3335V38.873H19.0433V49.3335H17.9106Z" fill="#B1BECA"></path><path d="M28.4377 49.3335L22.9076 40.9385V49.3335H21.7749V38.873H22.8409L28.371 47.2014V38.873H29.5036V49.3335H28.4377Z" fill="#B1BECA"></path><path d="M35.5668 49.4001C34.5674 49.4001 33.6347 49.0004 32.9017 48.3341C31.9023 47.3347 31.9023 46.3353 31.9023 44.1366C31.9023 41.9379 31.9023 40.8719 32.9017 39.9391C33.6347 39.2062 34.5674 38.873 35.5668 38.873C37.4324 38.873 38.8316 40.0057 39.1647 42.0045H38.032C37.7656 40.7386 36.8327 39.8724 35.5668 39.8724C34.9006 39.8724 34.2343 40.1389 33.7679 40.6054C33.1016 41.2716 33.035 42.0045 33.035 44.2032C33.035 46.4019 33.1016 47.1348 33.7679 47.8011C34.2343 48.2675 34.9006 48.534 35.5668 48.534C36.8994 48.534 37.7656 47.6678 38.0987 46.4019H39.2313C38.8982 48.2674 37.4324 49.4001 35.5668 49.4001Z" fill="#B1BECA"></path><path d="M41.4966 49.3335V38.873H47.9594V39.8724H42.5626V43.5369H47.1599V44.5363H42.5626V48.3341H47.9594V49.3335H41.4966Z" fill="#B1BECA"></path><path d="M54.0892 45.002H51.2909V49.2662H50.1582V38.8057H54.0226C55.9548 38.8057 57.2207 40.005 57.2207 41.8705C57.2873 43.8028 55.9548 45.002 54.0892 45.002ZM53.956 39.8717H51.2909V44.0026H53.956C55.2885 44.0026 56.1547 43.2697 56.1547 41.9372C56.1547 40.538 55.2885 39.8717 53.956 39.8717Z" fill="#B1BECA"></path><path d="M62.7505 39.8724V49.3335H61.6179V39.8724H58.6196V38.873H65.7488V39.8724H62.7505Z" fill="#B1BECA"></path><path d="M67.8145 49.3335V38.873H68.9471V49.3335H67.8145Z" fill="#B1BECA"></path><path d="M77.6755 48.3341C76.9426 49.067 76.0762 49.4001 75.0106 49.4001C73.9442 49.4001 73.078 49.0004 72.3452 48.3341C71.3457 47.3347 71.3457 46.3353 71.3457 44.1366C71.3457 41.9379 71.3457 40.8719 72.3452 39.9391C73.078 39.2062 73.9442 38.873 75.0106 38.873C76.0762 38.873 76.9426 39.2727 77.6755 39.9391C78.6747 40.9385 78.6747 41.9379 78.6747 44.1366C78.6747 46.3353 78.6747 47.3347 77.6755 48.3341ZM76.8091 40.5387C76.3426 40.0723 75.6762 39.8058 75.0106 39.8058C74.344 39.8058 73.6777 40.0723 73.2113 40.5387C72.545 41.205 72.4784 41.9379 72.4784 44.07C72.4784 46.2686 72.545 46.9349 73.2113 47.6012C73.6777 48.0676 74.344 48.3341 75.0106 48.3341C75.6762 48.3341 76.3426 48.0676 76.8091 47.6012C77.4755 46.9349 77.5419 46.202 77.5419 44.07C77.5419 41.9379 77.4755 41.205 76.8091 40.5387Z" fill="#B1BECA"></path><path d="M87.8023 49.3335L82.2725 40.9385V49.3335H81.1396V38.873H82.2061L87.7359 47.2014V38.873H88.8688V49.3335H87.8023Z" fill="#B1BECA"></path><path d="M99.3954 45.002H96.6641V49.2662H95.5312V38.8057H99.3954C101.328 38.8057 102.594 40.005 102.594 41.8705C102.66 43.8028 101.328 45.002 99.3954 45.002ZM99.329 39.8717H96.6641V44.0026H99.329C100.662 44.0026 101.528 43.2697 101.528 41.9372C101.528 40.538 100.595 39.8717 99.329 39.8717Z" fill="#B1BECA"></path><path d="M110.789 49.3335L108.39 44.6696H105.859V49.3335H104.726V38.873H108.724C110.522 38.873 111.789 40.0057 111.789 41.8046C111.789 43.3371 110.856 44.3365 109.523 44.603L111.988 49.3335H110.789ZM108.657 39.8724H105.859V43.6702H108.657C109.856 43.6702 110.722 43.0705 110.722 41.738C110.722 40.5387 109.856 39.8724 108.657 39.8724Z" fill="#B1BECA"></path><path d="M120.25 48.3341C119.517 49.067 118.651 49.4001 117.585 49.4001C116.519 49.4001 115.653 49.0004 114.92 48.3341C113.921 47.3347 113.921 46.3353 113.921 44.1366C113.921 41.9379 113.921 40.8719 114.92 39.9391C115.653 39.2062 116.519 38.873 117.585 38.873C118.651 38.873 119.517 39.2727 120.25 39.9391C121.249 40.9385 121.249 41.9379 121.249 44.1366C121.249 46.3353 121.249 47.3347 120.25 48.3341ZM119.451 40.5387C118.984 40.0723 118.318 39.8058 117.651 39.8058C116.985 39.8058 116.319 40.0723 115.853 40.5387C115.187 41.205 115.12 41.9379 115.12 44.07C115.12 46.2686 115.187 46.9349 115.853 47.6012C116.319 48.0676 116.985 48.3341 117.651 48.3341C118.318 48.3341 118.984 48.0676 119.451 47.6012C120.117 46.9349 120.184 46.202 120.184 44.07C120.184 41.9379 120.05 41.205 119.451 40.5387Z" fill="#B1BECA"></path><path d="M129.845 48.2009C129.112 49.0004 128.112 49.4001 127.046 49.4001C126.047 49.4001 125.114 49.0004 124.381 48.3341C123.381 47.3347 123.381 46.3353 123.381 44.1366C123.381 41.9379 123.381 40.8719 124.381 39.9391C125.114 39.2062 125.98 38.873 127.046 38.873C129.045 38.873 130.378 40.1389 130.71 42.0045H129.578C129.311 40.6719 128.378 39.8724 127.046 39.8724C126.38 39.8724 125.713 40.1389 125.247 40.6054C124.581 41.2716 124.514 42.0045 124.514 44.1366C124.514 46.3353 124.581 47.0682 125.247 47.7345C125.713 48.2009 126.38 48.4674 127.046 48.4674C127.779 48.4674 128.512 48.1342 129.045 47.6012C129.445 47.0682 129.645 46.5351 129.645 45.7357V44.9361H127.046V43.9367H130.71V45.6024C130.778 46.7351 130.51 47.5346 129.845 48.2009Z" fill="#B1BECA"></path><path d="M139.172 49.3335L136.774 44.6696H134.242V49.3335H133.109V38.873H137.107C138.906 38.873 140.172 40.0057 140.172 41.8046C140.172 43.3371 139.239 44.3365 137.907 44.603L140.372 49.3335H139.172ZM137.107 39.8724H134.308V43.6702H137.107C138.306 43.6702 139.172 43.0705 139.172 41.738C139.172 40.5387 138.306 39.8724 137.107 39.8724Z" fill="#B1BECA"></path><path d="M149.433 49.3335L148.567 47.0016H144.036L143.17 49.3335H141.971L145.835 38.873H146.768L150.565 49.3335H149.433ZM146.368 40.4721L144.436 46.0021H148.367L146.368 40.4721Z" fill="#B1BECA"></path><path d="M160.36 49.3335V41.4048L157.495 47.6678H156.562L153.63 41.4048V49.3335H152.498V38.873H153.63L157.028 46.2686L160.36 38.873H161.492V49.3335H160.36Z" fill="#B1BECA"></path></g><defs><clipPath id="clip0_82_73"><rect width="166.418" height="50" fill="white"></rect></clipPath></defs></svg> 