<?xml version="1.0" encoding="UTF-8"?> <svg xmlns="http://www.w3.org/2000/svg" width="225" height="100" viewBox="0 0 225 100" fill="none"> <rect width="224" height="100" transform="translate(0.637695)" fill="white"></rect> <path d="M9.2097 46.292H15.9057C18.3177 46.292 20.4057 47.1603 20.4057 50.6336C20.4057 53.926 17.8857 54.9753 15.8337 54.9753H9.2097V46.292ZM4.6377 68.6876H9.2097V58.6657H16.1217C23.5737 58.738 24.9777 53.8898 24.9777 50.6336C24.9777 47.3774 23.5737 42.5292 16.1217 42.5292H4.6377V68.6876Z" fill="#B1BECA"></path> <path d="M28.0377 68.6876H32.6097V56.929H44.4177V68.6876H48.9897V42.5654H44.4177V52.9853H32.6097V42.6016H28.0377V68.6876Z" fill="#B1BECA"></path> <path d="M64.7217 41.9504C56.9817 41.9504 52.3017 48.1372 52.3017 55.6265C52.3017 63.1158 56.9817 69.3026 64.7217 69.3026C72.4617 69.3026 77.1417 63.1158 77.1417 55.6265C77.1417 48.1372 72.5337 41.9504 64.7217 41.9504ZM64.7217 45.6769C70.2657 45.6769 72.6057 50.6336 72.6057 55.6265C72.6057 60.6194 70.2657 65.5761 64.7217 65.5761C59.1777 65.5761 56.8377 60.6194 56.8377 55.6265C56.8377 50.6336 59.1777 45.6769 64.7217 45.6769Z" fill="#B1BECA"></path> <path d="M80.5977 68.6876H99.5697V64.7439H85.1697V57.0737H98.2017V53.3471H85.1697V46.5453H99.2817V42.6016H80.6337C80.5977 42.5654 80.5977 68.6876 80.5977 68.6876ZM102.558 68.6876H106.878V49.512H106.986L118.794 68.6876H123.618V42.5654H119.298V61.8133H119.226L107.346 42.5654H102.558V68.6876ZM128.298 68.6876H132.798V42.5654H128.298V68.6876ZM143.994 55.1562L134.778 68.6876H139.998L146.586 58.6657L153.066 68.6876H158.538L149.358 55.1562L157.926 42.6016H152.886L146.73 51.8276L140.826 42.6016H135.426L143.994 55.1562Z" fill="#B1BECA"></path> <path d="M181.29 53.7813C181.29 52.117 180.138 51.0678 178.014 51.0678H176.034C174.81 51.0678 174.234 50.8145 174.234 50.1995C174.234 49.8377 174.486 49.4397 174.99 49.2588C175.35 49.3673 175.926 49.4397 176.394 49.4397C179.238 49.4397 180.642 47.8477 180.642 45.7131C180.642 44.6639 180.282 43.8679 179.67 43.3614H181.506V42.3845H178.194C177.69 42.276 177.258 42.2036 176.79 42.2036C174.198 42.2036 172.614 43.9403 172.614 45.9664C172.614 47.2689 173.118 48.2457 174.018 48.8246C173.334 49.1502 172.974 49.6929 172.974 50.3804C172.974 50.9954 173.334 51.502 173.946 51.7914C173.01 52.2979 172.218 53.2024 172.218 54.4687C172.218 56.3139 173.802 57.327 176.214 57.327C179.166 57.3632 181.29 55.8074 181.29 53.7813ZM179.382 45.9302C179.382 47.5945 178.266 48.5352 176.61 48.5352C174.81 48.5352 173.838 47.5945 173.838 45.9302C173.838 44.3744 174.882 43.2529 176.682 43.2529C178.41 43.2529 179.382 44.2659 179.382 45.9302ZM180.066 53.9622C180.066 55.3732 178.698 56.3139 176.502 56.3139C174.774 56.3139 173.478 55.6265 173.478 54.2878C173.478 53.4195 174.09 52.6959 174.954 52.1894H177.654C179.274 52.1532 180.066 52.8406 180.066 53.9622Z" fill="#B1BECA"></path> <path d="M188.634 42.276C186.474 42.0227 185.502 43.5785 185.142 44.9895H185.07C185.25 44.1212 185.322 43.1443 185.322 42.4569H184.098V52.2256H185.322V48.3181C185.322 44.9171 186.366 43.1081 188.598 43.5061L188.634 42.276Z" fill="#B1BECA"></path> <path d="M198.462 47.1603C198.462 43.5061 196.482 42.276 194.214 42.276C191.334 42.276 189.642 44.6277 189.642 47.3412C189.642 50.7422 191.298 52.3703 193.89 52.3703C196.77 52.3703 198.462 50.0186 198.462 47.1603ZM197.238 47.2327C197.238 50.0909 195.762 51.321 194.178 51.321C192.162 51.321 191.046 49.8377 191.046 47.2327C191.046 44.5192 192.594 43.289 194.178 43.289C196.194 43.2529 197.238 44.8086 197.238 47.2327Z" fill="#B1BECA"></path> <path d="M208.83 42.4569H207.606V47.088C207.606 49.5482 206.31 51.3572 204.474 51.3572C202.926 51.3572 202.494 50.3804 202.494 48.7522V42.4569H201.27V49.2588C201.27 50.9954 201.954 52.4065 204.222 52.4065C205.95 52.4065 207.174 51.4296 207.714 49.9462H207.786C207.678 50.5613 207.606 51.5381 207.606 52.1894H208.83V42.4569Z" fill="#B1BECA"></path> <path d="M220.638 46.9071C220.638 43.8679 219.342 42.3122 217.074 42.3122C215.526 42.3122 214.23 43.2529 213.69 44.7362H213.618C213.726 44.1212 213.798 43.1443 213.798 42.4931H212.574V57.1461H213.798V52.1894C214.482 52.2979 215.022 52.2979 215.706 52.2979C218.658 52.2979 220.638 50.4527 220.638 46.9071ZM219.342 46.9794C219.342 50.0186 217.938 51.321 215.85 51.321C215.058 51.321 214.446 51.2487 213.834 50.9954V47.4859C213.834 45.7493 214.806 43.289 216.894 43.289C218.55 43.2529 219.342 44.7001 219.342 46.9794Z" fill="#B1BECA"></path> <path fill-rule="evenodd" clip-rule="evenodd" d="M162.866 26.2791C161.837 29.5604 161.304 33.095 161.304 36.7766C161.304 56.8173 177.477 73.0715 197.418 73.0715C202.181 73.0715 206.73 72.1427 210.924 70.4284L211.272 71.2884C206.969 73.0474 202.302 74 197.418 74C176.967 74 160.38 57.3301 160.38 36.7766C160.38 33.005 160.926 29.3759 161.985 26L162.866 26.2791Z" fill="#B1BECA"></path> </svg> 