<?xml version="1.0" encoding="UTF-8"?> <svg xmlns="http://www.w3.org/2000/svg" width="159" height="100" viewBox="0 0 159 100" fill="none"> <rect width="158" height="100" transform="translate(0.525391)" fill="white"></rect> <path d="M64.0609 63.9075C64.0609 62.6414 64.0222 61.7709 63.9835 60.7818C64.2544 60.7818 66.4222 60.7818 67.0802 60.7818C68.5125 60.7818 69.4802 61.2961 69.4802 62.5227C69.4802 63.7492 68.2802 64.3031 67.5447 64.3823C68.2802 64.4218 69.6738 64.8966 69.6738 66.2814C69.6738 67.9036 68.3189 68.5367 66.9254 68.5367C66.2673 68.5367 64.2544 68.5367 63.9835 68.5367C64.0222 67.508 64.0609 66.6771 64.0609 65.411V63.9075ZM66.4222 61.4148C66.0738 61.4148 66.0351 61.4148 65.8415 61.4544C65.8415 62.0083 65.8028 62.6414 65.8028 63.037C65.8028 63.4327 65.8028 63.8283 65.8028 64.1844H66.3447C67.0415 64.1844 67.6996 63.7096 67.6996 62.7601C67.6996 62.0083 67.3899 61.4148 66.4222 61.4148ZM66.3447 64.8175C66.1512 64.8175 65.9964 64.8175 65.8415 64.8175C65.8415 65.134 65.8028 65.4505 65.8028 65.9253C65.8028 66.598 65.8415 67.508 65.8415 67.9036C66.0351 67.9036 66.2286 67.9036 66.4996 67.9036C67.1964 67.9036 67.8157 67.3893 67.8157 66.3606C67.8157 65.3318 67.3125 64.8175 66.3447 64.8175Z" fill="#B1BECA"></path> <path d="M81.4802 63.9075C81.4802 62.6414 81.4415 61.7709 81.4028 60.7818C82.1383 60.7818 85.6996 60.7818 86.0093 60.7818C85.9705 60.9004 85.9705 61.5731 86.0093 61.7709C85.1189 61.6918 83.6093 61.6918 83.2609 61.6918C83.2222 62.5227 83.2609 63.2744 83.2609 64.0657C84.306 64.0657 85.0802 64.0262 85.9705 63.9866C85.9318 64.2636 85.9318 64.6988 85.9705 64.9758C85.0802 64.9362 84.1512 64.8571 83.2609 64.8571C83.2609 65.3318 83.2609 65.8066 83.2609 66.321C83.2609 66.7958 83.2609 67.1915 83.2996 67.6267C84.1899 67.6267 85.1189 67.6662 86.0093 67.5871C85.9705 67.7454 85.9705 68.4576 86.0093 68.6158C85.5835 68.6158 81.6738 68.6158 81.4028 68.6158C81.4802 67.5871 81.4802 66.7562 81.4802 65.4901V63.9075Z" fill="#B1BECA"></path> <path d="M104.358 68.5763C103.971 68.5763 102.616 68.5763 102.306 68.5763C102.035 67.8245 101.764 67.0332 101.454 66.2814C100.951 66.2814 99.1318 66.2814 98.706 66.2814C98.3576 67.0332 98.1254 67.8245 97.8544 68.6158C97.6996 68.6158 96.9641 68.6158 96.7318 68.6158C97.2738 67.3497 99.0544 63.314 100.138 60.7818C100.293 60.7818 100.874 60.7818 101.029 60.7818C102.035 63.2744 103.429 66.7562 104.358 68.5763ZM101.183 65.6088C100.835 64.6988 100.525 63.7888 100.138 62.9183C99.7125 63.8283 99.3641 64.6988 99.0157 65.6088H101.183Z" fill="#B1BECA"></path> <path d="M113.764 65.7671C113.764 64.5405 113.803 63.9075 113.803 63.1161C113.803 61.8896 113.764 61.1774 113.764 60.7818C114.112 60.7818 114.422 60.8213 114.732 60.8213C115.042 60.8213 115.39 60.8213 115.7 60.7818C115.545 62.2457 115.545 63.4327 115.545 64.7384C115.545 67.508 116.396 67.9432 117.906 67.9432C119.803 67.9432 119.958 65.9649 119.958 63.8679C119.958 62.8392 119.919 61.8105 119.842 60.7818C120.035 60.8213 120.267 60.8213 120.461 60.8213C120.693 60.8213 120.887 60.8213 121.042 60.7818C120.964 61.4544 120.887 63.0766 120.887 65.0549C120.887 67.6662 119.687 68.7345 117.364 68.7345C115.351 68.7345 113.764 67.9036 113.764 65.7671Z" fill="#B1BECA"></path> <path d="M133.39 62.6018C133.39 62.2061 133.429 61.8105 133.39 61.6522C132.964 61.6522 131.919 61.6522 131.222 61.7313C131.261 61.5731 131.261 60.94 131.222 60.7422C132.306 60.7422 136.293 60.7422 137.338 60.7422C137.3 60.94 137.3 61.5731 137.338 61.7313C136.719 61.6918 135.635 61.6918 135.209 61.6918C135.209 61.85 135.209 62.2061 135.209 62.6018V65.411C135.209 66.6771 135.248 67.508 135.287 68.5367C135.016 68.5367 133.583 68.5367 133.351 68.5367C133.429 67.508 133.429 66.6771 133.429 65.411C133.39 65.4505 133.39 62.6018 133.39 62.6018Z" fill="#B1BECA"></path> <path d="M151.583 64.1844C152.242 63.314 152.861 61.8896 153.364 60.7818C153.558 60.7818 154.293 60.7818 154.525 60.7818C153.983 61.6522 152.783 63.7888 152.009 65.2131C152.009 65.5692 152.009 65.8462 152.009 66.2419C152.009 66.9936 152.009 67.7849 152.125 68.6158C151.777 68.6158 150.461 68.6158 150.112 68.6158C150.151 67.9036 150.267 67.1519 150.267 66.4397C150.267 66.0836 150.267 65.7275 150.229 65.411C149.377 63.9075 148.022 61.4544 147.674 60.8213C148.061 60.8213 149.454 60.8213 149.803 60.8213C150.345 61.8896 151.235 63.6701 151.583 64.1844Z" fill="#B1BECA"></path> <path d="M34.0222 23.5105C33.8286 27.7441 33.8286 33.1251 33.8286 37.9126C33.8286 46.8149 33.9447 48.7932 35.5705 51.0089C37.1964 53.1851 40.2544 54.4116 44.1641 54.4116C48.7318 54.4116 52.3318 52.0772 53.5705 48.6745C54.0351 47.448 54.306 45.7467 54.306 41.157C54.306 33.8768 54.2286 26.5967 53.8028 19.3165C54.577 19.4352 58.1383 19.4352 58.9899 19.3165L58.7964 21.9675C58.5254 26.7945 58.3706 38.2687 58.2544 43.9266C58.1383 50.5341 56.2415 53.5412 52.5254 55.8756C49.8544 57.5373 46.0996 58.2891 43.0415 58.2891C36.306 58.2495 28.177 56.1525 26.977 47.4876C26.8609 46.6962 26.8609 45.0345 26.8609 44.5597V29.3267C26.8609 26.478 26.7447 22.1257 26.5899 19.277C27.906 19.4352 33.0544 19.4352 34.177 19.277L34.0222 23.5105Z" fill="#B1BECA"></path> <path d="M67.4673 34.6286C67.4673 32.1755 67.4673 31.6216 67.3125 26.6758C67.2351 25.4888 67.1576 20.4639 67.0802 19.4352C68.5125 19.7122 73.506 19.6726 74.8996 19.4352C74.5125 27.8232 74.3189 34.866 74.3189 43.4123C74.3189 47.2897 74.4351 50.9298 74.5125 53.9764H75.5189C77.1447 53.9764 85.2738 53.9764 88.6028 53.462C88.4093 54.0555 88.3705 56.8647 88.6028 57.5769C85.7383 57.4978 80.8996 57.2604 77.8415 57.2604C74.2028 57.2604 71.1835 57.3791 67.0802 57.5769C67.0802 56.7064 67.4673 43.8079 67.4673 42.3835V34.6286Z" fill="#B1BECA"></path> <path d="M104.358 49.9802C104.358 54.2138 104.59 56.0338 104.745 57.5769C103.119 57.4186 98.8222 57.3791 96.7706 57.5769C97.0028 53.3433 97.3125 49.0702 97.3125 44.8366L97.2738 29.3267C97.2738 27.2693 97.2351 25.3306 97.1189 23.1544H94.3318C93.8286 23.1544 88.448 23.2731 85.5447 23.5501C85.7383 22.917 85.8544 19.7913 85.6609 19.1187C90.1125 19.3957 96.2673 19.3957 100.603 19.3957C105.287 19.3957 110.319 19.3165 115.661 19C115.506 19.9892 115.429 22.6796 115.622 23.5501C112.293 23.2336 108.267 23.1544 104.396 23.1544C104.358 25.1723 104.319 27.2693 104.319 29.3663V49.9802H104.358Z" fill="#B1BECA"></path> <path d="M137.609 51.5233L135.248 45.628C132.848 45.5488 123.558 45.5488 121.351 45.628C119.532 49.9011 117.751 54.4907 116.861 57.656C116.125 57.5769 112.409 57.5769 111.596 57.656L118.138 43.3727C123.829 30.8698 127.08 23.6292 128.396 19.3165H132.074C134.783 26.6758 138.112 34.4703 140.164 39.1391C142.293 43.9662 146.009 52.3146 148.525 57.6956C147.712 57.656 141.016 57.656 140.009 57.6956L137.609 51.5233ZM128.319 28.5354L122.59 42.1857C124.564 42.2648 126.461 42.344 128.435 42.344C129.558 42.344 131.261 42.344 133.622 42.1857L128.319 28.5354Z" fill="#B1BECA"></path> <path d="M18.4609 20.9783C9.67378 27.111 4.52539 34.7077 4.52539 44.0849C4.52539 65.2923 29.5706 81 65.3383 81C81.3641 81 94.7576 76.7664 104.629 71.5437H104.009C92.0867 75.2234 79.9705 76.7664 67.506 76.7664C31.6222 76.7269 6.88668 59.4761 6.84797 43.5705C6.84797 34.7077 10.8351 27.111 18.4609 21.5322V20.9783Z" fill="#B1BECA"></path> <path d="M144.074 19.2374C145.274 19.2374 146.319 20.2265 146.319 21.5322C146.319 22.8379 145.312 23.8271 144.074 23.8271C142.874 23.8271 141.79 22.8379 141.79 21.5322C141.79 20.2265 142.874 19.2374 144.074 19.2374ZM144.074 23.5105C145.119 23.5105 145.932 22.6796 145.932 21.5322C145.932 20.4244 145.119 19.5935 144.074 19.5935C142.99 19.5935 142.216 20.4244 142.216 21.5322C142.254 22.6401 143.029 23.5105 144.074 23.5105ZM143.183 20.187H144.19C144.809 20.187 145.119 20.4639 145.119 20.9783C145.119 21.4531 144.809 21.6509 144.422 21.6905L145.196 22.8775H144.732L144.035 21.6905H143.571V22.8775H143.183V20.187ZM143.571 21.374H143.996C144.345 21.374 144.693 21.3344 144.693 20.9387C144.693 20.5431 144.345 20.5035 144.074 20.5035H143.571V21.374Z" fill="#B1BECA"></path> </svg> 