<svg width="824" height="117" viewBox="0 0 824 117" fill="none" xmlns="http://www.w3.org/2000/svg">
<g clip-path="url(#clip0_712_491)">
<path d="M0 53.099V1.9115H25.4768V52.4678C25.4768 68.3642 31.8437 74.7209 42.672 74.7209C53.5003 74.7209 59.5512 68.3642 59.5512 52.4678V1.9115H84.7119V53.099C84.7119 80.7621 69.1061 96.3428 42.3559 96.3428C15.9219 96.3428 0 80.7621 0 53.099Z" fill="#4EBDB4"/>
<path d="M92.9934 86.1631L101.275 66.7683C109.24 72.1692 120.701 75.9923 130.888 75.9923C141.075 75.9923 145.536 72.8094 145.536 68.3642C145.536 53.7392 94.2668 64.5502 94.2668 29.8902C94.5829 13.3537 107.642 0 134.392 0C146.178 0 158.279 2.85828 167.193 7.95268L159.228 27.3475C150.63 22.5777 142.032 20.3506 134.392 20.3506C123.564 20.3506 119.744 24.1646 119.744 28.6188C119.744 42.6127 170.697 32.1173 170.697 66.4527C170.697 82.6646 157.638 96.3429 130.888 96.3429C116.239 96.3429 101.591 92.2132 92.9934 86.1721" fill="#4EBDB4"/>
<path d="M356.35 60.4115C356.35 66.4527 351.572 71.2225 345.521 71.2225C339.471 71.2225 334.693 66.4527 334.693 60.4115C334.693 54.3704 339.471 49.6006 345.521 49.6006C351.572 49.285 356.35 54.3704 356.35 60.4115ZM345.521 48.3292C338.829 48.3292 333.42 53.7302 333.42 60.0959C333.42 66.4527 338.513 71.8627 345.205 71.8627C351.897 71.8627 356.991 66.4617 356.991 60.0959C357.307 53.7392 352.213 48.3292 345.53 48.3292" fill="#4EBDB4"/>
<path d="M342.342 59.7713V55.3171H346.163C348.077 55.3171 349.025 56.2729 349.025 57.5442C349.025 59.1312 347.752 59.7713 345.837 59.7713H342.333H342.342ZM347.436 61.0427C349.351 60.7271 350.624 59.4558 350.624 57.5442C350.624 56.5885 350.308 55.9573 349.667 55.3171C349.025 54.6769 347.752 54.0458 346.163 54.0458H340.753V66.1281H342.026V61.3583H345.53L349.351 66.1281H351.265L347.445 61.0427H347.436Z" fill="#4EBDB4"/>
<path d="M193.943 48.9604V10.811H223.556C239.162 10.811 248.392 17.8079 248.392 29.5656C248.392 35.2912 245.845 40.3766 241.384 43.875C236.922 47.3735 230.555 48.9604 223.231 48.9604H193.934H193.943ZM233.111 57.2287L232.47 56.2729L233.743 55.9573C249.349 52.7744 257.947 42.9192 257.947 28.9344C257.947 22.2531 255.4 15.8964 250.622 11.1266C244.572 5.0854 235.333 1.90253 224.188 1.90253H184.695V95.3781H194.25V57.5442H221.958L222.274 57.8598L250.939 95.0625H262.724L233.111 57.2287Z" fill="#4EBDB4"/>
<path d="M318.455 48.0137L297.124 74.721L296.483 75.3521L295.85 74.721L274.826 48.0137H263.682L290.432 81.3933L290.748 82.0335L290.432 82.3491L262.408 117H273.553L295.525 89.0214L296.167 88.3902L296.799 89.0214L319.097 117H330.241L302.533 82.3491L302.217 81.7089L302.533 81.3933L329.284 48.0137H318.455Z" fill="#4EBDB4"/>
</g>
<path d="M425.242 39.3976V44.4364H418.308V65.2167H411.934V44.4364H405V39.3976H425.242Z" fill="#4EBDB4"/>
<path d="M441.227 44.4732C443.613 44.4732 445.526 45.2578 446.968 46.827C448.409 48.3718 449.13 50.505 449.13 53.2266V65.2167H442.793V54.0726C442.793 52.6995 442.432 51.6329 441.712 50.8728C440.991 50.1127 440.022 49.7326 438.804 49.7326C437.586 49.7326 436.617 50.1127 435.896 50.8728C435.176 51.6329 434.815 52.6995 434.815 54.0726V65.2167H428.441V38H434.815V47.4523C435.461 46.5451 436.344 45.8217 437.462 45.2823C438.58 44.7429 439.835 44.4732 441.227 44.4732Z" fill="#4EBDB4"/>
<path d="M473.167 54.6243C473.167 55.2127 473.13 55.8257 473.056 56.4632H458.629C458.729 57.7382 459.139 58.719 459.859 59.4056C460.605 60.0676 461.512 60.3986 462.581 60.3986C464.171 60.3986 465.277 59.7366 465.898 58.4125H472.683C472.335 59.7611 471.701 60.9748 470.782 62.0537C469.887 63.1325 468.756 63.9785 467.389 64.5914C466.023 65.2044 464.494 65.5109 462.804 65.5109C460.766 65.5109 458.952 65.0818 457.362 64.2237C455.771 63.3655 454.529 62.1395 453.634 60.5457C452.739 58.952 452.292 57.0885 452.292 54.9553C452.292 52.8221 452.727 50.9586 453.597 49.3648C454.491 47.771 455.734 46.5451 457.324 45.6869C458.915 44.8287 460.742 44.3996 462.804 44.3996C464.817 44.3996 466.607 44.8164 468.172 45.6501C469.738 46.4838 470.956 47.673 471.825 49.2177C472.72 50.7624 473.167 52.5646 473.167 54.6243ZM466.644 52.9692C466.644 51.8903 466.271 51.0321 465.526 50.3946C464.78 49.7571 463.848 49.4384 462.73 49.4384C461.661 49.4384 460.754 49.7449 460.008 50.3579C459.288 50.9708 458.84 51.8413 458.666 52.9692H466.644Z" fill="#4EBDB4"/>
<path d="M490.804 44.4364V49.659H499.341V54.5139H490.804V60.1779H500.459V65.2167H484.43V39.3976H500.459V44.4364H490.804Z" fill="#4EBDB4"/>
<path d="M513.954 59.332L518.465 44.6938H525.249L517.868 65.2167H510.003L502.622 44.6938H509.444L513.954 59.332Z" fill="#4EBDB4"/>
<path d="M547.54 54.6243C547.54 55.2127 547.503 55.8257 547.429 56.4632H533.002C533.102 57.7382 533.512 58.719 534.232 59.4056C534.978 60.0676 535.885 60.3986 536.954 60.3986C538.544 60.3986 539.65 59.7366 540.271 58.4125H547.056C546.708 59.7611 546.074 60.9748 545.155 62.0537C544.26 63.1325 543.129 63.9785 541.762 64.5914C540.396 65.2044 538.867 65.5109 537.177 65.5109C535.139 65.5109 533.325 65.0818 531.735 64.2237C530.144 63.3655 528.902 62.1395 528.007 60.5457C527.112 58.952 526.665 57.0885 526.665 54.9553C526.665 52.8221 527.1 50.9586 527.97 49.3648C528.864 47.771 530.107 46.5451 531.697 45.6869C533.288 44.8287 535.115 44.3996 537.177 44.3996C539.19 44.3996 540.98 44.8164 542.545 45.6501C544.111 46.4838 545.329 47.673 546.198 49.2177C547.093 50.7624 547.54 52.5646 547.54 54.6243ZM541.017 52.9692C541.017 51.8903 540.644 51.0321 539.899 50.3946C539.153 49.7571 538.221 49.4384 537.103 49.4384C536.034 49.4384 535.127 49.7449 534.381 50.3579C533.661 50.9708 533.213 51.8413 533.039 52.9692H541.017Z" fill="#4EBDB4"/>
<path d="M563.578 44.4732C566.013 44.4732 567.951 45.2578 569.393 46.827C570.859 48.3718 571.592 50.505 571.592 53.2266V65.2167H565.255V54.0726C565.255 52.6995 564.895 51.6329 564.174 50.8728C563.453 50.1127 562.484 49.7326 561.266 49.7326C560.049 49.7326 559.079 50.1127 558.359 50.8728C557.638 51.6329 557.278 52.6995 557.278 54.0726V65.2167H550.903V44.6938H557.278V47.4155C557.924 46.5083 558.794 45.7972 559.887 45.2823C560.981 44.7429 562.211 44.4732 563.578 44.4732Z" fill="#4EBDB4"/>
<path d="M602.747 39.3976V44.4364H595.813V65.2167H589.439V44.4364H582.505V39.3976H602.747Z" fill="#4EBDB4"/>
<path d="M615.414 65.5109C613.376 65.5109 611.537 65.0818 609.897 64.2237C608.282 63.3655 607.002 62.1395 606.058 60.5457C605.138 58.952 604.678 57.0885 604.678 54.9553C604.678 52.8466 605.151 50.9954 606.095 49.4016C607.039 47.7833 608.332 46.5451 609.972 45.6869C611.612 44.8287 613.451 44.3996 615.489 44.3996C617.527 44.3996 619.366 44.8287 621.006 45.6869C622.646 46.5451 623.938 47.7833 624.883 49.4016C625.827 50.9954 626.299 52.8466 626.299 54.9553C626.299 57.0639 625.815 58.9274 624.846 60.5457C623.901 62.1395 622.596 63.3655 620.931 64.2237C619.291 65.0818 617.452 65.5109 615.414 65.5109ZM615.414 60.0676C616.632 60.0676 617.663 59.6262 618.508 58.7435C619.378 57.8608 619.813 56.5981 619.813 54.9553C619.813 53.3125 619.391 52.0497 618.546 51.167C617.726 50.2843 616.707 49.8429 615.489 49.8429C614.246 49.8429 613.215 50.2843 612.395 51.167C611.575 52.0252 611.165 53.2879 611.165 54.9553C611.165 56.5981 611.562 57.8608 612.358 58.7435C613.178 59.6262 614.197 60.0676 615.414 60.0676Z" fill="#4EBDB4"/>
<path d="M642.355 44.4732C644.791 44.4732 646.729 45.2578 648.171 46.827C649.637 48.3718 650.37 50.505 650.37 53.2266V65.2167H644.033V54.0726C644.033 52.6995 643.673 51.6329 642.952 50.8728C642.231 50.1127 641.262 49.7326 640.044 49.7326C638.827 49.7326 637.857 50.1127 637.137 50.8728C636.416 51.6329 636.056 52.6995 636.056 54.0726V65.2167H629.681V44.6938H636.056V47.4155C636.702 46.5083 637.571 45.7972 638.665 45.2823C639.758 44.7429 640.989 44.4732 642.355 44.4732Z" fill="#4EBDB4"/>
<path d="M674.408 54.6243C674.408 55.2127 674.37 55.8257 674.296 56.4632H659.869C659.969 57.7382 660.379 58.719 661.1 59.4056C661.845 60.0676 662.752 60.3986 663.821 60.3986C665.411 60.3986 666.517 59.7366 667.139 58.4125H673.923C673.575 59.7611 672.941 60.9748 672.022 62.0537C671.127 63.1325 669.997 63.9785 668.63 64.5914C667.263 65.2044 665.734 65.5109 664.045 65.5109C662.007 65.5109 660.193 65.0818 658.602 64.2237C657.012 63.3655 655.769 62.1395 654.874 60.5457C653.98 58.952 653.532 57.0885 653.532 54.9553C653.532 52.8221 653.967 50.9586 654.837 49.3648C655.732 47.771 656.974 46.5451 658.565 45.6869C660.155 44.8287 661.982 44.3996 664.045 44.3996C666.058 44.3996 667.847 44.8164 669.412 45.6501C670.978 46.4838 672.196 47.673 673.066 49.2177C673.96 50.7624 674.408 52.5646 674.408 54.6243ZM667.884 52.9692C667.884 51.8903 667.511 51.0321 666.766 50.3946C666.02 49.7571 665.088 49.4384 663.97 49.4384C662.901 49.4384 661.994 49.7449 661.249 50.3579C660.528 50.9708 660.081 51.8413 659.907 52.9692H667.884Z" fill="#4EBDB4"/>
<path d="M692.045 44.4364V49.659H700.581V54.5139H692.045V60.1779H701.699V65.2167H685.67V39.3976H701.699V44.4364H692.045Z" fill="#4EBDB4"/>
<path d="M718.139 65.2167L714.151 59.5159L710.796 65.2167H703.899L710.758 54.7346L703.713 44.6938H710.87L714.859 50.3579L718.214 44.6938H725.11L718.139 55.0288L725.297 65.2167H718.139Z" fill="#4EBDB4"/>
<path d="M734.127 47.5994C734.749 46.6431 735.606 45.8708 736.7 45.2823C737.793 44.6938 739.073 44.3996 740.539 44.3996C742.254 44.3996 743.807 44.8287 745.199 45.6869C746.591 46.5451 747.684 47.771 748.479 49.3648C749.299 50.9586 749.709 52.8098 749.709 54.9185C749.709 57.0272 749.299 58.8907 748.479 60.5089C747.684 62.1027 746.591 63.341 745.199 64.2237C743.807 65.0818 742.254 65.5109 740.539 65.5109C739.098 65.5109 737.818 65.2167 736.7 64.6282C735.606 64.0398 734.749 63.2797 734.127 62.3479V75H727.753V44.6938H734.127V47.5994ZM743.223 54.9185C743.223 53.3492 742.776 52.1233 741.881 51.2406C741.011 50.3333 739.93 49.8797 738.638 49.8797C737.371 49.8797 736.289 50.3333 735.395 51.2406C734.525 52.1478 734.09 53.386 734.09 54.9553C734.09 56.5245 734.525 57.7628 735.395 58.67C736.289 59.5772 737.371 60.0308 738.638 60.0308C739.905 60.0308 740.986 59.5772 741.881 58.67C742.776 57.7382 743.223 56.4877 743.223 54.9185Z" fill="#4EBDB4"/>
<path d="M772.662 54.6243C772.662 55.2127 772.624 55.8257 772.55 56.4632H758.123C758.223 57.7382 758.633 58.719 759.353 59.4056C760.099 60.0676 761.006 60.3986 762.075 60.3986C763.665 60.3986 764.771 59.7366 765.392 58.4125H772.177C771.829 59.7611 771.195 60.9748 770.276 62.0537C769.381 63.1325 768.25 63.9785 766.884 64.5914C765.517 65.2044 763.988 65.5109 762.298 65.5109C760.261 65.5109 758.446 65.0818 756.856 64.2237C755.265 63.3655 754.023 62.1395 753.128 60.5457C752.233 58.952 751.786 57.0885 751.786 54.9553C751.786 52.8221 752.221 50.9586 753.091 49.3648C753.986 47.771 755.228 46.5451 756.819 45.6869C758.409 44.8287 760.236 44.3996 762.298 44.3996C764.311 44.3996 766.101 44.8164 767.666 45.6501C769.232 46.4838 770.45 47.673 771.32 49.2177C772.214 50.7624 772.662 52.5646 772.662 54.6243ZM766.138 52.9692C766.138 51.8903 765.765 51.0321 765.02 50.3946C764.274 49.7571 763.342 49.4384 762.224 49.4384C761.155 49.4384 760.248 49.7449 759.503 50.3579C758.782 50.9708 758.335 51.8413 758.161 52.9692H766.138Z" fill="#4EBDB4"/>
<path d="M782.399 48.1143C783.144 46.9864 784.076 46.1037 785.195 45.4662C786.313 44.8042 787.556 44.4732 788.922 44.4732V51.1302H787.17C785.58 51.1302 784.387 51.4735 783.592 52.16C782.796 52.8221 782.399 53.999 782.399 55.6909V65.2167H776.024V44.6938H782.399V48.1143Z" fill="#4EBDB4"/>
<path d="M803.563 59.8837V65.2167H800.319C798.008 65.2167 796.206 64.665 794.914 63.5616C793.622 62.4337 792.976 60.607 792.976 58.0815V49.9165H790.441V44.6938H792.976V39.6918H799.35V44.6938H803.525V49.9165H799.35V58.1551C799.35 58.7681 799.499 59.2094 799.798 59.4791C800.096 59.7488 800.593 59.8837 801.289 59.8837H803.563Z" fill="#4EBDB4"/>
<path d="M815.575 65.5109C813.761 65.5109 812.146 65.2044 810.729 64.5914C809.313 63.9785 808.194 63.1448 807.374 62.0905C806.554 61.0116 806.094 59.8101 805.995 58.4861H812.295C812.369 59.1971 812.705 59.7734 813.301 60.2147C813.898 60.6561 814.631 60.8767 815.501 60.8767C816.296 60.8767 816.905 60.7296 817.327 60.4354C817.775 60.1166 817.998 59.7121 817.998 59.2217C817.998 58.6332 817.688 58.2041 817.066 57.9344C816.445 57.6402 815.439 57.3214 814.047 56.9781C812.556 56.6349 811.313 56.2793 810.319 55.9115C809.325 55.5192 808.468 54.9185 807.747 54.1093C807.026 53.2757 806.666 52.16 806.666 50.7624C806.666 49.5855 806.989 48.5189 807.635 47.5626C808.306 46.5818 809.275 45.8095 810.543 45.2455C811.835 44.6816 813.363 44.3996 815.128 44.3996C817.737 44.3996 819.788 45.0371 821.279 46.3121C822.795 47.5871 823.664 49.279 823.888 51.3877H817.998C817.899 50.6766 817.576 50.1127 817.029 49.6958C816.507 49.279 815.811 49.0706 814.942 49.0706C814.196 49.0706 813.624 49.2177 813.227 49.5119C812.829 49.7816 812.63 50.1617 812.63 50.6521C812.63 51.2406 812.941 51.6819 813.562 51.9761C814.208 52.2704 815.202 52.5646 816.544 52.8588C818.085 53.2512 819.34 53.6435 820.31 54.0358C821.279 54.4036 822.124 55.0166 822.844 55.8748C823.59 56.7084 823.975 57.8363 824 59.2584C824 60.4599 823.652 61.5388 822.956 62.495C822.285 63.4268 821.304 64.1624 820.011 64.7018C818.744 65.2412 817.265 65.5109 815.575 65.5109Z" fill="#4EBDB4"/>
<defs>
<clipPath id="clip0_712_491">
<rect width="357" height="117" fill="white"/>
</clipPath>
</defs>
</svg>
