<svg width="42" height="42" viewBox="0 0 42 42" fill="none" xmlns="http://www.w3.org/2000/svg">
<rect width="42" height="42" rx="21" fill="#FAFAFA"/>
<path d="M22.9998 24.9999C22.802 24.9999 22.6087 24.9412 22.4443 24.8313C22.2799 24.7214 22.1518 24.5653 22.0761 24.3826C22.0004 24.1999 21.9806 23.9988 22.0192 23.8049C22.0578 23.6109 22.153 23.4328 22.2928 23.2929L29.2928 16.2929C29.4814 16.1108 29.734 16.01 29.9962 16.0122C30.2584 16.0145 30.5092 16.1197 30.6946 16.3051C30.88 16.4905 30.9852 16.7413 30.9875 17.0035C30.9897 17.2657 30.8889 17.5183 30.7068 17.7069L23.7068 24.7069C23.5193 24.8945 23.265 24.9999 22.9998 24.9999ZM11.9998 25.9999C11.802 25.9999 11.6087 25.9412 11.4443 25.8313C11.2799 25.7214 11.1518 25.5653 11.0761 25.3826C11.0004 25.1999 10.9806 24.9988 11.0192 24.8049C11.0578 24.6109 11.153 24.4328 11.2928 24.2929L17.2928 18.2929C17.4814 18.1108 17.734 18.01 17.9962 18.0122C18.2584 18.0145 18.5092 18.1197 18.6946 18.3051C18.88 18.4905 18.9852 18.7413 18.9875 19.0035C18.9897 19.2657 18.8889 19.5183 18.7068 19.7069L12.7068 25.7069C12.5193 25.8945 12.265 25.9999 11.9998 25.9999Z" fill="#095140"/>
<path d="M22.9999 24.9999C22.7347 24.9999 22.4804 24.8945 22.2929 24.7069L17.2929 19.7069C17.1108 19.5183 17.01 19.2657 17.0122 19.0035C17.0145 18.7413 17.1197 18.4905 17.3051 18.3051C17.4905 18.1197 17.7413 18.0145 18.0035 18.0122C18.2657 18.01 18.5183 18.1108 18.7069 18.2929L23.7069 23.2929C23.8467 23.4328 23.9419 23.6109 23.9805 23.8049C24.0191 23.9988 23.9993 24.1999 23.9236 24.3826C23.8479 24.5653 23.7198 24.7214 23.5554 24.8313C23.391 24.9412 23.1977 24.9999 22.9999 24.9999Z" fill="#095140"/>
</svg>
