<?xml version="1.0" encoding="UTF-8"?> <svg xmlns="http://www.w3.org/2000/svg" width="409" height="53" viewBox="0 0 409 53" fill="none"><g clip-path="url(#clip0_83_12)"><path d="M73.6301 13.8301C63.6476 13.8301 56.6807 20.4851 55.8488 30.0516C55.7448 30.4676 55.9528 30.9875 56.2647 31.4034C56.5767 31.8194 57.0966 32.1313 57.7205 32.1313H57.9285C58.8643 32.1313 59.6962 31.2995 59.9042 30.2596C60.6321 22.6688 65.9353 17.5736 73.7341 17.5736C82.2608 17.5736 87.6679 23.3967 87.6679 32.5473C87.6679 42.0098 82.0528 48.3528 73.7341 48.3528C65.8313 48.3528 60.5281 43.1536 59.8002 35.1469C59.6962 34.107 58.8643 33.2752 57.9285 33.2752H57.7205C57.2006 33.2752 56.6807 33.5871 56.2647 34.003C55.9528 34.419 55.7448 34.8349 55.8488 35.3548C56.4727 45.1293 63.5436 52.0963 73.6301 52.0963C84.3404 52.0963 91.5153 44.1935 91.5153 32.5473C91.5153 21.109 84.5484 13.8301 73.6301 13.8301Z" fill="#B1BECA"></path><path d="M102.746 14.1416C101.706 14.1416 100.77 15.0775 100.77 16.1173V49.8082C100.77 50.848 101.602 51.7839 102.746 51.7839C103.785 51.7839 104.721 50.848 104.721 49.8082V16.1173C104.721 15.0775 103.785 14.1416 102.746 14.1416Z" fill="#B1BECA"></path><path d="M121.879 15.3897C121.463 14.3498 120.215 13.9339 119.279 14.3498L107.425 19.653C106.905 19.861 106.489 20.2769 106.385 20.7968C106.177 21.3167 106.177 21.8367 106.385 22.2526C106.697 22.9805 107.425 23.5004 108.153 23.5004C108.465 23.5004 108.777 23.3964 108.985 23.2924L120.839 17.9893C121.359 17.7813 121.775 17.3654 121.879 16.8454C122.191 16.3255 122.087 15.8056 121.879 15.3897Z" fill="#B1BECA"></path><path d="M22.5739 22.0444C21.5341 21.7325 20.3903 22.3564 20.0783 23.2922L14.0472 41.3855L13.2154 44.297L12.3835 41.3855L3.7528 15.5974C3.64882 14.7655 2.81695 14.1416 1.88109 14.1416C1.67312 14.1416 1.46515 14.1416 1.36117 14.2456C0.84125 14.3496 0.425311 14.7656 0.217343 15.1815C0.00937514 15.7014 -0.0946073 16.2213 0.113361 16.6373L11.4476 50.4321C11.6556 51.264 12.3835 51.7839 13.3193 51.7839C14.2552 51.7839 14.9831 51.264 15.1911 50.4321L23.8217 24.5401C24.1337 23.5002 23.5098 22.3564 22.5739 22.0444Z" fill="#B1BECA"></path><path d="M26.3175 15.494C26.0056 14.7661 25.2777 14.2461 24.3418 14.2461C24.1339 14.2461 23.9259 14.2462 23.614 14.3501C22.6781 14.7661 22.2622 15.8059 22.5741 16.8458L34.5323 50.6406C34.8442 51.3685 35.5721 51.8884 36.508 51.8884C36.7159 51.8884 36.9239 51.8884 37.2359 51.7844C38.1717 51.3685 38.5877 50.3286 38.2757 49.2888L26.3175 15.494Z" fill="#B1BECA"></path><path d="M49.61 15.2861C49.402 14.7662 48.9861 14.4542 48.4662 14.2462C47.4263 13.9343 46.3865 14.5582 46.0745 15.4941L37.2359 42.4259C36.9239 43.4658 37.5478 44.6096 38.5877 44.9215C38.7956 45.0255 38.8996 45.0255 39.1076 45.0255C39.9395 45.0255 40.7713 44.4016 41.0833 43.6737L49.8179 16.6379C49.9219 16.2219 49.8179 15.702 49.61 15.2861Z" fill="#B1BECA"></path><path d="M130.925 31.5072C132.069 31.5072 132.901 30.5713 132.901 29.5315V1.9757C132.901 0.831872 131.965 0 130.925 0C129.781 0 128.95 0.935856 128.95 1.9757V29.5315C128.95 30.5713 129.885 31.5072 130.925 31.5072Z" fill="#B1BECA"></path><path d="M133.213 31.5073L129.781 34.5229C129.366 34.8348 129.054 35.4587 129.054 36.0826V49.8085C129.054 50.9523 129.989 51.7842 131.029 51.7842C132.173 51.7842 133.005 50.8484 133.005 49.8085V36.9145L135.813 34.5229C136.644 33.795 136.748 32.6511 136.021 31.7153C135.293 30.8834 134.045 30.7794 133.213 31.5073Z" fill="#B1BECA"></path><path d="M156.817 48.4559L142.572 31.9225L140.596 30.2587V30.0507L143.299 28.387L156.089 17.5727C156.921 16.8448 157.025 15.597 156.297 14.7651C155.57 14.0372 154.218 13.9332 153.49 14.5571L136.956 28.491C136.54 28.8029 136.332 29.3229 136.332 29.8428C136.332 30.3627 136.436 30.8826 136.852 31.2986L153.906 51.0555C154.322 51.4715 154.842 51.6794 155.466 51.6794C155.985 51.6794 156.401 51.4715 156.713 51.1595C157.441 50.5356 157.441 49.1838 156.817 48.4559Z" fill="#B1BECA"></path><path d="M360.73 18.301H364.578V44.505C364.578 45.5448 365.513 46.3767 366.553 46.3767C367.593 46.3767 368.529 45.4408 368.529 44.505V16.4293C368.529 15.3894 367.697 14.5576 366.553 14.5576H360.73C359.69 14.5576 358.858 15.3894 358.858 16.4293C358.858 17.3651 359.69 18.301 360.73 18.301Z" fill="#B1BECA"></path><path d="M366.553 9.35856C367.593 9.35856 368.529 8.42271 368.529 7.48685V1.87171C368.529 0.831872 367.593 0 366.553 0C365.513 0 364.578 0.935856 364.578 1.87171V7.48685C364.578 8.42271 365.513 9.35856 366.553 9.35856Z" fill="#B1BECA"></path><path d="M383.815 21.4205C386.414 19.0288 390.366 17.573 394.421 17.573C399.412 17.573 403.26 19.5487 404.819 23.0842C405.131 23.8121 405.859 24.228 406.587 24.228C406.899 24.228 407.211 24.124 407.419 24.0201C407.835 23.8121 408.251 23.3961 408.355 22.8762C408.563 22.3563 408.563 21.8364 408.251 21.3165C405.963 16.4292 400.868 13.7256 394.213 13.7256C389.326 13.7256 384.334 15.4934 381.111 18.5089C380.695 18.8209 380.487 19.3408 380.487 19.8607C380.487 20.3806 380.591 20.7965 380.903 21.2125C381.735 22.0444 382.983 22.1483 383.815 21.4205Z" fill="#B1BECA"></path><path d="M191.34 20.5891C194.044 18.5094 196.019 17.5736 199.555 17.5736C204.962 17.5736 210.473 21.421 210.993 27.2441C211.097 28.2839 211.929 29.2198 212.969 29.2198C214.009 29.2198 215.048 28.3879 214.944 27.2441C214.529 19.7572 207.562 13.8301 199.555 13.8301C194.772 13.8301 192.068 15.1819 188.948 17.4696C188.117 18.0935 187.909 19.2373 188.533 20.1732C189.26 21.005 190.404 21.213 191.34 20.5891Z" fill="#B1BECA"></path><path d="M260.801 13.31C261.841 13.31 262.777 12.3741 262.777 11.3343V1.9757C262.777 0.935856 261.841 0 260.801 0C259.762 0 258.826 0.935856 258.826 1.9757V11.3343C258.93 12.3741 259.762 13.31 260.801 13.31Z" fill="#B1BECA"></path><path d="M296.156 13.8301C286.174 13.8301 279.207 20.4851 278.375 30.0516C278.271 30.4676 278.479 30.9875 278.791 31.4034C279.103 31.8194 279.623 32.1313 280.142 32.1313H280.35C281.286 32.1313 282.118 31.2995 282.222 30.2596C282.95 22.6688 288.253 17.5736 296.052 17.5736C304.475 17.5736 309.986 23.3967 309.986 32.5473C309.986 42.0098 304.371 48.2489 296.052 48.2489C288.149 48.2489 282.846 43.1536 282.118 35.0429C282.014 34.003 281.182 33.1712 280.246 33.1712H280.038C279.519 33.1712 278.999 33.4831 278.583 33.8991C278.271 34.315 278.167 34.7309 278.167 35.2508C278.791 45.0253 285.862 51.9923 295.948 51.9923C306.658 51.9923 313.833 44.0895 313.833 32.4433C314.041 21.213 306.97 13.8301 296.156 13.8301Z" fill="#B1BECA"></path><path d="M272.656 47.624H268.496C264.545 47.624 262.881 47.0001 262.881 43.1527V16.4288C262.881 15.389 261.945 14.4531 260.905 14.4531H253.315C252.275 14.4531 251.339 15.285 251.339 16.3248C251.339 17.3647 252.275 18.1965 253.315 18.1965H258.93V43.1527C258.93 49.9117 262.777 51.3675 268.496 51.3675H272.656C273.695 51.3675 274.631 50.5356 274.631 49.4957C274.631 48.4559 273.695 47.624 272.656 47.624Z" fill="#B1BECA"></path><path d="M273.072 14.5576H266.001C264.961 14.5576 264.025 15.3894 264.025 16.5333C264.025 17.5731 264.857 18.405 266.001 18.405H273.072C274.111 18.405 275.047 17.5731 275.047 16.5333C275.047 15.3894 274.111 14.5576 273.072 14.5576Z" fill="#B1BECA"></path><path d="M350.02 30.1553C348.98 30.1553 348.044 31.0911 348.044 32.131V49.8083C348.044 50.8481 348.876 51.784 350.02 51.784C351.06 51.784 351.995 50.8481 351.995 49.8083V32.131C351.891 31.0911 351.06 30.1553 350.02 30.1553Z" fill="#B1BECA"></path><path d="M323.712 14.1416C322.672 14.1416 321.736 14.9735 321.736 16.1173V49.8082C321.736 50.848 322.568 51.7839 323.712 51.7839C324.752 51.7839 325.687 50.848 325.687 49.8082V16.1173C325.687 14.9735 324.752 14.1416 323.712 14.1416Z" fill="#B1BECA"></path><path d="M406.899 25.4766C405.859 25.4766 404.923 26.3084 404.923 27.4523V37.9547C404.507 47.7292 392.237 47.8331 392.237 47.8331C387.038 47.8331 384.231 44.9216 384.231 42.01C384.231 37.6427 386.414 35.563 390.678 34.6272L402.428 32.1316C402.948 32.0276 403.364 31.7156 403.676 31.2997C403.987 30.8837 404.091 30.3638 403.987 29.8439C403.78 28.908 402.948 28.2841 402.012 28.2841C401.908 28.2841 401.804 28.2841 401.7 28.2841L389.638 30.8837C383.607 32.2355 380.383 36.083 380.383 41.9061C380.383 46.5853 384.127 51.5766 392.341 51.5766C392.341 51.5766 397.021 51.8885 401.7 49.1849C402.324 48.873 402.948 48.4571 403.78 47.8331C403.987 47.6252 404.195 47.5212 404.403 47.3132L405.131 46.0654L404.923 47.3132V49.8088C404.923 50.8487 405.755 51.7845 406.899 51.7845C407.939 51.7845 408.875 50.8487 408.875 49.8088V27.4523C408.875 26.4124 408.043 25.4766 406.899 25.4766Z" fill="#B1BECA"></path><path d="M372.48 47.625H360.522C359.482 47.625 358.65 48.5608 358.65 49.4967C358.65 50.5365 359.586 51.3684 360.522 51.3684H372.48C373.52 51.3684 374.352 50.4325 374.352 49.4967C374.352 48.4568 373.52 47.625 372.48 47.625Z" fill="#B1BECA"></path><path d="M337.646 14.5576H335.878C335.566 14.5576 335.254 14.6615 334.942 14.7655L327.559 18.7169C327.039 18.9249 326.727 19.3408 326.519 19.8608C326.311 20.3807 326.415 20.9006 326.623 21.3165C327.039 22.1484 328.183 22.5643 329.223 22.0444L336.19 18.301H337.438C343.989 18.301 347.836 21.5245 347.836 26.9317C347.836 27.9715 348.668 28.9074 349.812 28.9074C350.852 28.9074 351.787 27.9715 351.787 26.9317C351.891 19.3408 346.484 14.5576 337.646 14.5576Z" fill="#B1BECA"></path><path d="M247.18 43.0492C246.972 42.7373 246.556 42.5293 246.244 42.4253C244.684 42.0094 243.956 43.3612 243.852 43.6731C243.852 43.6731 243.852 43.6731 243.852 43.7771C243.332 44.8169 241.772 47.0006 238.341 47.9365C237.301 48.2484 235.949 48.3524 234.493 48.3524C229.814 48.3524 225.031 46.1687 223.887 43.4652C223.575 42.7373 222.847 42.3213 222.119 42.3213C221.807 42.3213 221.495 42.4253 221.287 42.5293C221.184 42.5293 221.08 42.6333 220.976 42.7373C219.936 43.4652 220.144 44.505 220.352 45.0249C222.119 48.9763 228.462 52.1998 234.493 52.1998C242.708 52.1998 246.556 48.3524 247.491 45.0249C247.595 44.713 247.699 44.193 247.491 43.7771C247.491 43.4652 247.388 43.2572 247.18 43.0492Z" fill="#B1BECA"></path><path d="M235.117 13.7256C228.462 13.7256 222.119 17.4691 221.703 21.6284C221.599 22.1483 221.703 22.5643 222.015 22.9802C222.327 23.3961 222.743 23.5001 223.263 23.6041H223.575C224.615 23.6041 225.031 22.7722 225.551 21.9404C226.487 20.0687 229.502 17.4691 235.013 17.4691C239.069 17.4691 242.708 19.0288 244.372 21.3165C244.996 22.2523 246.244 22.4603 247.076 21.9404C248.011 21.3165 248.219 20.1726 247.699 19.2368C245.412 15.9093 240.629 13.7256 235.117 13.7256Z" fill="#B1BECA"></path><path d="M210.681 43.5689C207.874 46.5844 203.922 48.2482 199.763 48.2482C192.796 48.2482 185.309 43.4649 185.309 32.8585C185.309 29.739 186.245 25.6836 188.221 23.7079C188.636 23.396 188.844 22.876 188.844 22.3561C188.844 21.8362 188.636 21.3163 188.325 20.9004C187.701 20.1725 186.349 20.1725 185.621 20.9004C182.813 23.6039 181.566 28.9071 181.566 32.8585C181.566 46.0645 191.132 52.0956 199.971 52.0956C205.274 52.0956 210.369 50.0159 213.801 46.3764C214.529 45.5446 214.425 44.2968 213.697 43.5689C212.657 42.841 211.409 42.841 210.681 43.5689Z" fill="#B1BECA"></path><path d="M236.677 31.9229L232.518 30.4671C230.958 29.8432 226.383 28.0755 225.551 26.2038C225.239 25.3719 224.615 24.748 223.679 24.748C223.471 24.748 223.367 24.748 223.159 24.852C222.639 24.956 222.223 25.3719 221.911 25.7878C221.703 26.2038 221.599 26.7237 221.703 27.2436C222.535 30.1552 227.215 32.8587 230.958 34.2105L235.117 35.6663C235.845 35.9783 236.677 36.1862 237.405 36.4982C240.629 37.642 243.124 38.4739 243.956 40.3456C244.268 41.0735 245.1 41.4894 245.828 41.4894C246.036 41.4894 246.348 41.4894 246.556 41.2815C247.491 40.7615 248.011 39.6177 247.595 38.6819C246.452 35.4584 242.188 33.8986 236.677 31.9229Z" fill="#B1BECA"></path><path d="M213.073 30.0518H188.429C187.389 30.0518 186.453 30.8836 186.453 31.9235C186.453 32.9633 187.389 33.7952 188.429 33.7952H213.073C214.113 33.7952 215.048 32.9633 215.048 31.9235C215.048 30.8836 214.113 30.0518 213.073 30.0518Z" fill="#B1BECA"></path></g><defs><clipPath id="clip0_83_12"><rect width="409" height="53" fill="white"></rect></clipPath></defs></svg> 